<svg xmlns="http://www.w3.org/2000/svg" xmlns:xlink="http://www.w3.org/1999/xlink" contentStyleType="text/css" data-diagram-type="STATE" height="860px" preserveAspectRatio="none" style="width:675px;height:860px;background:#FFFFFF;" version="1.1" viewBox="0 0 675 860" width="675px" zoomAndPan="magnify"><defs/><g><path d="M330,87 L600,87 A12.5,12.5 0 0 1 612.5,99.5 L612.5,115.3203 L317.5,115.3203 L317.5,99.5 A12.5,12.5 0 0 1 330,87" fill="#F1F1F1"/><rect fill="none" height="104.3438" rx="12.5" ry="12.5" style="stroke:#181818;stroke-width:0.5;" width="295" x="317.5" y="87"/><line style="stroke:#181818;stroke-width:0.5;" x1="317.5" x2="612.5" y1="115.3203" y2="115.3203"/><text fill="#000000" font-family="sans-serif" font-size="14" lengthAdjust="spacing" textLength="53.3545" x="438.3228" y="106.6016">GetSW0</text><g id="GetSW0.GetADVal0"><rect fill="#F1F1F1" height="54.0234" rx="12.5" ry="12.5" style="stroke:#181818;stroke-width:0.5;" width="92.085" x="366.5" y="127.3203"/><line style="stroke:#181818;stroke-width:0.5;" x1="366.5" x2="458.585" y1="155.6406" y2="155.6406"/><text fill="#000000" font-family="sans-serif" font-size="14" lengthAdjust="spacing" textLength="72.085" x="376.5" y="146.9219">GetADVal0</text><text fill="#000000" font-family="sans-serif" font-size="12" lengthAdjust="spacing" textLength="56.1504" x="371.5" y="173.1563">Read AN0</text></g><g id="GetSW0.JudgeSW0"><rect fill="#F1F1F1" height="54.0234" rx="12.5" ry="12.5" style="stroke:#181818;stroke-width:0.5;" width="88.25" x="476.5" y="127.3203"/><line style="stroke:#181818;stroke-width:0.5;" x1="476.5" x2="564.75" y1="155.6406" y2="155.6406"/><text fill="#000000" font-family="sans-serif" font-size="14" lengthAdjust="spacing" textLength="68.25" x="486.5" y="146.9219">JudgeSW0</text><text fill="#000000" font-family="sans-serif" font-size="12" lengthAdjust="spacing" textLength="55.6582" x="481.5" y="173.1563">return SW</text></g><ellipse cx="338.5" cy="154.3203" fill="#222222" rx="10" ry="10" style="stroke:#222222;stroke-width:1;"/><ellipse cx="593.5" cy="154.3203" fill="none" rx="11" ry="11" style="stroke:#222222;stroke-width:1;"/><ellipse cx="593.5" cy="154.3203" fill="#222222" rx="6" ry="6" style="stroke:#222222;stroke-width:1;"/><!--link *start*GetSW0 to GetADVal0--><g class="link" data-entity-1=".start.GetSW0" data-entity-2="GetADVal0" data-source-line="9" data-uid="lnk3" id="link_.start.GetSW0_GetADVal0"><path d="M348.62,154.3203 C354.44,154.3203 354.26,154.3203 360.09,154.3203" fill="none" id="*start*GetSW0-to-GetADVal0" style="stroke:#181818;stroke-width:1;"/><polygon fill="#181818" points="366.09,154.3203,357.09,150.3203,361.09,154.3203,357.09,158.3203,366.09,154.3203" style="stroke:#181818;stroke-width:1;"/></g><!--link GetADVal0 to JudgeSW0--><g class="link" data-entity-1="GetADVal0" data-entity-2="JudgeSW0" data-source-line="10" data-uid="lnk4" id="link_GetADVal0_JudgeSW0"><path d="M458.91,154.3203 C464.68,154.3203 464.46,154.3203 470.23,154.3203" fill="none" id="GetADVal0-to-JudgeSW0" style="stroke:#181818;stroke-width:1;"/><polygon fill="#181818" points="476.23,154.3203,467.23,150.3203,471.23,154.3203,467.23,158.3203,476.23,154.3203" style="stroke:#181818;stroke-width:1;"/></g><!--link JudgeSW0 to *end*GetSW0--><g class="link" data-entity-1="JudgeSW0" data-entity-2=".end.GetSW0" data-source-line="11" data-uid="lnk6" id="link_JudgeSW0_.end.GetSW0"><path d="M564.7,154.3203 C570.55,154.3203 570.4,154.3203 576.25,154.3203" fill="none" id="JudgeSW0-to-*end*GetSW0" style="stroke:#181818;stroke-width:1;"/><polygon fill="#181818" points="582.25,154.3203,573.25,150.3203,577.25,154.3203,573.25,158.3203,582.25,154.3203" style="stroke:#181818;stroke-width:1;"/></g><path d="M92,518 L362,518 A12.5,12.5 0 0 1 374.5,530.5 L374.5,546.3203 L79.5,546.3203 L79.5,530.5 A12.5,12.5 0 0 1 92,518" fill="#F1F1F1"/><rect fill="none" height="104.3438" rx="12.5" ry="12.5" style="stroke:#181818;stroke-width:0.5;" width="295" x="79.5" y="518"/><line style="stroke:#181818;stroke-width:0.5;" x1="79.5" x2="374.5" y1="546.3203" y2="546.3203"/><text fill="#000000" font-family="sans-serif" font-size="14" lengthAdjust="spacing" textLength="53.3545" x="200.3228" y="537.6016">GetSW1</text><g id="GetSW1.GetADVal1"><rect fill="#F1F1F1" height="54.0234" rx="12.5" ry="12.5" style="stroke:#181818;stroke-width:0.5;" width="92.085" x="128.5" y="558.3203"/><line style="stroke:#181818;stroke-width:0.5;" x1="128.5" x2="220.585" y1="586.6406" y2="586.6406"/><text fill="#000000" font-family="sans-serif" font-size="14" lengthAdjust="spacing" textLength="72.085" x="138.5" y="577.9219">GetADVal1</text><text fill="#000000" font-family="sans-serif" font-size="12" lengthAdjust="spacing" textLength="56.1504" x="133.5" y="604.1563">Read AN0</text></g><g id="GetSW1.JudgeSW1"><rect fill="#F1F1F1" height="54.0234" rx="12.5" ry="12.5" style="stroke:#181818;stroke-width:0.5;" width="88.25" x="238.5" y="558.3203"/><line style="stroke:#181818;stroke-width:0.5;" x1="238.5" x2="326.75" y1="586.6406" y2="586.6406"/><text fill="#000000" font-family="sans-serif" font-size="14" lengthAdjust="spacing" textLength="68.25" x="248.5" y="577.9219">JudgeSW1</text><text fill="#000000" font-family="sans-serif" font-size="12" lengthAdjust="spacing" textLength="55.6582" x="243.5" y="604.1563">return SW</text></g><ellipse cx="100.5" cy="585.3203" fill="#222222" rx="10" ry="10" style="stroke:#222222;stroke-width:1;"/><ellipse cx="355.5" cy="585.3203" fill="none" rx="11" ry="11" style="stroke:#222222;stroke-width:1;"/><ellipse cx="355.5" cy="585.3203" fill="#222222" rx="6" ry="6" style="stroke:#222222;stroke-width:1;"/><!--link *start*GetSW1 to GetADVal1--><g class="link" data-entity-1=".start.GetSW1" data-entity-2="GetADVal1" data-source-line="18" data-uid="lnk8" id="link_.start.GetSW1_GetADVal1"><path d="M110.62,585.3203 C116.44,585.3203 116.26,585.3203 122.09,585.3203" fill="none" id="*start*GetSW1-to-GetADVal1" style="stroke:#181818;stroke-width:1;"/><polygon fill="#181818" points="128.09,585.3203,119.09,581.3203,123.09,585.3203,119.09,589.3203,128.09,585.3203" style="stroke:#181818;stroke-width:1;"/></g><!--link GetADVal1 to JudgeSW1--><g class="link" data-entity-1="GetADVal1" data-entity-2="JudgeSW1" data-source-line="19" data-uid="lnk9" id="link_GetADVal1_JudgeSW1"><path d="M220.91,585.3203 C226.68,585.3203 226.46,585.3203 232.23,585.3203" fill="none" id="GetADVal1-to-JudgeSW1" style="stroke:#181818;stroke-width:1;"/><polygon fill="#181818" points="238.23,585.3203,229.23,581.3203,233.23,585.3203,229.23,589.3203,238.23,585.3203" style="stroke:#181818;stroke-width:1;"/></g><!--link JudgeSW1 to *end*GetSW1--><g class="link" data-entity-1="JudgeSW1" data-entity-2=".end.GetSW1" data-source-line="20" data-uid="lnk11" id="link_JudgeSW1_.end.GetSW1"><path d="M326.7,585.3203 C332.55,585.3203 332.4,585.3203 338.25,585.3203" fill="none" id="JudgeSW1-to-*end*GetSW1" style="stroke:#181818;stroke-width:1;"/><polygon fill="#181818" points="344.25,585.3203,335.25,581.3203,339.25,585.3203,335.25,589.3203,344.25,585.3203" style="stroke:#181818;stroke-width:1;"/></g><g id="GetTick0"><rect fill="#F1F1F1" height="54.0234" rx="12.5" ry="12.5" style="stroke:#181818;stroke-width:0.5;" width="128.3105" x="246" y="270"/><line style="stroke:#181818;stroke-width:0.5;" x1="246" x2="374.3105" y1="298.3203" y2="298.3203"/><text fill="#000000" font-family="sans-serif" font-size="14" lengthAdjust="spacing" textLength="59.2061" x="280.5522" y="289.6016">GetTick0</text><text fill="#000000" font-family="sans-serif" font-size="12" lengthAdjust="spacing" textLength="108.3105" x="251" y="315.8359">lastTick = TickGet()</text></g><g id="Wait2ms"><rect fill="#F1F1F1" height="54.0234" rx="12.5" ry="12.5" style="stroke:#181818;stroke-width:0.5;" width="95.4043" x="196.5" y="403"/><line style="stroke:#181818;stroke-width:0.5;" x1="196.5" x2="291.9043" y1="431.3203" y2="431.3203"/><text fill="#000000" font-family="sans-serif" font-size="14" lengthAdjust="spacing" textLength="56.7998" x="215.8022" y="422.6016">Wait2ms</text><text fill="#000000" font-family="sans-serif" font-size="12" lengthAdjust="spacing" textLength="75.4043" x="201.5" y="448.8359">for debounce</text></g><g id="Issue_SW_CHANGED_EVENT"><rect fill="#F1F1F1" height="69.7266" rx="12.5" ry="12.5" style="stroke:#181818;stroke-width:0.5;" width="209.875" x="7" y="701"/><line style="stroke:#181818;stroke-width:0.5;" x1="7" x2="216.875" y1="729.3203" y2="729.3203"/><text fill="#000000" font-family="sans-serif" font-size="14" lengthAdjust="spacing" textLength="189.875" x="17" y="720.6016">Issue_SW_CHANGED_EVENT</text><text fill="#000000" font-family="sans-serif" font-size="12" lengthAdjust="spacing" textLength="52.1133" x="12" y="746.8359">last = SW</text><text fill="#000000" font-family="sans-serif" font-size="12" lengthAdjust="spacing" textLength="85.7227" x="12" y="762.5391">changed = true</text></g><g id="CheckHoldTime"><rect fill="#F1F1F1" height="54.0234" rx="12.5" ry="12.5" style="stroke:#181818;stroke-width:0.5;" width="259.2266" x="409.5" y="543"/><line style="stroke:#181818;stroke-width:0.5;" x1="409.5" x2="668.7266" y1="571.3203" y2="571.3203"/><text fill="#000000" font-family="sans-serif" font-size="14" lengthAdjust="spacing" textLength="105.2803" x="486.4731" y="562.6016">CheckHoldTime</text><text fill="#000000" font-family="sans-serif" font-size="12" lengthAdjust="spacing" textLength="239.2266" x="414.5" y="588.8359">changed &amp;&amp; (2 sec. &lt; (TickGet() - lastTick))</text></g><g id="Issue_SW_HOLD_EVENT"><rect fill="#F1F1F1" height="54.0234" rx="12.5" ry="12.5" style="stroke:#181818;stroke-width:0.5;" width="179.8105" x="388" y="709"/><line style="stroke:#181818;stroke-width:0.5;" x1="388" x2="567.8105" y1="737.3203" y2="737.3203"/><text fill="#000000" font-family="sans-serif" font-size="14" lengthAdjust="spacing" textLength="159.8105" x="398" y="728.6016">Issue_SW_HOLD_EVENT</text><text fill="#000000" font-family="sans-serif" font-size="12" lengthAdjust="spacing" textLength="88.9336" x="393" y="754.8359">changed = false</text></g><ellipse cx="465" cy="16" fill="#222222" rx="10" ry="10" style="stroke:#222222;stroke-width:1;"/><ellipse cx="382" cy="843" fill="none" rx="11" ry="11" style="stroke:#222222;stroke-width:1;"/><ellipse cx="382" cy="843" fill="#222222" rx="6" ry="6" style="stroke:#222222;stroke-width:1;"/><!--link *start* to GetSW0--><g class="link" data-entity-1=".start." data-entity-2="GetSW0" data-source-line="24" data-uid="lnk13" id="link_.start._GetSW0"><path d="M465,26.09 C465,39.07 465,57.85 465,80.81" fill="none" id="*start*-to-GetSW0" style="stroke:#181818;stroke-width:1;"/><polygon fill="#181818" points="465,86.81,469,77.81,465,81.81,461,77.81,465,86.81" style="stroke:#181818;stroke-width:1;"/></g><!--link GetSW0 to CheckHoldTime--><g class="link" data-entity-1="GetSW0" data-entity-2="CheckHoldTime" data-source-line="25" data-uid="lnk14" id="link_GetSW0_CheckHoldTime"><path d="M492.19,191.3 C496.4,200.95 500.26,211.12 503,221 C535.42,337.76 539.1618,477.88 539.2418,536.69" fill="none" id="GetSW0-to-CheckHoldTime" style="stroke:#181818;stroke-width:1;"/><polygon fill="#181818" points="539.25,542.69,543.2378,533.6846,539.2432,537.69,535.2378,533.6954,539.25,542.69" style="stroke:#181818;stroke-width:1;"/><text fill="#000000" font-family="sans-serif" font-size="13" lengthAdjust="spacing" textLength="115.0322" x="532" y="368.5586">last == (now = SW)</text></g><!--link GetSW0 to GetTick0--><g class="link" data-entity-1="GetSW0" data-entity-2="GetTick0" data-source-line="26" data-uid="lnk15" id="link_GetSW0_GetTick0"><path d="M414.25,191.08 C388.11,217.38 361.5787,244.0835 340.2787,265.5235" fill="none" id="GetSW0-to-GetTick0" style="stroke:#181818;stroke-width:1;"/><polygon fill="#181818" points="336.05,269.78,345.2308,266.2144,339.5739,266.2329,339.5554,260.5761,336.05,269.78" style="stroke:#181818;stroke-width:1;"/><text fill="#000000" font-family="sans-serif" font-size="13" lengthAdjust="spacing" textLength="110.0874" x="384" y="235.5586">last != (now = SW)</text></g><!--link GetTick0 to Wait2ms--><g class="link" data-entity-1="GetTick0" data-entity-2="Wait2ms" data-source-line="30" data-uid="lnk16" id="link_GetTick0_Wait2ms"><path d="M296.8,324.19 C285.29,347.04 271.3811,374.6624 259.8711,397.4924" fill="none" id="GetTick0-to-Wait2ms" style="stroke:#181818;stroke-width:1;"/><polygon fill="#181818" points="257.17,402.85,264.7934,396.6143,259.4209,398.3853,257.6499,393.0128,257.17,402.85" style="stroke:#181818;stroke-width:1;"/></g><!--link Wait2ms to GetSW1--><g class="link" data-entity-1="Wait2ms" data-entity-2="GetSW1" data-source-line="31" data-uid="lnk17" id="link_Wait2ms_GetSW1"><path d="M240.76,457.28 C238.65,474.41 236.5635,491.365 234.0235,511.985" fill="none" id="Wait2ms-to-GetSW1" style="stroke:#181818;stroke-width:1;"/><polygon fill="#181818" points="233.29,517.94,238.3603,509.4965,233.9013,512.9775,230.4203,508.5185,233.29,517.94" style="stroke:#181818;stroke-width:1;"/></g><!--link GetSW1 to Issue_SW_CHANGED_EVENT--><g class="link" data-entity-1="GetSW1" data-entity-2="Issue_SW_CHANGED_EVENT" data-source-line="37" data-uid="lnk18" id="link_GetSW1_Issue_SW_CHANGED_EVENT"><path d="M190.93,622.44 C173.01,647.99 155.3053,673.2478 139.4053,695.9178" fill="none" id="GetSW1-to-Issue_SW_CHANGED_EVENT" style="stroke:#181818;stroke-width:1;"/><polygon fill="#181818" points="135.96,700.83,144.4027,695.7585,138.8311,696.7365,137.8531,691.1648,135.96,700.83" style="stroke:#181818;stroke-width:1;"/><text fill="#000000" font-family="sans-serif" font-size="13" lengthAdjust="spacing" textLength="69.5894" x="171" y="666.5586">now == SW</text></g><!--link GetSW1 to *end*--><g class="link" data-entity-1="GetSW1" data-entity-2=".end." data-source-line="38" data-uid="lnk20" id="link_GetSW1_.end."><path d="M243.64,622.03 C260.67,672.64 286.98,746.13 304,771 C323.75,799.87 352.5218,821.7576 368.3618,832.7576" fill="none" id="GetSW1-to-*end*" style="stroke:#181818;stroke-width:1;"/><polygon fill="#181818" points="373.29,836.18,368.1793,827.761,369.1832,833.328,363.6161,834.3319,373.29,836.18" style="stroke:#181818;stroke-width:1;"/><text fill="#000000" font-family="sans-serif" font-size="13" lengthAdjust="spacing" textLength="64.6445" x="305" y="741.0586">now != SW</text></g><!--link Issue_SW_CHANGED_EVENT to *end*--><g class="link" data-entity-1="Issue_SW_CHANGED_EVENT" data-entity-2=".end." data-source-line="39" data-uid="lnk21" id="link_Issue_SW_CHANGED_EVENT_.end."><path d="M186.48,771.09 C210.12,781.48 236.49,792.62 261,802 C301.3,817.41 344.6633,830.8249 365.7833,837.1649" fill="none" id="Issue_SW_CHANGED_EVENT-to-*end*" style="stroke:#181818;stroke-width:1;"/><polygon fill="#181818" points="371.53,838.89,364.0601,832.4713,366.7411,837.4524,361.76,840.1335,371.53,838.89" style="stroke:#181818;stroke-width:1;"/></g><!--link CheckHoldTime to *end*--><g class="link" data-entity-1="CheckHoldTime" data-entity-2=".end." data-source-line="43" data-uid="lnk22" id="link_CheckHoldTime_.end."><path d="M557.3,597.2 C583.33,638.02 623.92,717.65 586,771 C539.72,836.1 435.2299,841.9949 399.4199,842.1449" fill="none" id="CheckHoldTime-to-*end*" style="stroke:#181818;stroke-width:1;"/><polygon fill="#181818" points="393.42,842.17,402.4367,846.1323,398.42,842.1491,402.4032,838.1323,393.42,842.17" style="stroke:#181818;stroke-width:1;"/><text fill="#000000" font-family="sans-serif" font-size="13" lengthAdjust="spacing" textLength="17.729" x="602" y="741.0586">No</text></g><!--link CheckHoldTime to Issue_SW_HOLD_EVENT--><g class="link" data-entity-1="CheckHoldTime" data-entity-2="Issue_SW_HOLD_EVENT" data-source-line="45" data-uid="lnk23" id="link_CheckHoldTime_Issue_SW_HOLD_EVENT"><path d="M529.2,597.35 C517.78,628.04 501.1312,672.8162 489.7712,703.3662" fill="none" id="CheckHoldTime-to-Issue_SW_HOLD_EVENT" style="stroke:#181818;stroke-width:1;"/><polygon fill="#181818" points="487.68,708.99,494.566,701.9485,489.4227,704.3035,487.0676,699.1602,487.68,708.99" style="stroke:#181818;stroke-width:1;"/><text fill="#000000" font-family="sans-serif" font-size="13" lengthAdjust="spacing" textLength="21.4487" x="510" y="666.5586">Yes</text></g><!--link Issue_SW_HOLD_EVENT to *end*--><g class="link" data-entity-1="Issue_SW_HOLD_EVENT" data-entity-2=".end." data-source-line="46" data-uid="lnk24" id="link_Issue_SW_HOLD_EVENT_.end."><path d="M454.02,763.23 C432.7,786.55 406.9008,814.7739 393.3008,829.6339" fill="none" id="Issue_SW_HOLD_EVENT-to-*end*" style="stroke:#181818;stroke-width:1;"/><polygon fill="#181818" points="389.25,834.06,398.277,830.1214,392.6257,830.3716,392.3755,824.7202,389.25,834.06" style="stroke:#181818;stroke-width:1;"/></g><!--SRC=[VP91QuD048NFpg-ON88MKjmSGrC8IKXQYeKcH48fmUeaaHWDxaeffV-zkqPNRRKdTUPxEs_UUWm3GZfVn2S6nFqql8WmYG602qyGBaYiN1k_mD3Vazd6YsmSuGjv0KuSk-mzPi6153t2b4IMnhXo0OpNcpSSt5TACAf3PBrKWQ7riYf5yDqmmVwQODqcsFycM6M2rKmmROBLJ40klggLqI8JLPaUoJyjaoXOXsSoHXXvNE1uZ6QSVE1OZhRgj7nTX_x9Bi5U0woMpI6yGkfT0keXEwPLKAuNYk6PIsYVfFBctfCizWcqM8qh62XPlG8hPprmdj5kvUwcoucpcCzsyytSMOFHNiToFnLfD-CVlVX0WSH4cX50SNjgUgScJo4_jqQhsA-jNjxgK1Ue_cKRTrBpq- -ZEKHE_YtUeQa3nO7EsRAWAQvSECdlo9RFJsqxxxs84xQSqoxS4eUsJhdK3m00]--></g></svg>