<svg xmlns="http://www.w3.org/2000/svg" xmlns:xlink="http://www.w3.org/1999/xlink" contentStyleType="text/css" data-diagram-type="STATE" height="742px" preserveAspectRatio="none" style="width:691px;height:742px;background:#FFFFFF;" version="1.1" viewBox="0 0 691 742" width="691px" zoomAndPan="magnify"><defs/><g><path d="M254.5,87 L665.5,87 A12.5,12.5 0 0 1 678,99.5 L678,115.3203 L242,115.3203 L242,99.5 A12.5,12.5 0 0 1 254.5,87" fill="#F1F1F1"/><rect fill="none" height="104.3438" rx="12.5" ry="12.5" style="stroke:#181818;stroke-width:0.5;" width="436" x="242" y="87"/><line style="stroke:#181818;stroke-width:0.5;" x1="242" x2="678" y1="115.3203" y2="115.3203"/><text fill="#000000" font-family="sans-serif" font-size="14" lengthAdjust="spacing" textLength="53.3545" x="433.3228" y="106.6016">GetSW0</text><g id="GetSW0.GetADVal0"><rect fill="#F1F1F1" height="54.0234" rx="12.5" ry="12.5" style="stroke:#181818;stroke-width:0.5;" width="92.085" x="291" y="127.3203"/><line style="stroke:#181818;stroke-width:0.5;" x1="291" x2="383.085" y1="155.6406" y2="155.6406"/><text fill="#000000" font-family="sans-serif" font-size="14" lengthAdjust="spacing" textLength="72.085" x="301" y="146.9219">GetADVal0</text><text fill="#000000" font-family="sans-serif" font-size="12" lengthAdjust="spacing" textLength="56.1504" x="296" y="173.1563">Read AN0</text></g><g id="GetSW0.JudgeSW0"><rect fill="#F1F1F1" height="54.0234" rx="12.5" ry="12.5" style="stroke:#181818;stroke-width:0.5;" width="91.3789" x="401.5" y="127.3203"/><line style="stroke:#181818;stroke-width:0.5;" x1="401.5" x2="492.8789" y1="155.6406" y2="155.6406"/><text fill="#000000" font-family="sans-serif" font-size="14" lengthAdjust="spacing" textLength="68.25" x="413.0645" y="146.9219">JudgeSW0</text><text fill="#000000" font-family="sans-serif" font-size="12" lengthAdjust="spacing" textLength="71.3789" x="406.5" y="173.1563">AD val to SW</text></g><g id="GetSW0.UpdateCurrSW"><rect fill="#F1F1F1" height="54.0234" rx="12.5" ry="12.5" style="stroke:#181818;stroke-width:0.5;" width="118.5537" x="510.5" y="127.3203"/><line style="stroke:#181818;stroke-width:0.5;" x1="510.5" x2="629.0537" y1="155.6406" y2="155.6406"/><text fill="#000000" font-family="sans-serif" font-size="14" lengthAdjust="spacing" textLength="98.5537" x="520.5" y="146.9219">UpdateCurrSW</text><text fill="#000000" font-family="sans-serif" font-size="12" lengthAdjust="spacing" textLength="73.3945" x="515.5" y="173.1563">currSW = SW</text></g><ellipse cx="263" cy="154.3203" fill="#222222" rx="10" ry="10" style="stroke:#222222;stroke-width:1;"/><ellipse cx="659" cy="154.3203" fill="none" rx="11" ry="11" style="stroke:#222222;stroke-width:1;"/><ellipse cx="659" cy="154.3203" fill="#222222" rx="6" ry="6" style="stroke:#222222;stroke-width:1;"/><!--link *start*GetSW0 to GetADVal0--><g class="link" data-entity-1=".start.GetSW0" data-entity-2="GetADVal0" data-source-line="10" data-uid="lnk3" id="link_.start.GetSW0_GetADVal0"><path d="M273.12,154.3203 C278.94,154.3203 278.76,154.3203 284.59,154.3203" fill="none" id="*start*GetSW0-to-GetADVal0" style="stroke:#181818;stroke-width:1;"/><polygon fill="#181818" points="290.59,154.3203,281.59,150.3203,285.59,154.3203,281.59,158.3203,290.59,154.3203" style="stroke:#181818;stroke-width:1;"/></g><!--link GetADVal0 to JudgeSW0--><g class="link" data-entity-1="GetADVal0" data-entity-2="JudgeSW0" data-source-line="11" data-uid="lnk4" id="link_GetADVal0_JudgeSW0"><path d="M383.41,154.3203 C389.37,154.3203 389.33,154.3203 395.29,154.3203" fill="none" id="GetADVal0-to-JudgeSW0" style="stroke:#181818;stroke-width:1;"/><polygon fill="#181818" points="401.29,154.3203,392.29,150.3203,396.29,154.3203,392.29,158.3203,401.29,154.3203" style="stroke:#181818;stroke-width:1;"/></g><!--link JudgeSW0 to UpdateCurrSW--><g class="link" data-entity-1="JudgeSW0" data-entity-2="UpdateCurrSW" data-source-line="12" data-uid="lnk5" id="link_JudgeSW0_UpdateCurrSW"><path d="M492.64,154.3203 C498.59,154.3203 498.53,154.3203 504.47,154.3203" fill="none" id="JudgeSW0-to-UpdateCurrSW" style="stroke:#181818;stroke-width:1;"/><polygon fill="#181818" points="510.47,154.3203,501.47,150.3203,505.47,154.3203,501.47,158.3203,510.47,154.3203" style="stroke:#181818;stroke-width:1;"/></g><!--link UpdateCurrSW to *end*GetSW0--><g class="link" data-entity-1="UpdateCurrSW" data-entity-2=".end.GetSW0" data-source-line="13" data-uid="lnk7" id="link_UpdateCurrSW_.end.GetSW0"><path d="M629.8,154.3203 C635.73,154.3203 635.66,154.3203 641.59,154.3203" fill="none" id="UpdateCurrSW-to-*end*GetSW0" style="stroke:#181818;stroke-width:1;"/><polygon fill="#181818" points="647.59,154.3203,638.59,150.3203,642.59,154.3203,638.59,158.3203,647.59,154.3203" style="stroke:#181818;stroke-width:1;"/></g><path d="M98,385 L372,385 A12.5,12.5 0 0 1 384.5,397.5 L384.5,413.3203 L85.5,413.3203 L85.5,397.5 A12.5,12.5 0 0 1 98,385" fill="#F1F1F1"/><rect fill="none" height="104.3438" rx="12.5" ry="12.5" style="stroke:#181818;stroke-width:0.5;" width="299" x="85.5" y="385"/><line style="stroke:#181818;stroke-width:0.5;" x1="85.5" x2="384.5" y1="413.3203" y2="413.3203"/><text fill="#000000" font-family="sans-serif" font-size="14" lengthAdjust="spacing" textLength="53.3545" x="208.3228" y="404.6016">GetSW1</text><g id="GetSW1.GetADVal1"><rect fill="#F1F1F1" height="54.0234" rx="12.5" ry="12.5" style="stroke:#181818;stroke-width:0.5;" width="92.085" x="134.5" y="425.3203"/><line style="stroke:#181818;stroke-width:0.5;" x1="134.5" x2="226.585" y1="453.6406" y2="453.6406"/><text fill="#000000" font-family="sans-serif" font-size="14" lengthAdjust="spacing" textLength="72.085" x="144.5" y="444.9219">GetADVal1</text><text fill="#000000" font-family="sans-serif" font-size="12" lengthAdjust="spacing" textLength="56.1504" x="139.5" y="471.1563">Read AN0</text></g><g id="GetSW1.JudgeSW1"><rect fill="#F1F1F1" height="54.0234" rx="12.5" ry="12.5" style="stroke:#181818;stroke-width:0.5;" width="91.3789" x="245" y="425.3203"/><line style="stroke:#181818;stroke-width:0.5;" x1="245" x2="336.3789" y1="453.6406" y2="453.6406"/><text fill="#000000" font-family="sans-serif" font-size="14" lengthAdjust="spacing" textLength="68.25" x="256.5645" y="444.9219">JudgeSW1</text><text fill="#000000" font-family="sans-serif" font-size="12" lengthAdjust="spacing" textLength="71.3789" x="250" y="471.1563">AD val to SW</text></g><ellipse cx="106.5" cy="452.3203" fill="#222222" rx="10" ry="10" style="stroke:#222222;stroke-width:1;"/><ellipse cx="365.5" cy="452.3203" fill="none" rx="11" ry="11" style="stroke:#222222;stroke-width:1;"/><ellipse cx="365.5" cy="452.3203" fill="#222222" rx="6" ry="6" style="stroke:#222222;stroke-width:1;"/><!--link *start*GetSW1 to GetADVal1--><g class="link" data-entity-1=".start.GetSW1" data-entity-2="GetADVal1" data-source-line="20" data-uid="lnk9" id="link_.start.GetSW1_GetADVal1"><path d="M116.62,452.3203 C122.44,452.3203 122.26,452.3203 128.09,452.3203" fill="none" id="*start*GetSW1-to-GetADVal1" style="stroke:#181818;stroke-width:1;"/><polygon fill="#181818" points="134.09,452.3203,125.09,448.3203,129.09,452.3203,125.09,456.3203,134.09,452.3203" style="stroke:#181818;stroke-width:1;"/></g><!--link GetADVal1 to JudgeSW1--><g class="link" data-entity-1="GetADVal1" data-entity-2="JudgeSW1" data-source-line="21" data-uid="lnk10" id="link_GetADVal1_JudgeSW1"><path d="M226.91,452.3203 C232.87,452.3203 232.83,452.3203 238.79,452.3203" fill="none" id="GetADVal1-to-JudgeSW1" style="stroke:#181818;stroke-width:1;"/><polygon fill="#181818" points="244.79,452.3203,235.79,448.3203,239.79,452.3203,235.79,456.3203,244.79,452.3203" style="stroke:#181818;stroke-width:1;"/></g><!--link JudgeSW1 to *end*GetSW1--><g class="link" data-entity-1="JudgeSW1" data-entity-2=".end.GetSW1" data-source-line="22" data-uid="lnk12" id="link_JudgeSW1_.end.GetSW1"><path d="M336.2,452.3203 C342.15,452.3203 342.1,452.3203 348.06,452.3203" fill="none" id="JudgeSW1-to-*end*GetSW1" style="stroke:#181818;stroke-width:1;"/><polygon fill="#181818" points="354.06,452.3203,345.06,448.3203,349.06,452.3203,345.06,456.3203,354.06,452.3203" style="stroke:#181818;stroke-width:1;"/></g><g id="Wait2ms"><rect fill="#F1F1F1" height="54.0234" rx="12.5" ry="12.5" style="stroke:#181818;stroke-width:0.5;" width="95.4043" x="256.5" y="270"/><line style="stroke:#181818;stroke-width:0.5;" x1="256.5" x2="351.9043" y1="298.3203" y2="298.3203"/><text fill="#000000" font-family="sans-serif" font-size="14" lengthAdjust="spacing" textLength="56.7998" x="275.8022" y="289.6016">Wait2ms</text><text fill="#000000" font-family="sans-serif" font-size="12" lengthAdjust="spacing" textLength="75.4043" x="261.5" y="315.8359">for debounce</text></g><g id="Issue_SW_CHANGED_EVENT"><rect fill="#F1F1F1" height="85.4297" rx="12.5" ry="12.5" style="stroke:#181818;stroke-width:0.5;" width="209.875" x="7" y="568"/><line style="stroke:#181818;stroke-width:0.5;" x1="7" x2="216.875" y1="596.3203" y2="596.3203"/><text fill="#000000" font-family="sans-serif" font-size="14" lengthAdjust="spacing" textLength="189.875" x="17" y="587.6016">Issue_SW_CHANGED_EVENT</text><text fill="#000000" font-family="sans-serif" font-size="12" lengthAdjust="spacing" textLength="70.2715" x="12" y="613.8359">lastSW = SW</text><text fill="#000000" font-family="sans-serif" font-size="12" lengthAdjust="spacing" textLength="85.7227" x="12" y="629.5391">changed = true</text><text fill="#000000" font-family="sans-serif" font-size="12" lengthAdjust="spacing" textLength="108.3105" x="12" y="645.2422">lastTick = TickGet()</text></g><g id="CheckHoldTime"><rect fill="#F1F1F1" height="54.0234" rx="12.5" ry="12.5" style="stroke:#181818;stroke-width:0.5;" width="259.2266" x="419.5" y="410"/><line style="stroke:#181818;stroke-width:0.5;" x1="419.5" x2="678.7266" y1="438.3203" y2="438.3203"/><text fill="#000000" font-family="sans-serif" font-size="14" lengthAdjust="spacing" textLength="105.2803" x="496.4731" y="429.6016">CheckHoldTime</text><text fill="#000000" font-family="sans-serif" font-size="12" lengthAdjust="spacing" textLength="239.2266" x="424.5" y="455.8359">changed &amp;&amp; (2 sec. &lt; (TickGet() - lastTick))</text></g><g id="Issue_SW_HOLD_EVENT"><rect fill="#F1F1F1" height="54.0234" rx="12.5" ry="12.5" style="stroke:#181818;stroke-width:0.5;" width="179.8105" x="407" y="583.5"/><line style="stroke:#181818;stroke-width:0.5;" x1="407" x2="586.8105" y1="611.8203" y2="611.8203"/><text fill="#000000" font-family="sans-serif" font-size="14" lengthAdjust="spacing" textLength="159.8105" x="417" y="603.1016">Issue_SW_HOLD_EVENT</text><text fill="#000000" font-family="sans-serif" font-size="12" lengthAdjust="spacing" textLength="88.9336" x="412" y="629.3359">changed = false</text></g><ellipse cx="460" cy="16" fill="#222222" rx="10" ry="10" style="stroke:#222222;stroke-width:1;"/><ellipse cx="392" cy="725" fill="none" rx="11" ry="11" style="stroke:#222222;stroke-width:1;"/><ellipse cx="392" cy="725" fill="#222222" rx="6" ry="6" style="stroke:#222222;stroke-width:1;"/><!--link *start* to GetSW0--><g class="link" data-entity-1=".start." data-entity-2="GetSW0" data-source-line="26" data-uid="lnk14" id="link_.start._GetSW0"><path d="M460,26.09 C460,39.07 460,57.85 460,80.81" fill="none" id="*start*-to-GetSW0" style="stroke:#181818;stroke-width:1;"/><polygon fill="#181818" points="460,86.81,464,77.81,460,81.81,456,77.81,460,86.81" style="stroke:#181818;stroke-width:1;"/></g><!--link GetSW0 to CheckHoldTime--><g class="link" data-entity-1="GetSW0" data-entity-2="CheckHoldTime" data-source-line="27" data-uid="lnk15" id="link_GetSW0_CheckHoldTime"><path d="M481.23,191.09 C485.02,200.94 488.79,211.23 492,221 C514.08,288.13 532.3714,363.3035 541.7714,404.0535" fill="none" id="GetSW0-to-CheckHoldTime" style="stroke:#181818;stroke-width:1;"/><polygon fill="#181818" points="543.12,409.9,544.9947,400.2312,541.9961,405.0279,537.1994,402.0294,543.12,409.9" style="stroke:#181818;stroke-width:1;"/><text fill="#000000" font-family="sans-serif" font-size="13" lengthAdjust="spacing" textLength="109.4907" x="523" y="302.0586">lastSW == currSW</text></g><!--link GetSW0 to Wait2ms--><g class="link" data-entity-1="GetSW0" data-entity-2="Wait2ms" data-source-line="28" data-uid="lnk16" id="link_GetSW0_Wait2ms"><path d="M408.92,191.08 C382.62,217.38 355.9026,244.0974 334.4626,265.5374" fill="none" id="GetSW0-to-Wait2ms" style="stroke:#181818;stroke-width:1;"/><polygon fill="#181818" points="330.22,269.78,339.4124,266.2445,333.7555,266.2445,333.7555,260.5876,330.22,269.78" style="stroke:#181818;stroke-width:1;"/><text fill="#000000" font-family="sans-serif" font-size="13" lengthAdjust="spacing" textLength="104.5459" x="379" y="235.5586">lastSW != currSW</text></g><!--link Wait2ms to GetSW1--><g class="link" data-entity-1="Wait2ms" data-entity-2="GetSW1" data-source-line="31" data-uid="lnk17" id="link_Wait2ms_GetSW1"><path d="M290.86,324.28 C282.3,341.41 273.5233,358.9534 263.2133,379.5734" fill="none" id="Wait2ms-to-GetSW1" style="stroke:#181818;stroke-width:1;"/><polygon fill="#181818" points="260.53,384.94,268.1326,378.679,262.7661,380.4679,260.9772,375.1013,260.53,384.94" style="stroke:#181818;stroke-width:1;"/></g><!--link GetSW1 to Issue_SW_CHANGED_EVENT--><g class="link" data-entity-1="GetSW1" data-entity-2="Issue_SW_CHANGED_EVENT" data-source-line="38" data-uid="lnk18" id="link_GetSW1_Issue_SW_CHANGED_EVENT"><path d="M193.32,489.32 C185.73,499.05 178.01,509.25 171,519 C159.72,534.69 151.217,547.3545 141.197,562.9245" fill="none" id="GetSW1-to-Issue_SW_CHANGED_EVENT" style="stroke:#181818;stroke-width:1;"/><polygon fill="#181818" points="137.95,567.97,146.1842,562.5664,140.6558,563.7654,139.4568,558.2371,137.95,567.97" style="stroke:#181818;stroke-width:1;"/><text fill="#000000" font-family="sans-serif" font-size="13" lengthAdjust="spacing" textLength="88.3276" x="172" y="533.5586">currSW == SW</text></g><!--link GetSW1 to *end*--><g class="link" data-entity-1="GetSW1" data-entity-2=".end." data-source-line="39" data-uid="lnk20" id="link_GetSW1_.end."><path d="M254.6,489.22 C258.19,499.06 261.8,509.32 265,519 C284.45,577.9 269.62,601.38 304,653 C325,684.53 359.1081,705.9507 377.2081,716.0307" fill="none" id="GetSW1-to-*end*" style="stroke:#181818;stroke-width:1;"/><polygon fill="#181818" points="382.45,718.95,376.5333,711.0765,378.0817,716.5173,372.6409,718.0657,382.45,718.95" style="stroke:#181818;stroke-width:1;"/><text fill="#000000" font-family="sans-serif" font-size="13" lengthAdjust="spacing" textLength="83.3828" x="305" y="615.5586">currSW != SW</text></g><!--link Issue_SW_CHANGED_EVENT to *end*--><g class="link" data-entity-1="Issue_SW_CHANGED_EVENT" data-entity-2=".end." data-source-line="40" data-uid="lnk21" id="link_Issue_SW_CHANGED_EVENT_.end."><path d="M191.78,653.16 C213.89,663.92 238.11,675 261,684 C304.6,701.14 352.8551,714.1112 375.4651,719.8612" fill="none" id="Issue_SW_CHANGED_EVENT-to-*end*" style="stroke:#181818;stroke-width:1;"/><polygon fill="#181818" points="381.28,721.34,373.5435,715.2452,376.4342,720.1077,371.5718,722.9984,381.28,721.34" style="stroke:#181818;stroke-width:1;"/></g><!--link CheckHoldTime to *end*--><g class="link" data-entity-1="CheckHoldTime" data-entity-2=".end." data-source-line="44" data-uid="lnk22" id="link_CheckHoldTime_.end."><path d="M568.44,464.03 C598.12,507.21 647.06,594.64 605,653 C556.11,720.83 445.6095,724.9206 409.1195,724.4306" fill="none" id="CheckHoldTime-to-*end*" style="stroke:#181818;stroke-width:1;"/><polygon fill="#181818" points="403.12,724.35,412.0655,728.4705,408.1195,724.4171,412.1729,720.4712,403.12,724.35" style="stroke:#181818;stroke-width:1;"/><text fill="#000000" font-family="sans-serif" font-size="13" lengthAdjust="spacing" textLength="17.729" x="622" y="615.5586">No</text></g><!--link CheckHoldTime to Issue_SW_HOLD_EVENT--><g class="link" data-entity-1="CheckHoldTime" data-entity-2="Issue_SW_HOLD_EVENT" data-source-line="46" data-uid="lnk23" id="link_CheckHoldTime_Issue_SW_HOLD_EVENT"><path d="M541.1,464.05 C531.3,496.38 516.4199,545.4378 506.6299,577.7478" fill="none" id="CheckHoldTime-to-Issue_SW_HOLD_EVENT" style="stroke:#181818;stroke-width:1;"/><polygon fill="#181818" points="504.89,583.49,511.328,576.0366,506.3399,578.7048,503.6717,573.7168,504.89,583.49" style="stroke:#181818;stroke-width:1;"/><text fill="#000000" font-family="sans-serif" font-size="13" lengthAdjust="spacing" textLength="21.4487" x="524" y="533.5586">Yes</text></g><!--link Issue_SW_HOLD_EVENT to *end*--><g class="link" data-entity-1="Issue_SW_HOLD_EVENT" data-entity-2=".end." data-source-line="47" data-uid="lnk24" id="link_Issue_SW_HOLD_EVENT_.end."><path d="M472.65,637.59 C448.9,663.04 418.3335,695.7833 403.3935,711.7933" fill="none" id="Issue_SW_HOLD_EVENT-to-*end*" style="stroke:#181818;stroke-width:1;"/><polygon fill="#181818" points="399.3,716.18,408.3647,712.329,402.7113,712.5244,402.5158,706.8709,399.3,716.18" style="stroke:#181818;stroke-width:1;"/></g><!--SRC=[XLBHQi8m57rElkBw8Zfm61_B71GLtHWThCuonf2ilMgnMcdImHZxzoMrJLjjsLFQUyyvEUVUxC800Gyd-Gq12Zy9JpACZvHI8Rb4cADqlI7yK6B-xUcAHqEmu0Lv0BOpB7gFQR15ZRR0di8NZq36u7f5-_KKg6EI9edhAOX__XXh12NlDnymk2_bAIblKlL2cX9pYQfM5IcfwQkkagI_jHpiEWThpy4kSrovPALBLd79Z4jMyK4pyfcja-IJrPN93ltz8ew2PNX0Oa74XTIZ6UT3gc8z7ihHGPIeZa7bKNC4M6GJ9sgfdt5wz94MPME15OG78L9Skzvwih2T-MowdgrcpfAIvZgK_hBbjgBy7JzkCL0mcQJuZzmozFSAgGzbhjUdDD-Ojjj-HVw6CYSLWXwrwNQoRej6ZZRllRQAIeXk5teZ4EZVmXtqZ4qO6FVzFgsJIoDEV3dfnVDJqw0sF1883JhDn3SKjAbJXFe3]--></g></svg>