<?plantuml 1.2026.1?><svg xmlns="http://www.w3.org/2000/svg" xmlns:xlink="http://www.w3.org/1999/xlink" contentStyleType="text/css" data-diagram-type="STATE" height="951px" preserveAspectRatio="none" style="width:1436px;height:951px;background:#FFFFFF;" version="1.1" viewBox="0 0 1436 951" width="1436px" zoomAndPan="magnify"><defs/><g><!--cluster sel_write--><g class="cluster" data-qualified-name="sel_write" data-source-line="28" id="ent0005"><path d="M474.5,383 L1100.5,383 A12.5,12.5 0 0 1 1113,395.5 L1113,404.2969 L462,404.2969 L462,395.5 A12.5,12.5 0 0 1 474.5,383" fill="#F1F1F1"/><rect fill="none" height="562" rx="12.5" ry="12.5" style="stroke:#181818;stroke-width:0.5;" width="651" x="462" y="383"/><line style="stroke:#181818;stroke-width:0.5;" x1="462" x2="1113" y1="404.2969" y2="404.2969"/><text fill="#000000" font-family="sans-serif" font-size="14" lengthAdjust="spacing" textLength="61.9951" x="756.5024" y="399.9951">sel_write</text></g><!--cluster SEL_BANK_NUM--><g class="cluster" data-qualified-name="sel_write.SEL_BANK_NUM" data-source-line="29" id="ent0006"><path d="M595.5,426 L988.5,426 A12.5,12.5 0 0 1 1001,438.5 L1001,447.2969 L583,447.2969 L583,438.5 A12.5,12.5 0 0 1 595.5,426" fill="#F1F1F1"/><rect fill="none" height="223" rx="12.5" ry="12.5" style="stroke:#181818;stroke-width:0.5;" width="418" x="583" y="426"/><line style="stroke:#181818;stroke-width:0.5;" x1="583" x2="1001" y1="447.2969" y2="447.2969"/><text fill="#000000" font-family="sans-serif" font-size="14" lengthAdjust="spacing" textLength="111.166" x="736.417" y="442.9951">SEL_BANK_NUM</text></g><!--cluster WRITE_BANK_NUM--><g class="cluster" data-qualified-name="sel_write.WRITE_BANK_NUM" data-source-line="49" id="ent0009"><path d="M498.5,713 L894.5,713 A12.5,12.5 0 0 1 907,725.5 L907,734.2969 L486,734.2969 L486,725.5 A12.5,12.5 0 0 1 498.5,713" fill="#F1F1F1"/><rect fill="none" height="208" rx="12.5" ry="12.5" style="stroke:#181818;stroke-width:0.5;" width="421" x="486" y="713"/><line style="stroke:#181818;stroke-width:0.5;" x1="486" x2="907" y1="734.2969" y2="734.2969"/><text fill="#000000" font-family="sans-serif" font-size="14" lengthAdjust="spacing" textLength="130.7305" x="631.1348" y="729.9951">WRITE_BANK_NUM</text></g><rect fill="#F1F1F1" height="40" rx="12.5" ry="12.5" style="stroke:#181818;stroke-width:0.5;" width="125.0557" x="816.5" y="461"/><text fill="#000000" font-family="sans-serif" font-size="14" lengthAdjust="spacing" textLength="115.0557" x="821.5" y="485.8467">MODE_SEL_NUM</text><rect fill="#F1F1F1" height="40" rx="12.5" ry="12.5" style="stroke:#181818;stroke-width:0.5;" width="131.0918" x="630.5" y="593"/><text fill="#000000" font-family="sans-serif" font-size="14" lengthAdjust="spacing" textLength="121.0918" x="635.5" y="617.8467">MODE_SEL_BANK</text><rect fill="#F1F1F1" height="40" rx="12.5" ry="12.5" style="stroke:#181818;stroke-width:0.5;" width="144.6201" x="502.5" y="748"/><text fill="#000000" font-family="sans-serif" font-size="14" lengthAdjust="spacing" textLength="134.6201" x="507.5" y="772.8467">MODE_WRITE_NUM</text><rect fill="#F1F1F1" height="40" rx="12.5" ry="12.5" style="stroke:#181818;stroke-width:0.5;" width="150.6563" x="657.5" y="865"/><text fill="#000000" font-family="sans-serif" font-size="14" lengthAdjust="spacing" textLength="140.6563" x="662.5" y="889.8467">MODE_WRITE_BANK</text><rect fill="#F1F1F1" height="40" rx="12.5" ry="12.5" style="stroke:#181818;stroke-width:0.5;" width="111.5273" x="779" y="748"/><text fill="#000000" font-family="sans-serif" font-size="14" lengthAdjust="spacing" textLength="101.5273" x="784" y="772.8467">Write_Memory</text><g><rect fill="#F1F1F1" height="78.2031" rx="12.5" ry="12.5" style="stroke:#181818;stroke-width:0.5;" width="91.1094" x="455.5" y="103"/><line style="stroke:#181818;stroke-width:0.5;" x1="455.5" x2="546.6094" y1="129.2969" y2="129.2969"/><text fill="#000000" font-family="sans-serif" font-size="14" lengthAdjust="spacing" textLength="58.5908" x="471.7593" y="120.9951">Initialize</text><text fill="#000000" font-family="sans-serif" font-size="12" lengthAdjust="spacing" textLength="71.1094" x="460.5" y="145.4355">All LOOP off</text><text fill="#000000" font-family="sans-serif" font-size="12" lengthAdjust="spacing" textLength="53.6543" x="460.5" y="159.4043">MUTE off</text><text fill="#000000" font-family="sans-serif" font-size="12" lengthAdjust="spacing" textLength="50.3027" x="460.5" y="173.373">PGM 1-1</text></g><g><rect fill="#F1F1F1" height="78.2031" rx="12.5" ry="12.5" style="stroke:#181818;stroke-width:0.5;" width="269.6152" x="366" y="242"/><line style="stroke:#181818;stroke-width:0.5;" x1="366" x2="635.6152" y1="268.2969" y2="268.2969"/><text fill="#000000" font-family="sans-serif" font-size="14" lengthAdjust="spacing" textLength="81.8535" x="459.8809" y="259.9951">MODE_MAN</text><text fill="#000000" font-family="sans-serif" font-size="12" lengthAdjust="spacing" textLength="84.041" x="371" y="284.4355">Manual MODE</text><text fill="#000000" font-family="sans-serif" font-size="12" lengthAdjust="spacing" textLength="3.8145" x="371" y="298.4043">&#160;</text><text fill="#000000" font-family="sans-serif" font-size="12" lengthAdjust="spacing" textLength="245.8008" x="374.8145" y="312.373">Press [LOOP#] to toggle LOOP# ON/OFF.</text></g><g><rect fill="#F1F1F1" height="78.2031" rx="12.5" ry="12.5" style="stroke:#181818;stroke-width:0.5;" width="304.1621" x="966" y="242"/><line style="stroke:#181818;stroke-width:0.5;" x1="966" x2="1270.1621" y1="268.2969" y2="268.2969"/><text fill="#000000" font-family="sans-serif" font-size="14" lengthAdjust="spacing" textLength="81.0947" x="1077.5337" y="259.9951">MODE_PGM</text><text fill="#000000" font-family="sans-serif" font-size="12" lengthAdjust="spacing" textLength="91.541" x="971" y="284.4355">Program MODE</text><text fill="#000000" font-family="sans-serif" font-size="12" lengthAdjust="spacing" textLength="3.8145" x="971" y="298.4043">&#160;</text><text fill="#000000" font-family="sans-serif" font-size="12" lengthAdjust="spacing" textLength="280.3477" x="974.8145" y="312.373">Press [LOOP#] to switch the Program Number.</text></g><ellipse cx="501" cy="16" fill="#222222" rx="10" ry="10" style="stroke:#222222;stroke-width:1;"/><!--link *start* to Initialize--><g class="link" data-entity-1="ent0002" data-entity-2="ent0002" data-link-type="dependency" data-source-line="4" id="lnk3"><path d="M501,26.32 C501,42.37 501,70.09 501,96.83" fill="none" id="*start*-to-Initialize" style="stroke:#181818;stroke-width:1;"/><polygon fill="#181818" points="501,102.83,505,93.83,501,97.83,497,93.83,501,102.83" style="stroke:#181818;stroke-width:1;"/><text fill="#000000" font-family="sans-serif" font-size="13" lengthAdjust="spacing" textLength="63.8574" x="502" y="69.0669">Power ON</text></g><!--link Initialize to MODE_MAN--><g class="link" data-entity-1="ent0002" data-entity-2="ent0003" data-link-type="dependency" data-source-line="10" id="lnk4"><path d="M501,181.16 C501,200.01 501,216.69 501,235.57" fill="none" id="Initialize-to-MODE_MAN" style="stroke:#181818;stroke-width:1;"/><polygon fill="#181818" points="501,241.57,505,232.57,501,236.57,497,232.57,501,241.57" style="stroke:#181818;stroke-width:1;"/></g><!--link MODE_MAN to MODE_SEL_NUM--><g class="link" data-entity-1="ent0003" data-entity-2="ent0007" data-link-type="dependency" data-source-line="14" id="lnk5"><path d="M558.46,320.21 C589.65,340.17 625.36,361.56 643,367 C672.14,375.98 752.36,362.11 780,375 C819.73,393.54 848.156,430.759 864.216,455.639" fill="none" id="MODE_MAN-to-MODE_SEL_NUM" style="stroke:#181818;stroke-width:1;"/><polygon fill="#181818" points="867.47,460.68,865.9497,450.9492,864.7584,456.4792,859.2284,455.2878,867.47,460.68" style="stroke:#181818;stroke-width:1;"/><text fill="#000000" font-family="sans-serif" font-size="13" lengthAdjust="spacing" textLength="112.3472" x="644" y="363.0669">Press [MAN/PGM]</text></g><!--reverse link MODE_MAN to MODE_SEL_NUM--><g class="link" data-entity-1="ent0003" data-entity-2="ent0007" data-link-type="dependency" data-source-line="35" id="lnk18"><path d="M642.0125,303.2478 C684.0625,313.3978 723.39,327.21 761,350 C808.44,378.75 848.07,432.33 867.01,460.9" fill="none" id="MODE_MAN-backto-MODE_SEL_NUM" style="stroke:#181818;stroke-width:1;stroke-dasharray:7,7;"/><polygon fill="#181818" points="636.18,301.84,643.9902,307.8401,641.0404,303.0132,645.8673,300.0634,636.18,301.84" style="stroke:#181818;stroke-width:1;"/><text fill="#000000" font-family="sans-serif" font-size="13" lengthAdjust="spacing" textLength="112.3472" x="785" y="363.0669">Press [MAN/PGM]</text></g><!--link MODE_MAN to MODE_SEL_BANK--><g class="link" data-entity-1="ent0003" data-entity-2="ent0008" data-link-type="dependency" data-source-line="15" id="lnk6"><path d="M495.84,320.1 C489.93,381.34 488.62,501.05 557,563 C577.29,581.38 599.1327,591.3053 624.4027,598.5553" fill="none" id="MODE_MAN-to-MODE_SEL_BANK" style="stroke:#181818;stroke-width:1;"/><polygon fill="#181818" points="630.17,600.21,622.6221,593.8831,625.3639,598.8311,620.4159,601.5729,630.17,600.21" style="stroke:#181818;stroke-width:1;"/><text fill="#000000" font-family="sans-serif" font-size="13" lengthAdjust="spacing" textLength="85.0649" x="515" y="485.5669">Press [BANK]</text></g><!--reverse link MODE_MAN to MODE_SEL_BANK--><g class="link" data-entity-1="ent0003" data-entity-2="ent0008" data-link-type="dependency" data-source-line="41" id="lnk26"><path d="M566.7985,323.8266 C585.1685,338.5766 598.53,353.4 609,375 C627.23,412.63 595.89,526.9 617,563 C624.41,575.68 636.54,585.54 649.09,592.97" fill="none" id="MODE_MAN-backto-MODE_SEL_BANK" style="stroke:#181818;stroke-width:1;stroke-dasharray:7,7;"/><polygon fill="#181818" points="562.12,320.07,566.6334,328.8238,566.0187,323.2005,571.6421,322.5858,562.12,320.07" style="stroke:#181818;stroke-width:1;"/><text fill="#000000" font-family="sans-serif" font-size="13" lengthAdjust="spacing" textLength="112.3472" x="615" y="485.5669">Press [MAN/PGM]</text></g><!--link MODE_MAN to MODE_WRITE_NUM--><g class="link" data-entity-1="ent0003" data-entity-2="ent0010" data-link-type="dependency" data-source-line="16" id="lnk7"><path d="M476.59,320.1 C444.92,374.49 396.88,477.29 425,563 C450.69,641.32 514.8937,710.1927 549.7237,743.6627" fill="none" id="MODE_MAN-to-MODE_WRITE_NUM" style="stroke:#181818;stroke-width:1;"/><polygon fill="#181818" points="554.05,747.82,550.3322,738.6998,550.4448,744.3556,544.789,744.4682,554.05,747.82" style="stroke:#181818;stroke-width:1;"/><text fill="#000000" font-family="sans-serif" font-size="13" lengthAdjust="spacing" textLength="97.043" x="426" y="544.0669">Press and Hold</text><text fill="#000000" font-family="sans-serif" font-size="13" lengthAdjust="spacing" textLength="73.4868" x="437.7781" y="559.1997">[MAN/PGM]</text></g><!--reverse link MODE_MAN to MODE_WRITE_NUM--><g class="link" data-entity-1="ent0003" data-entity-2="ent0010" data-link-type="dependency" data-source-line="57" id="lnk35"><path d="M432.9732,323.5114 C356.3032,375.1414 247.62,468.34 295,563 C342.65,658.2 458.26,719.27 525.08,747.91" fill="none" id="MODE_MAN-backto-MODE_WRITE_NUM" style="stroke:#181818;stroke-width:1;stroke-dasharray:7,7;"/><polygon fill="#181818" points="437.95,320.16,428.2506,321.8692,433.8027,322.9528,432.7191,328.5049,437.95,320.16" style="stroke:#181818;stroke-width:1;"/><text fill="#000000" font-family="sans-serif" font-size="13" lengthAdjust="spacing" textLength="112.3472" x="296" y="551.5669">Press [MAN/PGM]</text></g><!--link MODE_MAN to MODE_WRITE_BANK--><g class="link" data-entity-1="ent0003" data-entity-2="ent0011" data-link-type="dependency" data-source-line="17" id="lnk8"><path d="M365.91,290.76 C297.98,299.38 216.06,316.41 149,350 C72.2,388.46 6,394.11 6,480 C6,480 6,480 6,769 C6,839 81.32,817.14 149,835 C242.95,859.8 515.806,874.6024 651.346,880.6524" fill="none" id="MODE_MAN-to-MODE_WRITE_BANK" style="stroke:#181818;stroke-width:1;"/><polygon fill="#181818" points="657.34,880.92,648.5273,876.5227,652.345,880.697,648.1706,884.5147,657.34,880.92" style="stroke:#181818;stroke-width:1;"/><text fill="#000000" font-family="sans-serif" font-size="13" lengthAdjust="spacing" textLength="97.043" x="7" y="610.0669">Press and Hold</text><text fill="#000000" font-family="sans-serif" font-size="13" lengthAdjust="spacing" textLength="46.2046" x="32.4192" y="625.1997">[BANK]</text></g><!--reverse link MODE_MAN to MODE_WRITE_BANK--><g class="link" data-entity-1="ent0003" data-entity-2="ent0011" data-link-type="dependency" data-source-line="60" id="lnk38"><path d="M359.8244,310.2951 C270.2544,336.6751 175,385.64 175,480 C175,480 175,480 175,769 C175,866.37 505.02,881.99 657.46,884.01" fill="none" id="MODE_MAN-backto-MODE_WRITE_BANK" style="stroke:#181818;stroke-width:1;stroke-dasharray:7,7;"/><polygon fill="#181818" points="365.58,308.6,355.8166,307.3056,360.7837,310.0126,358.0767,314.9797,365.58,308.6" style="stroke:#181818;stroke-width:1;"/><text fill="#000000" font-family="sans-serif" font-size="13" lengthAdjust="spacing" textLength="112.3472" x="176" y="617.5669">Press [MAN/PGM]</text></g><!--reverse link MODE_MAN to MODE_PGM--><g class="link" data-entity-1="ent0003" data-entity-2="ent0004" data-link-type="dependency" data-source-line="22" id="lnk10"><path d="M642.02,281 C739.38,281 864.88,281 965.93,281" fill="none" id="MODE_MAN-backto-MODE_PGM" style="stroke:#181818;stroke-width:1;"/><polygon fill="#181818" points="636.02,281,645.02,285,641.02,281,645.02,277,636.02,281" style="stroke:#181818;stroke-width:1;"/><text fill="#000000" font-family="sans-serif" font-size="13" lengthAdjust="spacing" textLength="112.3472" x="745" y="274.0669">Press [MAN/PGM]</text></g><!--link MODE_PGM to MODE_SEL_BANK--><g class="link" data-entity-1="ent0004" data-entity-2="ent0008" data-link-type="dependency" data-source-line="23" id="lnk11"><path d="M1086.13,320.32 C1073.56,336.55 1059.62,356.06 1049,375 C1004.91,453.6 1043.03,506.27 973,563 C972.48,563.42 849.5097,585.0628 767.7497,599.4128" fill="none" id="MODE_PGM-to-MODE_SEL_BANK" style="stroke:#181818;stroke-width:1;"/><polygon fill="#181818" points="761.84,600.45,771.396,602.8339,766.7647,599.5856,770.013,594.9544,761.84,600.45" style="stroke:#181818;stroke-width:1;"/><text fill="#000000" font-family="sans-serif" font-size="13" lengthAdjust="spacing" textLength="85.0649" x="1050" y="485.5669">Press [BANK]</text></g><!--link MODE_PGM to MODE_WRITE_NUM--><g class="link" data-entity-1="ent0004" data-entity-2="ent0010" data-link-type="dependency" data-source-line="24" id="lnk12"><path d="M1129.12,320.1 C1133.45,336.79 1137.87,356.71 1140,375 C1146.49,430.62 1160.06,448.72 1140,501 C1133.57,517.75 1120.17,514.56 1113,531 C1083.37,598.9 1152.09,646.38 1098,697 C1084.37,709.76 780.4,701.8 762,705 C711.96,713.69 662.6258,730.944 625.3358,745.764" fill="none" id="MODE_PGM-to-MODE_WRITE_NUM" style="stroke:#181818;stroke-width:1;"/><polygon fill="#181818" points="619.76,747.98,629.601,748.3733,624.4065,746.1334,626.6464,740.9389,619.76,747.98" style="stroke:#181818;stroke-width:1;"/><text fill="#000000" font-family="sans-serif" font-size="13" lengthAdjust="spacing" textLength="97.043" x="1114" y="544.0669">Press and Hold</text><text fill="#000000" font-family="sans-serif" font-size="13" lengthAdjust="spacing" textLength="73.4868" x="1125.7781" y="559.1997">[MAN/PGM]</text></g><!--link MODE_PGM to MODE_WRITE_BANK--><g class="link" data-entity-1="ent0004" data-entity-2="ent0011" data-link-type="dependency" data-source-line="25" id="lnk13"><path d="M1202.7,320.04 C1261.75,352.97 1330,406.85 1330,480 C1330,480 1330,480 1330,769 C1330,821.51 975.2227,861.2982 814.5827,876.6782" fill="none" id="MODE_PGM-to-MODE_WRITE_BANK" style="stroke:#181818;stroke-width:1;"/><polygon fill="#181818" points="808.61,877.25,817.9503,880.374,813.5872,876.7735,817.1878,872.4105,808.61,877.25" style="stroke:#181818;stroke-width:1;"/><text fill="#000000" font-family="sans-serif" font-size="13" lengthAdjust="spacing" textLength="97.043" x="1331" y="610.0669">Press and Hold</text><text fill="#000000" font-family="sans-serif" font-size="13" lengthAdjust="spacing" textLength="46.2046" x="1356.4192" y="625.1997">[BANK]</text></g><!--link MODE_SEL_NUM to MODE_SEL_BANK--><g class="link" data-entity-1="ent0007" data-entity-2="ent0008" data-link-type="dependency" data-source-line="33" id="lnk14"><path d="M816.34,494.13 C743.12,508.35 631.75,530.09 631,531 C621.97,541.99 624.66,550.27 631,563 C637.12,575.27 643.0044,581.8439 654.0744,589.5439" fill="none" id="MODE_SEL_NUM-to-MODE_SEL_BANK" style="stroke:#181818;stroke-width:1;"/><polygon fill="#181818" points="659,592.97,653.8957,584.5471,654.8953,590.1149,649.3275,591.1146,659,592.97" style="stroke:#181818;stroke-width:1;"/><text fill="#000000" font-family="sans-serif" font-size="13" lengthAdjust="spacing" textLength="85.0649" x="632" y="551.5669">Press [BANK]</text></g><!--reverse link MODE_SEL_NUM to MODE_SEL_BANK--><g class="link" data-entity-1="ent0007" data-entity-2="ent0008" data-link-type="dependency" data-source-line="39" id="lnk22"><path d="M810.6449,502.3008 C790.8249,509.8708 775.22,517.88 758,531 C735.74,547.96 717.34,574.84 706.52,592.93" fill="none" id="MODE_SEL_NUM-backto-MODE_SEL_BANK" style="stroke:#181818;stroke-width:1;"/><polygon fill="#181818" points="816.25,500.16,806.4152,499.6345,811.5791,501.944,809.2696,507.1079,816.25,500.16" style="stroke:#181818;stroke-width:1;"/><text fill="#000000" font-family="sans-serif" font-size="13" lengthAdjust="spacing" textLength="85.0649" x="759" y="551.5669">Press [BANK]</text></g><!--reverse link MODE_SEL_NUM to MODE_SEL_BANK--><g class="link" data-entity-1="ent0007" data-entity-2="ent0008" data-link-type="dependency" data-source-line="40" id="lnk24"><path d="M875.6854,507.2319 C872.5154,525.5219 866.12,546.63 849,563 C825.52,585.46 791.72,597.62 761.86,604.21" fill="none" id="MODE_SEL_NUM-backto-MODE_SEL_BANK-1" style="stroke:#181818;stroke-width:1;"/><polygon fill="#181818" points="876.71,501.32,871.2318,509.5047,875.8561,506.2466,879.1143,510.8709,876.71,501.32" style="stroke:#181818;stroke-width:1;"/><text fill="#000000" font-family="sans-serif" font-size="13" lengthAdjust="spacing" textLength="95.4434" x="869" y="551.5669">Press [LOOP#]</text></g><!--reverse link MODE_PGM to MODE_SEL_NUM--><g class="link" data-entity-1="ent0004" data-entity-2="ent0007" data-link-type="dependency" data-source-line="34" id="lnk16"><path d="M990.5661,322.8682 C974.4061,331.1182 964.23,338.26 951,350 C916.27,380.83 894.78,432.57 885.09,460.58" fill="none" id="MODE_PGM-backto-MODE_SEL_NUM" style="stroke:#181818;stroke-width:1;"/><polygon fill="#181818" points="995.91,320.14,986.0754,320.6696,991.4568,322.4135,989.7129,327.7948,995.91,320.14" style="stroke:#181818;stroke-width:1;"/><text fill="#000000" font-family="sans-serif" font-size="13" lengthAdjust="spacing" textLength="95.4434" x="952" y="363.0669">Press [LOOP#]</text></g><!--link MODE_SEL_NUM to MODE_WRITE_NUM--><g class="link" data-entity-1="ent0007" data-entity-2="ent0010" data-link-type="dependency" data-source-line="36" id="lnk19"><path d="M939.4,501.26 C952.72,508.43 965.17,518.1 973,531 C980.37,543.16 981.17,551.36 973,563 C950.47,595.11 924.22,573.82 890,593 C825.45,629.17 824.28,660.35 760,697 C722.26,718.52 682.3479,733.98 645.8579,746.02" fill="none" id="MODE_SEL_NUM-to-MODE_WRITE_NUM" style="stroke:#181818;stroke-width:1;"/><polygon fill="#181818" points="640.16,747.9,649.9601,748.8785,644.9082,746.3333,647.4534,741.2814,640.16,747.9" style="stroke:#181818;stroke-width:1;"/><text fill="#000000" font-family="sans-serif" font-size="13" lengthAdjust="spacing" textLength="97.043" x="891" y="610.0669">Press and Hold</text><text fill="#000000" font-family="sans-serif" font-size="13" lengthAdjust="spacing" textLength="73.4868" x="902.7781" y="625.1997">[MAN/PGM]</text></g><!--link MODE_SEL_NUM to MODE_WRITE_BANK--><g class="link" data-entity-1="ent0007" data-entity-2="ent0011" data-link-type="dependency" data-source-line="37" id="lnk20"><path d="M941.73,500.57 C957.41,507.84 972.9,517.73 984,531 C1058.43,620.03 1098.28,694.18 1030,788 C979.78,857.01 884.9216,876.9703 814.7516,882.4803" fill="none" id="MODE_SEL_NUM-to-MODE_WRITE_BANK" style="stroke:#181818;stroke-width:1;"/><polygon fill="#181818" points="808.77,882.95,818.0555,886.2332,813.7547,882.5586,817.4293,878.2577,808.77,882.95" style="stroke:#181818;stroke-width:1;"/><text fill="#000000" font-family="sans-serif" font-size="13" lengthAdjust="spacing" textLength="97.043" x="1066" y="678.0669">Press and Hold</text><text fill="#000000" font-family="sans-serif" font-size="13" lengthAdjust="spacing" textLength="46.2046" x="1091.4192" y="693.1997">[BANK]</text></g><!--link MODE_SEL_BANK to MODE_WRITE_NUM--><g class="link" data-entity-1="ent0008" data-entity-2="ent0010" data-link-type="dependency" data-source-line="42" id="lnk27"><path d="M680.92,633.07 C657.73,662.39 617.292,713.524 593.992,742.984" fill="none" id="MODE_SEL_BANK-to-MODE_WRITE_NUM" style="stroke:#181818;stroke-width:1;"/><polygon fill="#181818" points="590.27,747.69,598.9904,743.1123,593.3717,743.7683,592.7157,738.1496,590.27,747.69" style="stroke:#181818;stroke-width:1;"/><text fill="#000000" font-family="sans-serif" font-size="13" lengthAdjust="spacing" textLength="97.043" x="654" y="678.0669">Press and Hold</text><text fill="#000000" font-family="sans-serif" font-size="13" lengthAdjust="spacing" textLength="73.4868" x="665.7781" y="693.1997">[MAN/PGM]</text></g><!--link MODE_SEL_BANK to MODE_WRITE_BANK--><g class="link" data-entity-1="ent0008" data-entity-2="ent0011" data-link-type="dependency" data-source-line="44" id="lnk28"><path d="M748.78,633.08 C808.74,655.29 899.58,690.74 909,705 C942.85,756.27 913.58,801.63 862,835 C842.89,847.36 825.8413,855.2565 804.8613,862.8565" fill="none" id="MODE_SEL_BANK-to-MODE_WRITE_BANK" style="stroke:#181818;stroke-width:1;"/><polygon fill="#181818" points="799.22,864.9,809.0443,865.5955,803.9211,863.197,806.3195,858.0738,799.22,864.9" style="stroke:#181818;stroke-width:1;"/><text fill="#000000" font-family="sans-serif" font-size="13" lengthAdjust="spacing" textLength="97.043" x="924" y="765.0669">Press and Hold</text><text fill="#000000" font-family="sans-serif" font-size="13" lengthAdjust="spacing" textLength="46.2046" x="949.4192" y="780.1997">[BANK]</text></g><!--link MODE_WRITE_NUM to Write_Memory--><g class="link" data-entity-1="ent0010" data-entity-2="ent0029" data-link-type="dependency" data-source-line="53" id="lnk30"><path d="M647.77,768 C689.23,768 734.4,768 772.76,768" fill="none" id="MODE_WRITE_NUM-to-Write_Memory" style="stroke:#181818;stroke-width:2;"/><polygon fill="#181818" points="778.76,768,769.76,764,773.76,768,769.76,772,778.76,768" style="stroke:#181818;stroke-width:2;"/><text fill="#000000" font-family="sans-serif" font-size="13" lengthAdjust="spacing" textLength="95.4434" x="665.75" y="761.0669">Press [LOOP#]</text></g><!--reverse link MODE_PGM to Write_Memory--><g class="link" data-entity-1="ent0004" data-entity-2="ent0029" data-link-type="dependency" data-source-line="54" id="lnk32"><path d="M1169.8072,324.5064 C1178.4072,333.4564 1182.29,339.22 1188,350 C1226.26,422.18 1212.86,449.62 1220,531 C1227.06,611.47 1214.89,654.82 1146,697 C1122.77,711.22 926.16,694.56 901,705 C879.51,713.92 860.81,733.25 848.85,747.97" fill="none" id="MODE_PGM-backto-Write_Memory" style="stroke:#181818;stroke-width:2;"/><polygon fill="#181818" points="1165.65,320.18,1169.0015,329.4411,1169.1143,323.7853,1174.7701,323.8981,1165.65,320.18" style="stroke:#181818;stroke-width:2;"/></g><!--link MODE_WRITE_NUM to MODE_WRITE_BANK--><g class="link" data-entity-1="ent0010" data-entity-2="ent0011" data-link-type="dependency" data-source-line="56" id="lnk33"><path d="M550.68,788.27 C536.49,801.87 523.44,820.23 535,835 C550.28,854.52 602.1306,866.4222 651.3606,874.0422" fill="none" id="MODE_WRITE_NUM-to-MODE_WRITE_BANK" style="stroke:#181818;stroke-width:1;"/><polygon fill="#181818" points="657.29,874.96,649.0078,869.6304,652.3488,874.1952,647.7841,877.5363,657.29,874.96" style="stroke:#181818;stroke-width:1;"/><text fill="#000000" font-family="sans-serif" font-size="13" lengthAdjust="spacing" textLength="85.0649" x="536" y="831.0669">Press [BANK]</text></g><!--link MODE_WRITE_BANK to MODE_WRITE_NUM--><g class="link" data-entity-1="ent0011" data-entity-2="ent0010" data-link-type="dependency" data-source-line="59" id="lnk36"><path d="M704.81,864.97 C691.7,856.01 675.95,845.1 662,835 C640.65,819.55 621.5911,805.0842 604.2811,791.7342" fill="none" id="MODE_WRITE_BANK-to-MODE_WRITE_NUM" style="stroke:#181818;stroke-width:1;"/><polygon fill="#181818" points="599.53,788.07,604.2139,796.7338,603.4893,791.1235,609.0995,790.3989,599.53,788.07" style="stroke:#181818;stroke-width:1;"/><text fill="#000000" font-family="sans-serif" font-size="13" lengthAdjust="spacing" textLength="95.4434" x="663" y="831.0669">Press [LOOP#]</text></g><!--link MODE_WRITE_BANK to MODE_WRITE_NUM--><g class="link" data-entity-1="ent0011" data-entity-2="ent0010" data-link-type="dependency" data-source-line="61" id="lnk39"><path d="M752.05,864.81 C763.5,850.9 773.93,832.14 763,818 C748.64,799.42 700.1962,787.5492 653.5962,779.6792" fill="none" id="MODE_WRITE_BANK-to-MODE_WRITE_NUM-1" style="stroke:#181818;stroke-width:1;"/><polygon fill="#181818" points="647.68,778.68,655.8882,784.1229,652.6102,779.5126,657.2204,776.2346,647.68,778.68" style="stroke:#181818;stroke-width:1;"/><text fill="#000000" font-family="sans-serif" font-size="13" lengthAdjust="spacing" textLength="85.0649" x="768" y="831.0669">Press [BANK]</text></g><?plantuml-src bPHBQy904CVFsKynu44efEBLWs1fRANcGQlqe254iseW3qbMn9P-z-uc9jaroKR1Wpix_tdyPZO7tyE0moEvW8VJRU8VYHz72AsUR53LCSmYd_XkuFzW684Ldt42fe44woG8O6wQ5iIxdNYZBnTQtMgzwJ1KXmZnPfPBDryrHvyO2AN49RWyiqXkT7A3pBAErX5O2KvJMB6qFHj8J7_xVO2pEdgqme4vdJuZL4OemtzfSyTOwige245l1xGYkyNtPM9yLCxirEJv_JbRQ49SD_BWFGwyTIJBaEk479mmpoRGOEoOPxnFt5228ptxP7i0Si2bit4ADpWfeB10Qe1tXEFU1YNplGkAuFa0b0QT74g_mg6UZeMI7fMghfn6WI_5WNDEVFhl5ocvgMY5rSYi2WVwkYTGjp8586eN_EfyRW7T2cxAhjLTzrzvRdh0disFJ6aOMbjfrK2a4v7BnTxgsygfCr9SdyNRav3fbjJf59f6F58wkV9XF7sGHkWWr96_a-yV_I9STx9IDArmsGyqsSKrhdpLrORciyVmpHwBe-CmJYvD_Fdx37-cutQwARZaZOjuECtTanMrRSDjsIHUzEWktPcmQ30R8XlZFm00?></g></svg>