<svg xmlns="http://www.w3.org/2000/svg" xmlns:xlink="http://www.w3.org/1999/xlink" contentStyleType="text/css" data-diagram-type="STATE" height="774px" preserveAspectRatio="none" style="width:1850px;height:774px;background:#FFFFFF;" version="1.1" viewBox="0 0 1850 774" width="1850px" zoomAndPan="magnify"><defs/><g><!--cluster SEL_BANK_NUM--><g class="cluster" data-entity="SEL_BANK_NUM" data-source-line="30" data-uid="ent0004" id="cluster_SEL_BANK_NUM"><path d="M974.14,370 L1345.14,370 A12.5,12.5 0 0 1 1357.64,382.5 L1357.64,393.3203 L961.64,393.3203 L961.64,382.5 A12.5,12.5 0 0 1 974.14,370" fill="#F1F1F1"/><rect fill="none" height="277" rx="12.5" ry="12.5" style="stroke:#181818;stroke-width:0.5;" width="396" x="961.64" y="370"/><line style="stroke:#181818;stroke-width:0.5;" x1="961.64" x2="1357.64" y1="393.3203" y2="393.3203"/><text fill="#000000" font-family="sans-serif" font-size="14" lengthAdjust="spacing" textLength="109.4365" x="1104.9217" y="388.6016">SEL_BANK_NUM</text></g><!--cluster WRITE_BANK_NUM--><g class="cluster" data-entity="WRITE_BANK_NUM" data-source-line="47" data-uid="ent0007" id="cluster_WRITE_BANK_NUM"><path d="M389.14,533 L760.14,533 A12.5,12.5 0 0 1 772.64,545.5 L772.64,556.3203 L376.64,556.3203 L376.64,545.5 A12.5,12.5 0 0 1 389.14,533" fill="#F1F1F1"/><rect fill="none" height="235" rx="12.5" ry="12.5" style="stroke:#181818;stroke-width:0.5;" width="396" x="376.64" y="533"/><line style="stroke:#181818;stroke-width:0.5;" x1="376.64" x2="772.64" y1="556.3203" y2="556.3203"/><text fill="#000000" font-family="sans-serif" font-size="14" lengthAdjust="spacing" textLength="128.3857" x="510.4471" y="551.6016">WRITE_BANK_NUM</text></g><rect fill="#F1F1F1" height="40" rx="12.5" ry="12.5" style="stroke:#181818;stroke-width:0.5;" width="124.3174" x="977.64" y="428"/><text fill="#000000" font-family="sans-serif" font-size="14" lengthAdjust="spacing" textLength="114.3174" x="982.64" y="453.4414">MODE_SEL_NUM</text><rect fill="#F1F1F1" height="40" rx="12.5" ry="12.5" style="stroke:#181818;stroke-width:0.5;" width="128.4258" x="1068.64" y="591"/><text fill="#000000" font-family="sans-serif" font-size="14" lengthAdjust="spacing" textLength="118.4258" x="1073.64" y="616.4414">MODE_SEL_BANK</text><rect fill="#F1F1F1" height="40" rx="12.5" ry="12.5" style="stroke:#181818;stroke-width:0.5;" width="143.2666" x="496.14" y="591"/><text fill="#000000" font-family="sans-serif" font-size="14" lengthAdjust="spacing" textLength="133.2666" x="501.14" y="616.4414">MODE_WRITE_NUM</text><rect fill="#F1F1F1" height="40" rx="12.5" ry="12.5" style="stroke:#181818;stroke-width:0.5;" width="147.375" x="538.14" y="712"/><text fill="#000000" font-family="sans-serif" font-size="14" lengthAdjust="spacing" textLength="137.375" x="543.14" y="737.4414">MODE_WRITE_BANK</text><g id="MODE_MAN"><rect fill="#F1F1F1" height="54.0234" rx="12.5" ry="12.5" style="stroke:#181818;stroke-width:0.5;" width="101.8945" x="539.64" y="251"/><line style="stroke:#181818;stroke-width:0.5;" x1="539.64" x2="641.5345" y1="279.3203" y2="279.3203"/><text fill="#000000" font-family="sans-serif" font-size="14" lengthAdjust="spacing" textLength="81.8945" x="549.64" y="270.6016">MODE_MAN</text><text fill="#000000" font-family="sans-serif" font-size="12" lengthAdjust="spacing" textLength="81.5039" x="544.64" y="296.8359">Manual MODE</text></g><g id="MODE_PGM"><rect fill="#F1F1F1" height="54.0234" rx="12.5" ry="12.5" style="stroke:#181818;stroke-width:0.5;" width="107.0469" x="1432.14" y="251"/><line style="stroke:#181818;stroke-width:0.5;" x1="1432.14" x2="1539.1869" y1="279.3203" y2="279.3203"/><text fill="#000000" font-family="sans-serif" font-size="14" lengthAdjust="spacing" textLength="81.5732" x="1444.8768" y="270.6016">MODE_PGM</text><text fill="#000000" font-family="sans-serif" font-size="12" lengthAdjust="spacing" textLength="87.0469" x="1437.14" y="296.8359">Program MODE</text></g><ellipse cx="590.64" cy="16" fill="#222222" rx="10" ry="10" style="stroke:#222222;stroke-width:1;"/><g id="Initialize"><rect fill="#F1F1F1" height="85.4297" rx="12.5" ry="12.5" style="stroke:#181818;stroke-width:0.5;" width="87.8926" x="546.64" y="105"/><line style="stroke:#181818;stroke-width:0.5;" x1="546.64" x2="634.5326" y1="133.3203" y2="133.3203"/><text fill="#000000" font-family="sans-serif" font-size="14" lengthAdjust="spacing" textLength="54.7559" x="563.2084" y="124.6016">Initialize</text><text fill="#000000" font-family="sans-serif" font-size="12" lengthAdjust="spacing" textLength="67.8926" x="551.64" y="150.8359">All LOOP off</text><text fill="#000000" font-family="sans-serif" font-size="12" lengthAdjust="spacing" textLength="51.8555" x="551.64" y="166.5391">MUTE off</text><text fill="#000000" font-family="sans-serif" font-size="12" lengthAdjust="spacing" textLength="49.8633" x="551.64" y="182.2422">PGM 1-1</text></g><rect fill="#F1F1F1" height="40" rx="12.5" ry="12.5" style="stroke:#181818;stroke-width:0.5;" width="105.0811" x="1549.14" y="712"/><text fill="#000000" font-family="sans-serif" font-size="14" lengthAdjust="spacing" textLength="95.0811" x="1554.14" y="737.4414">Write_Memory</text><!--link *start* to Initialize--><g class="link" data-entity-1=".start." data-entity-2="Initialize" data-source-line="4" data-uid="lnk4" id="link_.start._Initialize"><path d="M590.64,26.31 C590.64,42.55 590.64,70.97 590.64,98.83" fill="none" id="*start*-to-Initialize" style="stroke:#181818;stroke-width:1;"/><polygon fill="#181818" points="590.64,104.83,594.64,95.83,590.64,99.83,586.64,95.83,590.64,104.83" style="stroke:#181818;stroke-width:1;"/><text fill="#000000" font-family="sans-serif" font-size="13" lengthAdjust="spacing" textLength="61.5469" x="591.64" y="70.5586">Power ON</text></g><!--link Initialize to MODE_MAN--><g class="link" data-entity-1="Initialize" data-entity-2="MODE_MAN" data-source-line="10" data-uid="lnk5" id="link_Initialize_MODE_MAN"><path d="M590.64,190.22 C590.64,210.15 590.64,227.4 590.64,244.81" fill="none" id="Initialize-to-MODE_MAN" style="stroke:#181818;stroke-width:1;"/><polygon fill="#181818" points="590.64,250.81,594.64,241.81,590.64,245.81,586.64,241.81,590.64,250.81" style="stroke:#181818;stroke-width:1;"/></g><!--link MODE_MAN to MODE_SEL_NUM--><g class="link" data-entity-1="MODE_MAN" data-entity-2="MODE_SEL_NUM" data-source-line="15" data-uid="lnk6" id="link_MODE_MAN_MODE_SEL_NUM"><path d="M641.94,282.28 C714.6,288.75 849.87,307.66 950.64,362 C981.11,378.43 1004.8464,403.4679 1020.9664,423.0479" fill="none" id="MODE_MAN-to-MODE_SEL_NUM" style="stroke:#181818;stroke-width:1;"/><polygon fill="#181818" points="1024.78,427.68,1022.1477,418.1894,1021.602,423.8199,1015.9715,423.2742,1024.78,427.68" style="stroke:#181818;stroke-width:1;"/><text fill="#000000" font-family="sans-serif" font-size="13" lengthAdjust="spacing" textLength="109.459" x="933.64" y="349.5586">Press [MAN/PGM]</text></g><!--reverse link MODE_MAN to MODE_SEL_NUM--><g class="link" data-entity-1="MODE_MAN" data-entity-2="MODE_SEL_NUM" data-source-line="37" data-uid="lnk19" id="link_MODE_MAN_MODE_SEL_NUM"><path d="M647.0846,307.5939 C683.6446,324.8739 729.19,343.66 776.64,354 C814.46,362.24 915.06,346.78 950.64,362 C983.06,375.86 1010.66,407.17 1026.19,427.67" fill="none" id="MODE_MAN-backto-MODE_SEL_NUM" style="stroke:#181818;stroke-width:1;"/><polygon fill="#181818" points="641.66,305.03,648.0876,312.4923,646.1805,307.1666,651.5062,305.2595,641.66,305.03" style="stroke:#181818;stroke-width:1;"/><text fill="#000000" font-family="sans-serif" font-size="13" lengthAdjust="spacing" textLength="109.459" x="777.64" y="349.5586">Press [MAN/PGM]</text></g><!--link MODE_MAN to MODE_SEL_BANK--><g class="link" data-entity-1="MODE_MAN" data-entity-2="MODE_SEL_BANK" data-source-line="16" data-uid="lnk7" id="link_MODE_MAN_MODE_SEL_BANK"><path d="M641.91,280.93 C727.86,285.13 905.94,297.88 1051.64,335 C1083.16,343.03 1091.9,345.04 1119.64,362 C1180.64,399.29 1182.34,426.62 1240.64,468 C1266.8,486.57 1309.68,489.22 1293.64,517 C1272.75,553.2 1237.3548,574.3365 1201.9848,588.5965" fill="none" id="MODE_MAN-to-MODE_SEL_BANK" style="stroke:#181818;stroke-width:1;"/><polygon fill="#181818" points="1196.42,590.84,1206.2628,591.1846,1201.0573,588.9704,1203.2715,583.7649,1196.42,590.84" style="stroke:#181818;stroke-width:1;"/><text fill="#000000" font-family="sans-serif" font-size="13" lengthAdjust="spacing" textLength="78.6157" x="1241.64" y="453.0586">Press [BANK]</text></g><!--reverse link MODE_MAN to MODE_SEL_BANK--><g class="link" data-entity-1="MODE_MAN" data-entity-2="MODE_SEL_BANK" data-source-line="43" data-uid="lnk25" id="link_MODE_MAN_MODE_SEL_BANK"><path d="M647.6951,281.1424 C806.7451,287.5724 1279.37,310.83 1324.64,362 C1370.31,413.61 1359.35,459.99 1320.64,517 C1292.21,558.88 1239.23,582.7 1196.74,595.72" fill="none" id="MODE_MAN-backto-MODE_SEL_BANK" style="stroke:#181818;stroke-width:1;"/><polygon fill="#181818" points="641.7,280.9,650.5311,285.2603,646.6959,281.102,650.8542,277.2668,641.7,280.9" style="stroke:#181818;stroke-width:1;"/><text fill="#000000" font-family="sans-serif" font-size="13" lengthAdjust="spacing" textLength="109.459" x="1354.64" y="453.0586">Press [MAN/PGM]</text></g><!--link MODE_MAN to MODE_WRITE_NUM--><g class="link" data-entity-1="MODE_MAN" data-entity-2="MODE_WRITE_NUM" data-source-line="17" data-uid="lnk8" id="link_MODE_MAN_MODE_WRITE_NUM"><path d="M577.49,305.11 C558.06,345.32 522.57,425.36 509.64,498 C503.35,533.36 524.9048,564.9215 544.1048,586.2415" fill="none" id="MODE_MAN-to-MODE_WRITE_NUM" style="stroke:#181818;stroke-width:1;"/><polygon fill="#181818" points="548.12,590.7,545.0696,581.3354,544.774,586.9846,539.1249,586.689,548.12,590.7" style="stroke:#181818;stroke-width:1;"/><text fill="#000000" font-family="sans-serif" font-size="13" lengthAdjust="spacing" textLength="168.6001" x="551.64" y="453.0586">Press and Hold [MAN/PGM]</text></g><!--reverse link MODE_MAN to MODE_WRITE_NUM--><g class="link" data-entity-1="MODE_MAN" data-entity-2="MODE_WRITE_NUM" data-source-line="54" data-uid="lnk30" id="link_MODE_MAN_MODE_WRITE_NUM"><path d="M533.4729,286.3665 C487.3729,295.0165 428.12,314.3 396.64,362 C370.7,401.32 376.62,425.35 396.64,468 C423.78,525.81 487.3,568.22 528.82,590.98" fill="none" id="MODE_MAN-backto-MODE_WRITE_NUM" style="stroke:#181818;stroke-width:1;"/><polygon fill="#181818" points="539.37,285.26,529.7867,282.9884,534.4558,286.1821,531.262,290.8511,539.37,285.26" style="stroke:#181818;stroke-width:1;"/><text fill="#000000" font-family="sans-serif" font-size="13" lengthAdjust="spacing" textLength="109.459" x="397.64" y="453.0586">Press [MAN/PGM]</text></g><!--link MODE_MAN to MODE_WRITE_BANK--><g class="link" data-entity-1="MODE_MAN" data-entity-2="MODE_WRITE_BANK" data-source-line="18" data-uid="lnk9" id="link_MODE_MAN_MODE_WRITE_BANK"><path d="M539.4,280.88 C396.01,288.53 6,326.88 81.64,517 C118.95,610.77 147.75,636.13 237.64,682 C288.61,708.01 438.2816,720.9666 531.9516,726.8066" fill="none" id="MODE_MAN-to-MODE_WRITE_BANK" style="stroke:#181818;stroke-width:1;"/><polygon fill="#181818" points="537.94,727.18,529.2063,722.6277,532.9497,726.8689,528.7085,730.6122,537.94,727.18" style="stroke:#181818;stroke-width:1;"/><text fill="#000000" font-family="sans-serif" font-size="13" lengthAdjust="spacing" textLength="137.7568" x="82.64" y="512.5586">Press and Hold [BANK]</text></g><!--reverse link MODE_MAN to MODE_WRITE_BANK--><g class="link" data-entity-1="MODE_MAN" data-entity-2="MODE_WRITE_BANK" data-source-line="60" data-uid="lnk37" id="link_MODE_MAN_MODE_WRITE_BANK"><path d="M533.6026,286.9502 C492.3726,294.2802 440.04,307.68 395.64,335 C317.05,383.38 268.17,428.89 295.64,517 C322.18,602.09 336.18,631.52 409.64,682 C447.27,707.85 497.03,720.12 537.75,725.92" fill="none" id="MODE_MAN-backto-MODE_WRITE_BANK" style="stroke:#181818;stroke-width:1;"/><polygon fill="#181818" points="539.51,285.9,529.9488,283.5371,534.5872,286.7752,531.3491,291.4136,539.51,285.9" style="stroke:#181818;stroke-width:1;"/><text fill="#000000" font-family="sans-serif" font-size="13" lengthAdjust="spacing" textLength="109.459" x="296.64" y="512.5586">Press [MAN/PGM]</text></g><!--reverse link MODE_MAN to MODE_PGM--><g class="link" data-entity-1="MODE_MAN" data-entity-2="MODE_PGM" data-source-line="24" data-uid="lnk11" id="link_MODE_MAN_MODE_PGM"><path d="M647.65,278 C804.33,278 1271.67,278 1431.93,278" fill="none" id="MODE_MAN-backto-MODE_PGM" style="stroke:#181818;stroke-width:1;"/><polygon fill="#181818" points="641.65,278,650.65,282,646.65,278,650.65,274,641.65,278" style="stroke:#181818;stroke-width:1;"/><text fill="#000000" font-family="sans-serif" font-size="13" lengthAdjust="spacing" textLength="109.459" x="982.39" y="270.5586">Press [MAN/PGM]</text></g><!--link MODE_PGM to MODE_SEL_BANK--><g class="link" data-entity-1="MODE_PGM" data-entity-2="MODE_SEL_BANK" data-source-line="25" data-uid="lnk12" id="link_MODE_PGM_MODE_SEL_BANK"><path d="M1491.3,305.08 C1498.17,342.8 1506.16,413.99 1482.64,468 C1470.1,496.82 1458.71,501.02 1431.64,517 C1357.22,560.96 1265.7801,584.9965 1202.7201,597.7965" fill="none" id="MODE_PGM-to-MODE_SEL_BANK" style="stroke:#181818;stroke-width:1;"/><polygon fill="#181818" points="1196.84,598.99,1206.4558,601.1197,1201.7401,597.9954,1204.8644,593.2796,1196.84,598.99" style="stroke:#181818;stroke-width:1;"/><text fill="#000000" font-family="sans-serif" font-size="13" lengthAdjust="spacing" textLength="78.6157" x="1498.64" y="453.0586">Press [BANK]</text></g><!--link MODE_PGM to MODE_WRITE_NUM--><g class="link" data-entity-1="MODE_PGM" data-entity-2="MODE_WRITE_NUM" data-source-line="26" data-uid="lnk13" id="link_MODE_PGM_MODE_WRITE_NUM"><path d="M1431.91,285.35 C1269.28,304.57 793.33,360.9 791.64,362 C745.71,391.89 773.67,436.75 728.64,468 C667.05,510.74 610.71,440.46 562.64,498 C540.93,523.99 549.0302,560.7366 557.7402,585.2366" fill="none" id="MODE_PGM-to-MODE_WRITE_NUM" style="stroke:#181818;stroke-width:1;"/><polygon fill="#181818" points="559.75,590.89,560.5042,581.0701,558.0751,586.1789,552.9663,583.7498,559.75,590.89" style="stroke:#181818;stroke-width:1;"/><text fill="#000000" font-family="sans-serif" font-size="13" lengthAdjust="spacing" textLength="168.6001" x="792.64" y="453.0586">Press and Hold [MAN/PGM]</text></g><!--link MODE_PGM to MODE_WRITE_BANK--><g class="link" data-entity-1="MODE_PGM" data-entity-2="MODE_WRITE_BANK" data-source-line="27" data-uid="lnk14" id="link_MODE_PGM_MODE_WRITE_BANK"><path d="M1532.67,305.06 C1552.94,319.05 1574.52,338.31 1585.64,362 C1605.67,404.64 1605.63,425.34 1585.64,468 C1522.57,602.59 1466.61,626.69 1328.64,682 C1213.41,728.2 850.07,732.1997 691.31,731.6797" fill="none" id="MODE_PGM-to-MODE_WRITE_BANK" style="stroke:#181818;stroke-width:1;"/><polygon fill="#181818" points="685.31,731.66,694.2969,735.6895,690.31,731.6764,694.3231,727.6895,685.31,731.66" style="stroke:#181818;stroke-width:1;"/><text fill="#000000" font-family="sans-serif" font-size="13" lengthAdjust="spacing" textLength="137.7568" x="1570.64" y="512.5586">Press and Hold [BANK]</text></g><!--link MODE_SEL_NUM to MODE_SEL_BANK--><g class="link" data-entity-1="MODE_SEL_NUM" data-entity-2="MODE_SEL_BANK" data-source-line="35" data-uid="lnk15" id="link_MODE_SEL_NUM_MODE_SEL_BANK"><path d="M1021.79,468.27 C1011.32,482.01 1001.6,500.83 1009.64,517 C1026.4,550.68 1056.5331,572.5444 1085.0831,587.9944" fill="none" id="MODE_SEL_NUM-to-MODE_SEL_BANK" style="stroke:#181818;stroke-width:1;"/><polygon fill="#181818" points="1090.36,590.85,1084.3484,583.0487,1085.9626,588.4703,1080.5409,590.0845,1090.36,590.85" style="stroke:#181818;stroke-width:1;"/><text fill="#000000" font-family="sans-serif" font-size="13" lengthAdjust="spacing" textLength="78.6157" x="1010.64" y="512.5586">Press [BANK]</text></g><!--link MODE_SEL_BANK to MODE_SEL_NUM--><g class="link" data-entity-1="MODE_SEL_BANK" data-entity-2="MODE_SEL_NUM" data-source-line="41" data-uid="lnk22" id="link_MODE_SEL_BANK_MODE_SEL_NUM"><path d="M1129.03,590.87 C1123.95,567.47 1113.07,527.36 1093.64,498 C1086.24,486.81 1080.3001,480.3441 1070.5001,472.0941" fill="none" id="MODE_SEL_BANK-to-MODE_SEL_NUM" style="stroke:#181818;stroke-width:1;"/><polygon fill="#181818" points="1065.91,468.23,1070.219,477.0862,1069.7351,471.4501,1075.3712,470.9661,1065.91,468.23" style="stroke:#181818;stroke-width:1;"/><text fill="#000000" font-family="sans-serif" font-size="13" lengthAdjust="spacing" textLength="78.6157" x="1103.64" y="512.5586">Press [BANK]</text></g><!--link MODE_SEL_BANK to MODE_SEL_NUM--><g class="link" data-entity-1="MODE_SEL_BANK" data-entity-2="MODE_SEL_NUM" data-source-line="42" data-uid="lnk23" id="link_MODE_SEL_BANK_MODE_SEL_NUM"><path d="M1155.29,590.77 C1179.77,567.62 1212.53,528.11 1190.64,498 C1170.39,470.13 1139.8286,458.7852 1107.8086,453.4552" fill="none" id="MODE_SEL_BANK-to-MODE_SEL_NUM-1" style="stroke:#181818;stroke-width:1;"/><polygon fill="#181818" points="1101.89,452.47,1110.111,457.8935,1106.8221,453.291,1111.4246,450.0021,1101.89,452.47" style="stroke:#181818;stroke-width:1;"/><text fill="#000000" font-family="sans-serif" font-size="13" lengthAdjust="spacing" textLength="87.3057" x="1197.64" y="512.5586">Press [LOOP#]</text></g><!--reverse link MODE_PGM to MODE_SEL_NUM--><g class="link" data-entity-1="MODE_PGM" data-entity-2="MODE_SEL_NUM" data-source-line="36" data-uid="lnk17" id="link_MODE_PGM_MODE_SEL_NUM"><path d="M1426.1769,288.8138 C1362.0769,300.4738 1258.3,323.21 1170.64,362 C1130.73,379.66 1089.21,408.73 1063.88,427.87" fill="none" id="MODE_PGM-backto-MODE_SEL_NUM" style="stroke:#181818;stroke-width:1;"/><polygon fill="#181818" points="1432.08,287.74,1422.5094,285.4153,1427.1607,288.6348,1423.9412,293.2861,1432.08,287.74" style="stroke:#181818;stroke-width:1;"/><text fill="#000000" font-family="sans-serif" font-size="13" lengthAdjust="spacing" textLength="87.3057" x="1237.64" y="349.5586">Press [LOOP#]</text></g><!--link MODE_SEL_NUM to MODE_WRITE_NUM--><g class="link" data-entity-1="MODE_SEL_NUM" data-entity-2="MODE_WRITE_NUM" data-source-line="38" data-uid="lnk20" id="link_MODE_SEL_NUM_MODE_WRITE_NUM"><path d="M977.59,463.31 C968.58,465.08 959.4,466.71 950.64,468 C910.17,473.95 613.43,469.96 583.64,498 C558.47,521.7 559.4952,559.8112 563.1252,585.0312" fill="none" id="MODE_SEL_NUM-to-MODE_WRITE_NUM" style="stroke:#181818;stroke-width:1;"/><polygon fill="#181818" points="563.98,590.97,566.657,581.4919,563.2677,586.021,558.7386,582.6317,563.98,590.97" style="stroke:#181818;stroke-width:1;"/><text fill="#000000" font-family="sans-serif" font-size="13" lengthAdjust="spacing" textLength="168.6001" x="584.64" y="512.5586">Press and Hold [MAN/PGM]</text></g><!--link MODE_SEL_NUM to MODE_WRITE_BANK--><g class="link" data-entity-1="MODE_SEL_NUM" data-entity-2="MODE_WRITE_BANK" data-source-line="39" data-uid="lnk21" id="link_MODE_SEL_NUM_MODE_WRITE_BANK"><path d="M977.42,462.38 C968.44,464.28 959.31,466.2 950.64,468 C884.5,481.72 853.49,454.69 801.64,498 C734.12,554.4 790.26,619.2 728.64,682 C715.84,695.05 704.5567,702.4208 687.6967,709.6308" fill="none" id="MODE_SEL_NUM-to-MODE_WRITE_BANK" style="stroke:#181818;stroke-width:1;"/><polygon fill="#181818" points="682.18,711.99,692.0279,712.1291,686.7773,710.024,688.8823,704.7734,682.18,711.99" style="stroke:#181818;stroke-width:1;"/><text fill="#000000" font-family="sans-serif" font-size="13" lengthAdjust="spacing" textLength="137.7568" x="777.64" y="616.0586">Press and Hold [BANK]</text></g><!--link MODE_SEL_BANK to MODE_WRITE_NUM--><g class="link" data-entity-1="MODE_SEL_BANK" data-entity-2="MODE_WRITE_NUM" data-source-line="44" data-uid="lnk26" id="link_MODE_SEL_BANK_MODE_WRITE_NUM"><path d="M1106.43,590.84 C1076.15,568.94 1023.87,535.29 972.64,522 C926.15,509.94 782.55,512.88 736.64,525 C684.6,538.74 635.1577,566.782 602.5677,587.582" fill="none" id="MODE_SEL_BANK-to-MODE_WRITE_NUM" style="stroke:#181818;stroke-width:1;"/><polygon fill="#181818" points="597.51,590.81,607.2485,589.3398,601.7247,588.12,602.9445,582.5962,597.51,590.81" style="stroke:#181818;stroke-width:1;"/><text fill="#000000" font-family="sans-serif" font-size="13" lengthAdjust="spacing" textLength="168.6001" x="803.64" y="512.5586">Press and Hold [MAN/PGM]</text></g><!--link MODE_SEL_BANK to MODE_WRITE_BANK--><g class="link" data-entity-1="MODE_SEL_BANK" data-entity-2="MODE_WRITE_BANK" data-source-line="45" data-uid="lnk27" id="link_MODE_SEL_BANK_MODE_WRITE_BANK"><path d="M1068.5,626.65 C971.4,648.83 793.4393,689.4737 691.0593,712.8637" fill="none" id="MODE_SEL_BANK-to-MODE_WRITE_BANK" style="stroke:#181818;stroke-width:1;"/><polygon fill="#181818" points="685.21,714.2,694.8748,716.095,690.0844,713.0864,693.093,708.296,685.21,714.2" style="stroke:#181818;stroke-width:1;"/><text fill="#000000" font-family="sans-serif" font-size="13" lengthAdjust="spacing" textLength="137.7568" x="903.64" y="677.5586">Press and Hold [BANK]</text></g><!--link MODE_WRITE_NUM to MODE_WRITE_BANK--><g class="link" data-entity-1="MODE_WRITE_NUM" data-entity-2="MODE_WRITE_BANK" data-source-line="52" data-uid="lnk28" id="link_MODE_WRITE_NUM_MODE_WRITE_BANK"><path d="M606.72,631.05 C618.9,639.1 630.9,649.73 637.64,663 C645.72,678.88 640.3991,692.942 630.9391,706.822" fill="none" id="MODE_WRITE_NUM-to-MODE_WRITE_BANK" style="stroke:#181818;stroke-width:1;"/><polygon fill="#181818" points="627.56,711.78,635.934,706.5958,630.3759,707.6484,629.3234,702.0903,627.56,711.78" style="stroke:#181818;stroke-width:1;"/><text fill="#000000" font-family="sans-serif" font-size="13" lengthAdjust="spacing" textLength="78.6157" x="641.64" y="677.5586">Press [BANK]</text></g><!--link MODE_WRITE_BANK to MODE_WRITE_NUM--><g class="link" data-entity-1="MODE_WRITE_BANK" data-entity-2="MODE_WRITE_NUM" data-source-line="59" data-uid="lnk35" id="link_MODE_WRITE_BANK_MODE_WRITE_NUM"><path d="M570.19,711.94 C558.5,704.38 547.19,694.47 540.64,682 C531.99,665.51 537.9966,650.5205 548.0166,636.1605" fill="none" id="MODE_WRITE_BANK-to-MODE_WRITE_NUM" style="stroke:#181818;stroke-width:1;"/><polygon fill="#181818" points="551.45,631.24,543.0195,636.3319,548.5888,635.3404,549.5802,640.9097,551.45,631.24" style="stroke:#181818;stroke-width:1;"/><text fill="#000000" font-family="sans-serif" font-size="13" lengthAdjust="spacing" textLength="87.3057" x="541.64" y="677.5586">Press [LOOP#]</text></g><!--link MODE_WRITE_BANK to MODE_WRITE_NUM--><g class="link" data-entity-1="MODE_WRITE_BANK" data-entity-2="MODE_WRITE_NUM" data-source-line="61" data-uid="lnk38" id="link_MODE_WRITE_BANK_MODE_WRITE_NUM"><path d="M538.1,721.05 C492.03,713.14 438.79,700.33 424.64,682 C400.24,650.38 443.078,633.3828 490.138,623.5028" fill="none" id="MODE_WRITE_BANK-to-MODE_WRITE_NUM-1" style="stroke:#181818;stroke-width:1;"/><polygon fill="#181818" points="496.01,622.27,486.3802,620.2045,491.1167,623.2973,488.0239,628.0338,496.01,622.27" style="stroke:#181818;stroke-width:1;"/><text fill="#000000" font-family="sans-serif" font-size="13" lengthAdjust="spacing" textLength="78.6157" x="425.64" y="677.5586">Press [BANK]</text></g><!--link MODE_WRITE_NUM to Write_Memory--><g class="link" data-entity-1="MODE_WRITE_NUM" data-entity-2="Write_Memory" data-source-line="56" data-uid="lnk32" id="link_MODE_WRITE_NUM_Write_Memory"><path d="M628.79,631.08 C660.62,640.1 700.36,649.98 736.64,655 C805.57,664.53 980.26,657.85 1049.64,663 C1233.8,676.66 1444.9482,706.9578 1542.9782,721.8678" fill="none" id="MODE_WRITE_NUM-to-Write_Memory" style="stroke:#181818;stroke-width:1;"/><polygon fill="#181818" points="1548.91,722.77,1540.6138,717.4622,1543.9668,722.0182,1539.4109,725.3712,1548.91,722.77" style="stroke:#181818;stroke-width:1;"/><text fill="#000000" font-family="sans-serif" font-size="13" lengthAdjust="spacing" textLength="87.3057" x="1232.64" y="677.5586">Press [LOOP#]</text></g><!--reverse link MODE_PGM to Write_Memory--><g class="link" data-entity-1="MODE_PGM" data-entity-2="Write_Memory" data-source-line="57" data-uid="lnk34" id="link_MODE_PGM_Write_Memory"><path d="M1545.213,283.0251 C1592.193,288.2651 1654.5,300.95 1703.64,335 C1776.31,385.35 1791.08,413.68 1817.64,498 C1843.87,581.25 1823.65,579.47 1703.64,682 C1689.23,694.31 1671.19,704.31 1654.3,711.98" fill="none" id="MODE_PGM-backto-Write_Memory" style="stroke:#181818;stroke-width:1;"/><polygon fill="#181818" points="1539.25,282.36,1547.7511,287.333,1544.2192,282.9142,1548.6379,279.3823,1539.25,282.36" style="stroke:#181818;stroke-width:1;"/></g><!--SRC=[bPDBQuD0483FcLynq4EX82NN7WgMIXiQDRG9EOGWKZVjWj6W6qfQ-j_hQg8xxlfeJZhppSDlDvyyOiZs1t72YENl6Jy8dYO0cvijMjOzpX8kU1ZpRuPtk4Y_M8Q-1oHgnp7EVN-1wMv7C-vgwUZHnPEBKsiAe8RbBDT_T0BNzW1o4GfMlyjEON8Cup82SDrabAf9yIkQPopFSIFtkTf2mrt0DsSUU2jNPOlyRR5J5_rWUoygBjzDxFfrjdHQlSCamkSqZdg7L8NL6Bsm6aUKI84IJ3-oS4-ToDIbR_7SwQJaOhOJL627av8UwOIm_t5YA1pdvBAGd8C_C55CdKyRjQ3a4Nu126RuHjCdrlZnG5qRLHleNjarhpiSKcWk7R18dUX_b2u3GtZRGSMt9FGueFqR2sCac6fB3PqMgllHa8RBLA-0XZ2zK0tQjmGv0QLaq95fo3hZWWKkswVPIJy5DTkwjwJRa7Hogch9k7DLAxfddBNy0G00]--></g></svg>