<svg xmlns="http://www.w3.org/2000/svg" xmlns:xlink="http://www.w3.org/1999/xlink" contentStyleType="text/css" data-diagram-type="STATE" height="842px" preserveAspectRatio="none" style="width:1889px;height:842px;background:#FFFFFF;" version="1.1" viewBox="0 0 1889 842" width="1889px" zoomAndPan="magnify"><defs/><g><!--cluster SEL_BANK_NUM--><g class="cluster" data-entity="SEL_BANK_NUM" data-source-line="24" data-uid="ent0004" id="cluster_SEL_BANK_NUM"><path d="M467.5,387 L844.5,387 A12.5,12.5 0 0 1 857,399.5 L857,408.2969 L455,408.2969 L455,399.5 A12.5,12.5 0 0 1 467.5,387" fill="#F1F1F1"/><rect fill="none" height="332" rx="12.5" ry="12.5" style="stroke:#181818;stroke-width:0.5;" width="402" x="455" y="387"/><line style="stroke:#181818;stroke-width:0.5;" x1="455" x2="857" y1="408.2969" y2="408.2969"/><text fill="#000000" font-family="sans-serif" font-size="14" lengthAdjust="spacing" textLength="111.166" x="600.417" y="404.9951">SEL_BANK_NUM</text></g><!--cluster WRITE_BANK_NUM--><g class="cluster" data-entity="WRITE_BANK_NUM" data-source-line="57" data-uid="ent0009" id="cluster_WRITE_BANK_NUM"><path d="M1241.5,609 L1637.5,609 A12.5,12.5 0 0 1 1650,621.5 L1650,630.2969 L1229,630.2969 L1229,621.5 A12.5,12.5 0 0 1 1241.5,609" fill="#F1F1F1"/><rect fill="none" height="227" rx="12.5" ry="12.5" style="stroke:#181818;stroke-width:0.5;" width="421" x="1229" y="609"/><line style="stroke:#181818;stroke-width:0.5;" x1="1229" x2="1650" y1="630.2969" y2="630.2969"/><text fill="#000000" font-family="sans-serif" font-size="14" lengthAdjust="spacing" textLength="130.7305" x="1374.1348" y="625.9951">WRITE_BANK_NUM</text></g><text fill="#000000" font-family="sans-serif" font-size="14" lengthAdjust="spacing" textLength="58.1807" x="720.4097" y="365.6982">sel_num</text><ellipse cx="749.5" cy="387" fill="#F1F1F1" rx="6" ry="6" style="stroke:#181818;stroke-width:1.5;"/><text fill="#000000" font-family="sans-serif" font-size="14" lengthAdjust="spacing" textLength="61.2432" x="808.3784" y="365.6982">sel_bank</text><ellipse cx="839" cy="387" fill="#F1F1F1" rx="6" ry="6" style="stroke:#181818;stroke-width:1.5;"/><rect fill="#F1F1F1" height="40" rx="12.5" ry="12.5" style="stroke:#181818;stroke-width:0.5;" width="125.0557" x="647.5" y="506"/><text fill="#000000" font-family="sans-serif" font-size="14" lengthAdjust="spacing" textLength="115.0557" x="652.5" y="530.8467">MODE_SEL_NUM</text><rect fill="#F1F1F1" height="40" rx="12.5" ry="12.5" style="stroke:#181818;stroke-width:0.5;" width="131.0918" x="567.5" y="663"/><text fill="#000000" font-family="sans-serif" font-size="14" lengthAdjust="spacing" textLength="121.0918" x="572.5" y="687.8467">MODE_SEL_BANK</text><rect fill="#F1F1F1" height="40" rx="12.5" ry="12.5" style="stroke:#181818;stroke-width:0.5;" width="144.6201" x="1245.5" y="663"/><text fill="#000000" font-family="sans-serif" font-size="14" lengthAdjust="spacing" textLength="134.6201" x="1250.5" y="687.8467">MODE_WRITE_NUM</text><rect fill="#F1F1F1" height="40" rx="12.5" ry="12.5" style="stroke:#181818;stroke-width:0.5;" width="150.6563" x="1245.5" y="780"/><text fill="#000000" font-family="sans-serif" font-size="14" lengthAdjust="spacing" textLength="140.6563" x="1250.5" y="804.8467">MODE_WRITE_BANK</text><rect fill="#F1F1F1" height="40" rx="12.5" ry="12.5" style="stroke:#181818;stroke-width:0.5;" width="111.5273" x="1522" y="663"/><text fill="#000000" font-family="sans-serif" font-size="14" lengthAdjust="spacing" textLength="101.5273" x="1527" y="687.8467">Write_Memory</text><g id="MODE_MAN"><rect fill="#F1F1F1" height="50.2656" rx="12.5" ry="12.5" style="stroke:#181818;stroke-width:0.5;" width="104.041" x="521" y="242"/><line style="stroke:#181818;stroke-width:0.5;" x1="521" x2="625.041" y1="268.2969" y2="268.2969"/><text fill="#000000" font-family="sans-serif" font-size="14" lengthAdjust="spacing" textLength="81.8535" x="532.0938" y="259.9951">MODE_MAN</text><text fill="#000000" font-family="sans-serif" font-size="12" lengthAdjust="spacing" textLength="84.041" x="526" y="284.4355">Manual MODE</text></g><g id="MODE_PGM"><rect fill="#F1F1F1" height="50.2656" rx="12.5" ry="12.5" style="stroke:#181818;stroke-width:0.5;" width="111.541" x="1361" y="242"/><line style="stroke:#181818;stroke-width:0.5;" x1="1361" x2="1472.541" y1="268.2969" y2="268.2969"/><text fill="#000000" font-family="sans-serif" font-size="14" lengthAdjust="spacing" textLength="81.0947" x="1376.2231" y="259.9951">MODE_PGM</text><text fill="#000000" font-family="sans-serif" font-size="12" lengthAdjust="spacing" textLength="91.541" x="1366" y="284.4355">Program MODE</text></g><ellipse cx="573" cy="16" fill="#222222" rx="10" ry="10" style="stroke:#222222;stroke-width:1;"/><g id="Initialize"><rect fill="#F1F1F1" height="78.2031" rx="12.5" ry="12.5" style="stroke:#181818;stroke-width:0.5;" width="91.1094" x="527.5" y="103"/><line style="stroke:#181818;stroke-width:0.5;" x1="527.5" x2="618.6094" y1="129.2969" y2="129.2969"/><text fill="#000000" font-family="sans-serif" font-size="14" lengthAdjust="spacing" textLength="58.5908" x="543.7593" y="120.9951">Initialize</text><text fill="#000000" font-family="sans-serif" font-size="12" lengthAdjust="spacing" textLength="71.1094" x="532.5" y="145.4355">All LOOP off</text><text fill="#000000" font-family="sans-serif" font-size="12" lengthAdjust="spacing" textLength="53.6543" x="532.5" y="159.4043">MUTE off</text><text fill="#000000" font-family="sans-serif" font-size="12" lengthAdjust="spacing" textLength="50.3027" x="532.5" y="173.373">PGM 1-1</text></g><!--link *start* to Initialize--><g class="link" data-entity-1=".start." data-entity-2="Initialize" data-source-line="4" data-uid="lnk4" id="link_.start._Initialize"><path d="M573,26.32 C573,42.37 573,70.09 573,96.83" fill="none" id="*start*-to-Initialize" style="stroke:#181818;stroke-width:1;"/><polygon fill="#181818" points="573,102.83,577,93.83,573,97.83,569,93.83,573,102.83" style="stroke:#181818;stroke-width:1;"/><text fill="#000000" font-family="sans-serif" font-size="13" lengthAdjust="spacing" textLength="63.8574" x="574" y="69.0669">Power ON</text></g><!--link Initialize to MODE_MAN--><g class="link" data-entity-1="Initialize" data-entity-2="MODE_MAN" data-source-line="10" data-uid="lnk5" id="link_Initialize_MODE_MAN"><path d="M573,181.24 C573,200.99 573,218.49 573,235.73" fill="none" id="Initialize-to-MODE_MAN" style="stroke:#181818;stroke-width:1;"/><polygon fill="#181818" points="573,241.73,577,232.73,573,236.73,569,232.73,573,241.73" style="stroke:#181818;stroke-width:1;"/></g><!--link MODE_MAN to sel_num--><g class="link" data-entity-1="MODE_MAN" data-entity-2="sel_num" data-source-line="16" data-uid="lnk6" id="link_MODE_MAN_sel_num"><path d="M609.25,292.16 C652.53,321.02 716.8184,363.8707 738.3784,378.2507" fill="none" id="MODE_MAN-to-sel_num" style="stroke:#181818;stroke-width:1;"/><polygon fill="#181818" points="743.37,381.58,738.1021,373.2584,739.2103,378.8056,733.6631,379.9138,743.37,381.58" style="stroke:#181818;stroke-width:1;"/><text fill="#000000" font-family="sans-serif" font-size="13" lengthAdjust="spacing" textLength="112.3472" x="678" y="335.0669">Press [MAN/PGM]</text></g><!--link MODE_MAN to MODE_SEL_BANK--><g class="link" data-entity-1="MODE_MAN" data-entity-2="MODE_SEL_BANK" data-source-line="17" data-uid="lnk7" id="link_MODE_MAN_MODE_SEL_BANK"><path d="M551.37,292.37 C504.17,348.63 401.01,490.57 463,593 C485.6,630.34 523.9099,650.808 561.4799,663.808" fill="none" id="MODE_MAN-to-MODE_SEL_BANK" style="stroke:#181818;stroke-width:1;"/><polygon fill="#181818" points="567.15,665.77,559.9528,659.0469,562.4249,664.135,557.3368,666.6071,567.15,665.77" style="stroke:#181818;stroke-width:1;"/><text fill="#000000" font-family="sans-serif" font-size="13" lengthAdjust="spacing" textLength="85.0649" x="464" y="448.0669">Press [BANK]</text></g><!--reverse link MODE_MAN to MODE_SEL_BANK--><g class="link" data-entity-1="MODE_MAN" data-entity-2="MODE_SEL_BANK" data-source-line="53" data-uid="lnk27" id="link_MODE_MAN_MODE_SEL_BANK"><path d="M514.9981,283.7707 C431.8081,308.9907 288.85,365.78 335,452 C338.02,457.65 342.33,455.61 347,460 C401.07,510.85 390.51,546.05 448,593 C486.37,624.34 537.61,647.88 576.44,662.86" fill="none" id="MODE_MAN-backto-MODE_SEL_BANK" style="stroke:#181818;stroke-width:1;"/><polygon fill="#181818" points="520.74,282.03,510.9666,280.8131,515.9551,283.4806,513.2876,288.4691,520.74,282.03" style="stroke:#181818;stroke-width:1;"/><text fill="#000000" font-family="sans-serif" font-size="13" lengthAdjust="spacing" textLength="112.3472" x="336" y="448.0669">Press [MAN/PGM]</text></g><!--link MODE_MAN to MODE_WRITE_NUM--><g class="link" data-entity-1="MODE_MAN" data-entity-2="MODE_WRITE_NUM" data-source-line="18" data-uid="lnk8" id="link_MODE_MAN_MODE_WRITE_NUM"><path d="M625.38,269.69 C734.9,273.89 984.29,287.09 1061,322 C1136.87,356.52 1303.51,499.67 1337,576 C1349.54,604.59 1340.0954,635.5154 1330.2954,657.3654" fill="none" id="MODE_MAN-to-MODE_WRITE_NUM" style="stroke:#181818;stroke-width:1;"/><polygon fill="#181818" points="1327.84,662.84,1335.1728,656.2651,1329.8862,658.2779,1327.8734,652.9912,1327.84,662.84" style="stroke:#181818;stroke-width:1;"/><text fill="#000000" font-family="sans-serif" font-size="13" lengthAdjust="spacing" textLength="174.6621" x="1236" y="448.0669">Press and Hold [MAN/PGM]</text></g><!--reverse link MODE_MAN to MODE_WRITE_NUM--><g class="link" data-entity-1="MODE_MAN" data-entity-2="MODE_WRITE_NUM" data-source-line="65" data-uid="lnk34" id="link_MODE_MAN_MODE_WRITE_NUM"><path d="M631.248,269.0443 C733.498,271.6743 949.63,281.82 1013,322 C1070.69,358.58 1047.31,403.09 1095,452 C1147.58,505.92 1170.86,508.2 1236,546 C1261.79,560.96 1277.82,552.37 1296,576 C1315.49,601.32 1318.79,639.76 1318.82,662.72" fill="none" id="MODE_MAN-backto-MODE_WRITE_NUM" style="stroke:#181818;stroke-width:1;"/><polygon fill="#181818" points="625.25,268.89,634.1442,273.1201,630.2483,269.0186,634.3499,265.1227,625.25,268.89" style="stroke:#181818;stroke-width:1;"/><text fill="#000000" font-family="sans-serif" font-size="13" lengthAdjust="spacing" textLength="112.3472" x="1096" y="448.0669">Press [MAN/PGM]</text></g><!--link MODE_MAN to MODE_WRITE_BANK--><g class="link" data-entity-1="MODE_MAN" data-entity-2="MODE_WRITE_BANK" data-source-line="19" data-uid="lnk9" id="link_MODE_MAN_MODE_WRITE_BANK"><path d="M520.93,267.86 C380.76,268.87 6,281.37 6,386 C6,386 6,386 6,684 C6,774.65 109.92,733.18 199,750 C400.29,788 1021.0502,796.5786 1239.2102,798.4486" fill="none" id="MODE_MAN-to-MODE_WRITE_BANK" style="stroke:#181818;stroke-width:1;"/><polygon fill="#181818" points="1245.21,798.5,1236.2446,794.423,1240.2102,798.4571,1236.176,802.4227,1245.21,798.5" style="stroke:#181818;stroke-width:1;"/><text fill="#000000" font-family="sans-serif" font-size="13" lengthAdjust="spacing" textLength="147.3799" x="7" y="530.5669">Press and Hold [BANK]</text></g><!--reverse link MODE_MAN to MODE_WRITE_BANK--><g class="link" data-entity-1="MODE_MAN" data-entity-2="MODE_WRITE_BANK" data-source-line="70" data-uid="lnk39" id="link_MODE_MAN_MODE_WRITE_BANK"><path d="M514.9599,275.4756 C417.8799,289.2956 225,324.28 225,386 C225,386 225,386 225,684 C225,786.78 997.15,798.04 1245.24,799.01" fill="none" id="MODE_MAN-backto-MODE_WRITE_BANK" style="stroke:#181818;stroke-width:1;"/><polygon fill="#181818" points="520.9,274.63,511.4261,271.9383,515.9499,275.3347,512.5536,279.8585,520.9,274.63" style="stroke:#181818;stroke-width:1;"/><text fill="#000000" font-family="sans-serif" font-size="13" lengthAdjust="spacing" textLength="112.3472" x="226" y="530.5669">Press [MAN/PGM]</text></g><!--link sel_num to MODE_SEL_NUM--><g class="link" data-entity-1="sel_num" data-entity-2="MODE_SEL_NUM" data-source-line="28" data-uid="lnk10" id="link_sel_num_MODE_SEL_NUM"><path d="M748.48,393.2 C743.12,411.58 726.5619,468.2906 717.2519,500.1706" fill="none" id="sel_num-to-MODE_SEL_NUM" style="stroke:#181818;stroke-width:1;"/><polygon fill="#181818" points="715.57,505.93,721.9325,498.4121,716.9716,501.1305,714.2533,496.1696,715.57,505.93" style="stroke:#181818;stroke-width:1;"/></g><!--link sel_bank to MODE_SEL_BANK--><g class="link" data-entity-1="sel_bank" data-entity-2="MODE_SEL_BANK" data-source-line="29" data-uid="lnk11" id="link_sel_bank_MODE_SEL_BANK"><path d="M832.91,390.38 C824.29,393.74 808,400.01 794,405 C647.25,457.31 554.77,435.24 488,576 C468.15,617.84 514.4738,644.7802 561.6238,661.7302" fill="none" id="sel_bank-to-MODE_SEL_BANK" style="stroke:#181818;stroke-width:1;"/><polygon fill="#181818" points="567.27,663.76,560.1538,656.9512,562.5648,662.0685,557.4475,664.4795,567.27,663.76" style="stroke:#181818;stroke-width:1;"/></g><!--reverse link MODE_MAN to MODE_PGM--><g class="link" data-entity-1="MODE_MAN" data-entity-2="MODE_PGM" data-source-line="37" data-uid="lnk13" id="link_MODE_MAN_MODE_PGM"><path d="M631.16,267 C781.03,267 1206.03,267 1360.81,267" fill="none" id="MODE_MAN-backto-MODE_PGM" style="stroke:#181818;stroke-width:1;"/><polygon fill="#181818" points="625.16,267,634.16,271,630.16,267,634.16,263,625.16,267" style="stroke:#181818;stroke-width:1;"/><text fill="#000000" font-family="sans-serif" font-size="13" lengthAdjust="spacing" textLength="112.3472" x="937" y="260.0669">Press [MAN/PGM]</text></g><!--link MODE_PGM to sel_bank--><g class="link" data-entity-1="MODE_PGM" data-entity-2="sel_bank" data-source-line="39" data-uid="lnk14" id="link_MODE_PGM_sel_bank"><path d="M1360.79,279.48 C1226.61,306.87 900.8986,373.359 851.1686,383.519" fill="none" id="MODE_PGM-to-sel_bank" style="stroke:#181818;stroke-width:1;"/><polygon fill="#181818" points="845.29,384.72,854.9085,386.8375,850.1888,383.7192,853.3072,378.9994,845.29,384.72" style="stroke:#181818;stroke-width:1;"/><text fill="#000000" font-family="sans-serif" font-size="13" lengthAdjust="spacing" textLength="85.0649" x="1146" y="335.0669">Press [BANK]</text></g><!--link MODE_PGM to MODE_WRITE_NUM--><g class="link" data-entity-1="MODE_PGM" data-entity-2="MODE_WRITE_NUM" data-source-line="40" data-uid="lnk15" id="link_MODE_PGM_MODE_WRITE_NUM"><path d="M1437.67,292.24 C1458.38,319.61 1485.17,365.48 1470,405 C1463.57,421.75 1452.26,419.64 1443,435 C1404.39,499.07 1420.77,527.3 1385,593 C1370.85,618.99 1353.5726,641.134 1338.8326,658.424" fill="none" id="MODE_PGM-to-MODE_WRITE_NUM" style="stroke:#181818;stroke-width:1;"/><polygon fill="#181818" points="1334.94,662.99,1343.8228,658.7361,1338.1838,659.185,1337.7349,653.546,1334.94,662.99" style="stroke:#181818;stroke-width:1;"/><text fill="#000000" font-family="sans-serif" font-size="13" lengthAdjust="spacing" textLength="174.6621" x="1444" y="448.0669">Press and Hold [MAN/PGM]</text></g><!--link MODE_PGM to MODE_WRITE_BANK--><g class="link" data-entity-1="MODE_PGM" data-entity-2="MODE_WRITE_BANK" data-source-line="41" data-uid="lnk16" id="link_MODE_PGM_MODE_WRITE_BANK"><path d="M1473.13,277.1 C1563.94,293.42 1733,331.17 1733,386 C1733,386 1733,386 1733,684 C1733,753.06 1521.4849,781.9314 1402.5449,792.8514" fill="none" id="MODE_PGM-to-MODE_WRITE_BANK" style="stroke:#181818;stroke-width:1;"/><polygon fill="#181818" points="1396.57,793.4,1405.898,796.5604,1401.5491,792.9429,1405.1666,788.5939,1396.57,793.4" style="stroke:#181818;stroke-width:1;"/><text fill="#000000" font-family="sans-serif" font-size="13" lengthAdjust="spacing" textLength="147.3799" x="1734" y="530.5669">Press and Hold [BANK]</text></g><!--link MODE_SEL_NUM to MODE_SEL_BANK--><g class="link" data-entity-1="MODE_SEL_NUM" data-entity-2="MODE_SEL_BANK" data-source-line="45" data-uid="lnk17" id="link_MODE_SEL_NUM_MODE_SEL_BANK"><path d="M647.5,545.11 C646.32,545.42 645.16,545.71 644,546 C581.84,561.54 543.32,526.2 503,576 C474.14,611.65 524.4447,641.2832 571.6947,660.5632" fill="none" id="MODE_SEL_NUM-to-MODE_SEL_BANK" style="stroke:#181818;stroke-width:1;"/><polygon fill="#181818" points="577.25,662.83,570.4282,655.7262,572.6206,660.941,567.4058,663.1333,577.25,662.83" style="stroke:#181818;stroke-width:1;"/><text fill="#000000" font-family="sans-serif" font-size="13" lengthAdjust="spacing" textLength="85.0649" x="504" y="589.0669">Press [BANK]</text></g><!--link MODE_SEL_BANK to MODE_SEL_NUM--><g class="link" data-entity-1="MODE_SEL_BANK" data-entity-2="MODE_SEL_NUM" data-source-line="51" data-uid="lnk24" id="link_MODE_SEL_BANK_MODE_SEL_NUM"><path d="M626.93,663 C620.97,640.65 614.79,603.14 630,576 C637.08,563.35 643.7501,556.6419 656.1701,549.2719" fill="none" id="MODE_SEL_BANK-to-MODE_SEL_NUM" style="stroke:#181818;stroke-width:1;"/><polygon fill="#181818" points="661.33,546.21,651.5489,547.3629,657.0301,548.7616,655.6314,554.2428,661.33,546.21" style="stroke:#181818;stroke-width:1;"/><text fill="#000000" font-family="sans-serif" font-size="13" lengthAdjust="spacing" textLength="85.0649" x="631" y="589.0669">Press [BANK]</text></g><!--link MODE_SEL_BANK to MODE_SEL_NUM--><g class="link" data-entity-1="MODE_SEL_BANK" data-entity-2="MODE_SEL_NUM" data-source-line="52" data-uid="lnk25" id="link_MODE_SEL_BANK_MODE_SEL_NUM"><path d="M661.53,662.75 C682.38,646.82 709.02,622.14 721,593 C727.18,577.96 725.3063,565.2882 720.5363,551.7682" fill="none" id="MODE_SEL_BANK-to-MODE_SEL_NUM-1" style="stroke:#181818;stroke-width:1;"/><polygon fill="#181818" points="718.54,546.11,717.7623,555.9281,720.2036,550.8251,725.3065,553.2664,718.54,546.11" style="stroke:#181818;stroke-width:1;"/><text fill="#000000" font-family="sans-serif" font-size="13" lengthAdjust="spacing" textLength="95.4434" x="725" y="589.0669">Press [LOOP#]</text></g><!--reverse link MODE_PGM to MODE_SEL_NUM--><g class="link" data-entity-1="MODE_PGM" data-entity-2="MODE_SEL_NUM" data-source-line="46" data-uid="lnk19" id="link_MODE_PGM_MODE_SEL_NUM"><path d="M1397.6267,297.1484 C1386.3967,315.2484 1375.5,336.03 1369,361 C1367.73,365.9 1369.43,448.29 1366,452 C1326.1,495.14 928.97,516.01 772.7,522.61" fill="none" id="MODE_PGM-backto-MODE_SEL_NUM" style="stroke:#181818;stroke-width:1;"/><polygon fill="#181818" points="1400.79,292.05,1392.6462,297.5888,1398.1539,296.2987,1399.444,301.8065,1400.79,292.05" style="stroke:#181818;stroke-width:1;"/><text fill="#000000" font-family="sans-serif" font-size="13" lengthAdjust="spacing" textLength="95.4434" x="1370" y="391.5669">Press [LOOP#]</text></g><!--reverse link MODE_MAN to MODE_SEL_NUM--><g class="link" data-entity-1="MODE_MAN" data-entity-2="MODE_SEL_NUM" data-source-line="47" data-uid="lnk21" id="link_MODE_MAN_MODE_SEL_NUM"><path d="M567.0984,298.2208 C560.7284,337.0408 555.69,407.31 595,452 C615.23,474.99 644.42,493.4 668.33,505.98" fill="none" id="MODE_MAN-backto-MODE_SEL_NUM" style="stroke:#181818;stroke-width:1;"/><polygon fill="#181818" points="568.07,292.3,562.6655,300.5335,567.2604,297.234,570.5599,301.8289,568.07,292.3" style="stroke:#181818;stroke-width:1;"/><text fill="#000000" font-family="sans-serif" font-size="13" lengthAdjust="spacing" textLength="112.3472" x="572" y="391.5669">Press [MAN/PGM]</text></g><!--link MODE_SEL_NUM to MODE_WRITE_NUM--><g class="link" data-entity-1="MODE_SEL_NUM" data-entity-2="MODE_WRITE_NUM" data-source-line="48" data-uid="lnk22" id="link_MODE_SEL_NUM_MODE_WRITE_NUM"><path d="M772.76,529.41 C847.35,533.62 974.95,545.06 1080,576 C1096.97,581 1098.9,588.46 1116,593 C1159.95,604.68 1175.76,584.15 1218,601 C1251.62,614.41 1278.6105,638.9177 1296.9305,658.3177" fill="none" id="MODE_SEL_NUM-to-MODE_WRITE_NUM" style="stroke:#181818;stroke-width:1;"/><polygon fill="#181818" points="1301.05,662.68,1297.779,653.3902,1297.6171,659.0447,1291.9626,658.8828,1301.05,662.68" style="stroke:#181818;stroke-width:1;"/><text fill="#000000" font-family="sans-serif" font-size="13" lengthAdjust="spacing" textLength="174.6621" x="1117" y="589.0669">Press and Hold [MAN/PGM]</text></g><!--link MODE_SEL_NUM to MODE_WRITE_BANK--><g class="link" data-entity-1="MODE_SEL_NUM" data-entity-2="MODE_WRITE_BANK" data-source-line="49" data-uid="lnk23" id="link_MODE_SEL_NUM_MODE_WRITE_BANK"><path d="M772.64,528.42 C856.86,531.62 1000.51,542.04 1039,576 C1088.49,619.66 1033.43,671.26 1079,719 C1122.31,764.37 1185.9245,783.0877 1239.3745,791.5877" fill="none" id="MODE_SEL_NUM-to-MODE_WRITE_BANK" style="stroke:#181818;stroke-width:1;"/><polygon fill="#181818" points="1245.3,792.53,1237.0399,787.1662,1240.362,791.7447,1235.7835,795.0669,1245.3,792.53" style="stroke:#181818;stroke-width:1;"/><text fill="#000000" font-family="sans-serif" font-size="13" lengthAdjust="spacing" textLength="147.3799" x="1080" y="687.5669">Press and Hold [BANK]</text></g><!--link MODE_SEL_BANK to MODE_WRITE_NUM--><g class="link" data-entity-1="MODE_SEL_BANK" data-entity-2="MODE_WRITE_NUM" data-source-line="54" data-uid="lnk28" id="link_MODE_SEL_BANK_MODE_WRITE_NUM"><path d="M674.83,662.82 C719.83,642.31 794.11,611.92 862,600 C939.92,586.31 1143.58,574.16 1218,601 C1252.21,613.34 1279.1459,638.4495 1297.2659,658.4895" fill="none" id="MODE_SEL_BANK-to-MODE_WRITE_NUM" style="stroke:#181818;stroke-width:1;"/><polygon fill="#181818" points="1301.29,662.94,1298.2209,653.5816,1297.9366,659.2313,1292.2869,658.947,1301.29,662.94" style="stroke:#181818;stroke-width:1;"/><text fill="#000000" font-family="sans-serif" font-size="13" lengthAdjust="spacing" textLength="174.6621" x="863" y="589.0669">Press and Hold [MAN/PGM]</text></g><!--link MODE_SEL_BANK to MODE_WRITE_BANK--><g class="link" data-entity-1="MODE_SEL_BANK" data-entity-2="MODE_WRITE_BANK" data-source-line="55" data-uid="lnk29" id="link_MODE_SEL_BANK_MODE_WRITE_BANK"><path d="M695.6,703 C746.46,717.79 820.28,737.79 886,750 C1010.97,773.22 1152.3381,786.5446 1239.4781,793.3246" fill="none" id="MODE_SEL_BANK-to-MODE_WRITE_BANK" style="stroke:#181818;stroke-width:1;"/><polygon fill="#181818" points="1245.46,793.79,1236.7974,789.1039,1240.4751,793.4021,1236.1768,797.0798,1245.46,793.79" style="stroke:#181818;stroke-width:1;"/><text fill="#000000" font-family="sans-serif" font-size="13" lengthAdjust="spacing" textLength="147.3799" x="887" y="746.0669">Press and Hold [BANK]</text></g><!--link MODE_WRITE_NUM to Write_Memory--><g class="link" data-entity-1="MODE_WRITE_NUM" data-entity-2="Write_Memory" data-source-line="60" data-uid="lnk31" id="link_MODE_WRITE_NUM_Write_Memory"><path d="M1390.77,683 C1432.23,683 1477.4,683 1515.76,683" fill="none" id="MODE_WRITE_NUM-to-Write_Memory" style="stroke:#181818;stroke-width:1;"/><polygon fill="#181818" points="1521.76,683,1512.76,679,1516.76,683,1512.76,687,1521.76,683" style="stroke:#181818;stroke-width:1;"/><text fill="#000000" font-family="sans-serif" font-size="13" lengthAdjust="spacing" textLength="95.4434" x="1408.75" y="676.0669">Press [LOOP#]</text></g><!--link MODE_WRITE_NUM to MODE_WRITE_BANK--><g class="link" data-entity-1="MODE_WRITE_NUM" data-entity-2="MODE_WRITE_BANK" data-source-line="63" data-uid="lnk32" id="link_MODE_WRITE_NUM_MODE_WRITE_BANK"><path d="M1351.58,703.11 C1362.03,710.92 1372.29,720.97 1378,733 C1386.5,750.92 1376.2349,764.2544 1359.4349,776.4544" fill="none" id="MODE_WRITE_NUM-to-MODE_WRITE_BANK" style="stroke:#181818;stroke-width:1;"/><polygon fill="#181818" points="1354.58,779.98,1364.2128,777.9282,1358.6258,777.042,1359.512,771.455,1354.58,779.98" style="stroke:#181818;stroke-width:1;"/><text fill="#000000" font-family="sans-serif" font-size="13" lengthAdjust="spacing" textLength="85.0649" x="1381" y="746.0669">Press [BANK]</text></g><!--link MODE_WRITE_BANK to MODE_WRITE_NUM--><g class="link" data-entity-1="MODE_WRITE_BANK" data-entity-2="MODE_WRITE_NUM" data-source-line="69" data-uid="lnk37" id="link_MODE_WRITE_BANK_MODE_WRITE_NUM"><path d="M1295.28,779.82 C1286.48,771.7 1277.68,761.47 1273,750 C1266.03,732.92 1274.0479,719.857 1287.5879,707.317" fill="none" id="MODE_WRITE_BANK-to-MODE_WRITE_NUM" style="stroke:#181818;stroke-width:1;"/><polygon fill="#181818" points="1291.99,703.24,1282.6689,706.4207,1288.3216,706.6375,1288.1049,712.2902,1291.99,703.24" style="stroke:#181818;stroke-width:1;"/><text fill="#000000" font-family="sans-serif" font-size="13" lengthAdjust="spacing" textLength="95.4434" x="1274" y="746.0669">Press [LOOP#]</text></g><!--link MODE_WRITE_BANK to MODE_WRITE_NUM--><g class="link" data-entity-1="MODE_WRITE_BANK" data-entity-2="MODE_WRITE_NUM" data-source-line="71" data-uid="lnk40" id="link_MODE_WRITE_BANK_MODE_WRITE_NUM"><path d="M1396.57,795.97 C1460.73,790.5 1537.6,775.25 1505,733 C1490.75,714.53 1442.7545,702.6894 1396.4645,694.7894" fill="none" id="MODE_WRITE_BANK-to-MODE_WRITE_NUM-1" style="stroke:#181818;stroke-width:1;"/><polygon fill="#181818" points="1390.55,693.78,1398.7488,699.2371,1395.4787,694.6212,1400.0947,691.3511,1390.55,693.78" style="stroke:#181818;stroke-width:1;"/><text fill="#000000" font-family="sans-serif" font-size="13" lengthAdjust="spacing" textLength="85.0649" x="1513" y="746.0669">Press [BANK]</text></g><!--reverse link MODE_PGM to Write_Memory--><g class="link" data-entity-1="MODE_PGM" data-entity-2="Write_Memory" data-source-line="67" data-uid="lnk36" id="link_MODE_PGM_Write_Memory"><path d="M1473.3247,295.0411 C1523.4347,321.9811 1591.51,367.9 1623,435 C1659.94,513.72 1611.98,619.75 1589.01,662.72" fill="none" id="MODE_PGM-backto-Write_Memory" style="stroke:#181818;stroke-width:1;"/><polygon fill="#181818" points="1468.04,292.2,1474.0729,299.9848,1472.4439,294.5676,1477.8611,292.9386,1468.04,292.2" style="stroke:#181818;stroke-width:1;"/></g><!--SRC=[bPDTQy8m58QlpQyui0jX8CFR8O9ZPPFP3pR5Yo6bM-CMrgRIHeOR_lSrfXz9anhdbJtdVSyvUKxoIM8CEDsn0yIuUC_9Zf6C8lHwlO7HQ0fpIXY94lA3uHQ2x1ldu7j8YSwI11Q-7q2stQePTxLqz6ZmuC9uD4P83lDUhd_lXExCGwXW4SFDDwyKqNsKd2883TkCv1gKlx9uZei2NlayLnj5MKjVd4NehLnPNUPlogasI54NE0dfFhKBcx9tC-z9blDlatRzF5ywdI4Y6iDZbiHdcmYZQACRHJk57cVDXTb77gKLFf6kv-LZm2yQY6XrPfXCC6Nv8SW8PTEfd7sBw5StNUOhNvUoo9my6YbKbvKDe0Mv510wDdldPwfhbVzDUszr2TuozPBeonosyWktMMlhmrba_rwwmMXREb8e6WvY6h2HxtSgKIDGWxeFgQhN2TW0cAqM1kgLqHzy7m6RlCj0w3iGpZ1GwxSKBe5Wyfumz58GpwTLgWzS7G4COV7U1XrXES4w9mo7Bawp_A3JELRy9SkPgPMLIHOhL2HFqRctIZaRT6MhikMolSgE_XxLAVy0]--></g></svg>