<svg xmlns="http://www.w3.org/2000/svg" xmlns:xlink="http://www.w3.org/1999/xlink" contentStyleType="text/css" data-diagram-type="STATE" height="989px" preserveAspectRatio="none" style="width:2061px;height:989px;background:#FFFFFF;" version="1.1" viewBox="0 0 2061 989" width="2061px" zoomAndPan="magnify"><defs/><g><!--cluster SEL_BANK_NUM--><g class="cluster" data-entity="SEL_BANK_NUM" data-source-line="22" data-uid="ent0004" id="cluster_SEL_BANK_NUM"><path d="M535,402 L1559.5,402 A12.5,12.5 0 0 1 1572,414.5 L1572,425.3203 L522.5,425.3203 L522.5,414.5 A12.5,12.5 0 0 1 535,402" fill="#F1F1F1"/><rect fill="none" height="223" rx="12.5" ry="12.5" style="stroke:#181818;stroke-width:0.5;" width="1049.5" x="522.5" y="402"/><line style="stroke:#181818;stroke-width:0.5;" x1="522.5" x2="1572" y1="425.3203" y2="425.3203"/><text fill="#000000" font-family="sans-serif" font-size="14" lengthAdjust="spacing" textLength="109.4365" x="992.5317" y="421.6016">SEL_BANK_NUM</text></g><!--cluster WRITE_BANK_NUM--><g class="cluster" data-entity="WRITE_BANK_NUM" data-source-line="63" data-uid="ent0012" id="cluster_WRITE_BANK_NUM"><path d="M406,722 L882.5,722 A12.5,12.5 0 0 1 895,734.5 L895,745.3203 L393.5,745.3203 L393.5,734.5 A12.5,12.5 0 0 1 406,722" fill="#F1F1F1"/><rect fill="none" height="261" rx="12.5" ry="12.5" style="stroke:#181818;stroke-width:0.5;" width="501.5" x="393.5" y="722"/><line style="stroke:#181818;stroke-width:0.5;" x1="393.5" x2="895" y1="745.3203" y2="745.3203"/><text fill="#000000" font-family="sans-serif" font-size="14" lengthAdjust="spacing" textLength="128.3857" x="580.0571" y="741.6016">WRITE_BANK_NUM</text></g><text fill="#000000" font-family="sans-serif" font-size="14" lengthAdjust="spacing" textLength="54.3184" x="1041.8408" y="380.2813">sel_num</text><ellipse cx="1069" cy="402" fill="#F1F1F1" rx="6" ry="6" style="stroke:#181818;stroke-width:1.5;"/><text fill="#000000" font-family="sans-serif" font-size="14" lengthAdjust="spacing" textLength="57.3535" x="880.8232" y="380.2813">sel_bank</text><ellipse cx="909.5" cy="402" fill="#F1F1F1" rx="6" ry="6" style="stroke:#181818;stroke-width:1.5;"/><rect fill="#F1F1F1" height="40" rx="12.5" ry="12.5" style="stroke:#181818;stroke-width:0.5;" width="124.3174" x="1098" y="488"/><text fill="#000000" font-family="sans-serif" font-size="14" lengthAdjust="spacing" textLength="114.3174" x="1103" y="513.4414">MODE_SEL_NUM</text><rect fill="#F1F1F1" height="40" rx="12.5" ry="12.5" style="stroke:#181818;stroke-width:0.5;" width="128.4258" x="846" y="488"/><text fill="#000000" font-family="sans-serif" font-size="14" lengthAdjust="spacing" textLength="118.4258" x="851" y="513.4414">MODE_SEL_BANK</text><text fill="#000000" font-family="sans-serif" font-size="14" lengthAdjust="spacing" textLength="111.0156" x="484.9922" y="645.6016">to_MODE_MAN0</text><ellipse cx="540.5" cy="625" fill="#F1F1F1" rx="6" ry="6" style="stroke:#181818;stroke-width:1.5;"/><line style="stroke:#181818;stroke-width:1.5;" x1="544.8891" x2="537.1109" y1="629.3891" y2="621.6109"/><line style="stroke:#181818;stroke-width:1.5;" x1="544.8891" x2="537.1109" y1="621.6109" y2="629.3891"/><text fill="#000000" font-family="sans-serif" font-size="14" lengthAdjust="spacing" textLength="153.5693" x="927.7153" y="645.6016">to_MODE_WRITE_NUM</text><ellipse cx="1004.5" cy="625" fill="#F1F1F1" rx="6" ry="6" style="stroke:#181818;stroke-width:1.5;"/><line style="stroke:#181818;stroke-width:1.5;" x1="1008.8891" x2="1001.1109" y1="629.3891" y2="621.6109"/><line style="stroke:#181818;stroke-width:1.5;" x1="1008.8891" x2="1001.1109" y1="621.6109" y2="629.3891"/><text fill="#000000" font-family="sans-serif" font-size="14" lengthAdjust="spacing" textLength="157.6777" x="612.1611" y="645.6016">to_MODE_WRITE_BANK</text><ellipse cx="691" cy="625" fill="#F1F1F1" rx="6" ry="6" style="stroke:#181818;stroke-width:1.5;"/><line style="stroke:#181818;stroke-width:1.5;" x1="695.3891" x2="687.6109" y1="629.3891" y2="621.6109"/><line style="stroke:#181818;stroke-width:1.5;" x1="695.3891" x2="687.6109" y1="621.6109" y2="629.3891"/><text fill="#000000" font-family="sans-serif" font-size="14" lengthAdjust="spacing" textLength="68.4072" x="800.7964" y="700.2813">write_num</text><ellipse cx="835" cy="722" fill="#F1F1F1" rx="6" ry="6" style="stroke:#181818;stroke-width:1.5;"/><text fill="#000000" font-family="sans-serif" font-size="14" lengthAdjust="spacing" textLength="71.4424" x="390.7788" y="700.2813">write_bank</text><ellipse cx="426.5" cy="722" fill="#F1F1F1" rx="6" ry="6" style="stroke:#181818;stroke-width:1.5;"/><rect fill="#F1F1F1" height="40" rx="12.5" ry="12.5" style="stroke:#181818;stroke-width:0.5;" width="143.2666" x="735.5" y="808"/><text fill="#000000" font-family="sans-serif" font-size="14" lengthAdjust="spacing" textLength="133.2666" x="740.5" y="833.4414">MODE_WRITE_NUM</text><rect fill="#F1F1F1" height="40" rx="12.5" ry="12.5" style="stroke:#181818;stroke-width:0.5;" width="147.375" x="464.5" y="808"/><text fill="#000000" font-family="sans-serif" font-size="14" lengthAdjust="spacing" textLength="137.375" x="469.5" y="833.4414">MODE_WRITE_BANK</text><text fill="#000000" font-family="sans-serif" font-size="14" lengthAdjust="spacing" textLength="111.0156" x="355.9922" y="967.6016">to_MODE_MAN1</text><ellipse cx="411.5" cy="947" fill="#F1F1F1" rx="6" ry="6" style="stroke:#181818;stroke-width:1.5;"/><line style="stroke:#181818;stroke-width:1.5;" x1="415.8891" x2="408.1109" y1="951.3891" y2="943.6109"/><line style="stroke:#181818;stroke-width:1.5;" x1="415.8891" x2="408.1109" y1="943.6109" y2="951.3891"/><rect fill="#F1F1F1" height="40" rx="12.5" ry="12.5" style="stroke:#181818;stroke-width:0.5;" width="105.0811" x="755.5" y="927"/><text fill="#000000" font-family="sans-serif" font-size="14" lengthAdjust="spacing" textLength="95.0811" x="760.5" y="952.4414">Write_Memory</text><g id="MODE_MAN"><rect fill="#F1F1F1" height="54.0234" rx="12.5" ry="12.5" style="stroke:#181818;stroke-width:0.5;" width="101.8945" x="475" y="251"/><line style="stroke:#181818;stroke-width:0.5;" x1="475" x2="576.8945" y1="279.3203" y2="279.3203"/><text fill="#000000" font-family="sans-serif" font-size="14" lengthAdjust="spacing" textLength="81.8945" x="485" y="270.6016">MODE_MAN</text><text fill="#000000" font-family="sans-serif" font-size="12" lengthAdjust="spacing" textLength="81.5039" x="480" y="296.8359">Manual MODE</text></g><g id="MODE_PGM"><rect fill="#F1F1F1" height="54.0234" rx="12.5" ry="12.5" style="stroke:#181818;stroke-width:0.5;" width="107.0469" x="1352.5" y="251"/><line style="stroke:#181818;stroke-width:0.5;" x1="1352.5" x2="1459.5469" y1="279.3203" y2="279.3203"/><text fill="#000000" font-family="sans-serif" font-size="14" lengthAdjust="spacing" textLength="81.5732" x="1365.2368" y="270.6016">MODE_PGM</text><text fill="#000000" font-family="sans-serif" font-size="12" lengthAdjust="spacing" textLength="87.0469" x="1357.5" y="296.8359">Program MODE</text></g><ellipse cx="526" cy="16" fill="#222222" rx="10" ry="10" style="stroke:#222222;stroke-width:1;"/><g id="Initialize"><rect fill="#F1F1F1" height="85.4297" rx="12.5" ry="12.5" style="stroke:#181818;stroke-width:0.5;" width="87.8926" x="482" y="105"/><line style="stroke:#181818;stroke-width:0.5;" x1="482" x2="569.8926" y1="133.3203" y2="133.3203"/><text fill="#000000" font-family="sans-serif" font-size="14" lengthAdjust="spacing" textLength="54.7559" x="498.5684" y="124.6016">Initialize</text><text fill="#000000" font-family="sans-serif" font-size="12" lengthAdjust="spacing" textLength="67.8926" x="487" y="150.8359">All LOOP off</text><text fill="#000000" font-family="sans-serif" font-size="12" lengthAdjust="spacing" textLength="51.8555" x="487" y="166.5391">MUTE off</text><text fill="#000000" font-family="sans-serif" font-size="12" lengthAdjust="spacing" textLength="49.8633" x="487" y="182.2422">PGM 1-1</text></g><!--link *start* to Initialize--><g class="link" data-entity-1=".start." data-entity-2="Initialize" data-source-line="4" data-uid="lnk4" id="link_.start._Initialize"><path d="M526,26.31 C526,42.55 526,70.97 526,98.83" fill="none" id="*start*-to-Initialize" style="stroke:#181818;stroke-width:1;"/><polygon fill="#181818" points="526,104.83,530,95.83,526,99.83,522,95.83,526,104.83" style="stroke:#181818;stroke-width:1;"/><text fill="#000000" font-family="sans-serif" font-size="13" lengthAdjust="spacing" textLength="61.5469" x="527" y="70.5586">Power ON</text></g><!--link Initialize to MODE_MAN--><g class="link" data-entity-1="Initialize" data-entity-2="MODE_MAN" data-source-line="10" data-uid="lnk5" id="link_Initialize_MODE_MAN"><path d="M526,190.22 C526,210.15 526,227.4 526,244.81" fill="none" id="Initialize-to-MODE_MAN" style="stroke:#181818;stroke-width:1;"/><polygon fill="#181818" points="526,250.81,530,241.81,526,245.81,522,241.81,526,250.81" style="stroke:#181818;stroke-width:1;"/></g><!--link MODE_MAN to sel_num--><g class="link" data-entity-1="MODE_MAN" data-entity-2="sel_num" data-source-line="14" data-uid="lnk6" id="link_MODE_MAN_sel_num"><path d="M577.18,286.45 C639.61,295.92 748.18,313.64 840,335 C885.74,345.64 1024.6781,387.5591 1056.8681,397.3191" fill="none" id="MODE_MAN-to-sel_num" style="stroke:#181818;stroke-width:1;"/><polygon fill="#181818" points="1062.61,399.06,1055.1578,392.6207,1057.8251,397.6092,1052.8366,400.2765,1062.61,399.06" style="stroke:#181818;stroke-width:1;"/><text fill="#000000" font-family="sans-serif" font-size="13" lengthAdjust="spacing" textLength="109.459" x="907" y="349.5586">Press [MAN/PGM]</text></g><!--link MODE_MAN to sel_bank--><g class="link" data-entity-1="MODE_MAN" data-entity-2="sel_bank" data-source-line="15" data-uid="lnk7" id="link_MODE_MAN_sel_bank"><path d="M577.39,295.33 C671.4,325.19 859.2521,384.872 897.5921,397.062" fill="none" id="MODE_MAN-to-sel_bank" style="stroke:#181818;stroke-width:1;"/><polygon fill="#181818" points="903.31,398.88,895.9451,392.341,898.545,397.365,893.5211,399.965,903.31,398.88" style="stroke:#181818;stroke-width:1;"/><text fill="#000000" font-family="sans-serif" font-size="13" lengthAdjust="spacing" textLength="78.6157" x="753" y="349.5586">Press [BANK]</text></g><!--link MODE_MAN to write_num--><g class="link" data-entity-1="MODE_MAN" data-entity-2="write_num" data-source-line="16" data-uid="lnk8" id="link_MODE_MAN_write_num"><path d="M474.84,284.45 C409,294.63 303,323.11 303,401 C303,401 303,401 303,626 C303,682.18 762.6445,715.9731 822.6645,720.1531" fill="none" id="MODE_MAN-to-write_num" style="stroke:#181818;stroke-width:1;"/><polygon fill="#181818" points="828.65,720.57,819.9496,715.9544,823.6621,720.2226,819.3938,723.9351,828.65,720.57" style="stroke:#181818;stroke-width:1;"/><text fill="#000000" font-family="sans-serif" font-size="13" lengthAdjust="spacing" textLength="168.6001" x="304" y="513.0586">Press and Hold [MAN/PGM]</text></g><!--link MODE_MAN to write_bank--><g class="link" data-entity-1="MODE_MAN" data-entity-2="write_bank" data-source-line="17" data-uid="lnk9" id="link_MODE_MAN_write_bank"><path d="M474.75,282.63 C360.32,292.14 94,322.68 94,401 C94,401 94,401 94,626 C94,696.49 367.4325,717.1621 414.3625,720.2021" fill="none" id="MODE_MAN-to-write_bank" style="stroke:#181818;stroke-width:1;"/><polygon fill="#181818" points="420.35,720.59,411.6274,716.0166,415.3605,720.2668,411.1103,723.9999,420.35,720.59" style="stroke:#181818;stroke-width:1;"/><text fill="#000000" font-family="sans-serif" font-size="13" lengthAdjust="spacing" textLength="137.7568" x="95" y="513.0586">Press and Hold [BANK]</text></g><!--link sel_num to MODE_SEL_NUM--><g class="link" data-entity-1="sel_num" data-entity-2="MODE_SEL_NUM" data-source-line="26" data-uid="lnk10" id="link_sel_num_MODE_SEL_NUM"><path d="M1073.39,408.02 C1085.82,422.22 1117.7791,458.7444 1139.2591,483.2944" fill="none" id="sel_num-to-MODE_SEL_NUM" style="stroke:#181818;stroke-width:1;"/><polygon fill="#181818" points="1143.21,487.81,1140.294,478.4027,1139.9176,484.047,1134.2733,483.6706,1143.21,487.81" style="stroke:#181818;stroke-width:1;"/></g><!--link sel_bank to MODE_SEL_BANK--><g class="link" data-entity-1="sel_bank" data-entity-2="MODE_SEL_BANK" data-source-line="27" data-uid="lnk11" id="link_sel_bank_MODE_SEL_BANK"><path d="M910,408.02 C910,422.22 910,457.26 910,481.81" fill="none" id="sel_bank-to-MODE_SEL_BANK" style="stroke:#181818;stroke-width:1;"/><polygon fill="#181818" points="910,487.81,914,478.81,910,482.81,906,478.81,910,487.81" style="stroke:#181818;stroke-width:1;"/></g><!--link MODE_SEL_NUM to MODE_SEL_BANK--><g class="link" data-entity-1="MODE_SEL_NUM" data-entity-2="MODE_SEL_BANK" data-source-line="32" data-uid="lnk12" id="link_MODE_SEL_NUM_MODE_SEL_BANK"><path d="M1097.97,526.14 C1090.62,527.72 1083.18,529.08 1076,530 C1040.74,534.54 1031.28,534.44 996,530 C988.97,529.11 987.5542,529.0621 980.3442,527.5621" fill="none" id="MODE_SEL_NUM-to-MODE_SEL_BANK" style="stroke:#181818;stroke-width:1;"/><polygon fill="#181818" points="974.47,526.34,982.4666,532.0893,979.3652,527.3584,984.0961,524.257,974.47,526.34" style="stroke:#181818;stroke-width:1;"/><text fill="#000000" font-family="sans-serif" font-size="13" lengthAdjust="spacing" textLength="78.6157" x="997" y="525.5586">Press [BANK]</text></g><!--link MODE_SEL_BANK to MODE_SEL_NUM--><g class="link" data-entity-1="MODE_SEL_BANK" data-entity-2="MODE_SEL_NUM" data-source-line="38" data-uid="lnk18" id="link_MODE_SEL_BANK_MODE_SEL_NUM"><path d="M974.19,489 C980,487.78 985.83,486.75 991.5,486 C1030.71,480.8 1041.3,480.68 1080.5,486 C1086.18,486.77 1086.1538,486.5801 1091.9738,487.8301" fill="none" id="MODE_SEL_BANK-to-MODE_SEL_NUM" style="stroke:#181818;stroke-width:1;"/><polygon fill="#181818" points="1097.84,489.09,1089.8806,483.2893,1092.9515,488.0401,1088.2007,491.1109,1097.84,489.09" style="stroke:#181818;stroke-width:1;"/><text fill="#000000" font-family="sans-serif" font-size="13" lengthAdjust="spacing" textLength="78.6157" x="997" y="475.5586">Press [BANK]</text></g><!--link MODE_SEL_BANK to MODE_SEL_NUM--><g class="link" data-entity-1="MODE_SEL_BANK" data-entity-2="MODE_SEL_NUM" data-source-line="39" data-uid="lnk19" id="link_MODE_SEL_BANK_MODE_SEL_NUM"><path d="M974.06,508 C1012.11,508 1054.13,508 1091.84,508" fill="none" id="MODE_SEL_BANK-to-MODE_SEL_NUM-1" style="stroke:#181818;stroke-width:1;"/><polygon fill="#181818" points="1097.84,508,1088.84,504,1092.84,508,1088.84,512,1097.84,508" style="stroke:#181818;stroke-width:1;"/><text fill="#000000" font-family="sans-serif" font-size="13" lengthAdjust="spacing" textLength="87.3057" x="992.5" y="500.5586">Press [LOOP#]</text></g><!--reverse link MODE_PGM to MODE_SEL_NUM--><g class="link" data-entity-1="MODE_PGM" data-entity-2="MODE_SEL_NUM" data-source-line="33" data-uid="lnk14" id="link_MODE_PGM_MODE_SEL_NUM"><path d="M1373.3793,309.2284 C1323.3993,355.5484 1224.86,446.89 1180.78,487.75" fill="none" id="MODE_PGM-backto-MODE_SEL_NUM" style="stroke:#181818;stroke-width:1;"/><polygon fill="#181818" points="1377.78,305.15,1368.46,308.3339,1374.1127,308.5487,1373.8979,314.2015,1377.78,305.15" style="stroke:#181818;stroke-width:1;"/><text fill="#000000" font-family="sans-serif" font-size="13" lengthAdjust="spacing" textLength="87.3057" x="1301" y="407.0586">Press [LOOP#]</text></g><!--link MODE_SEL_NUM to to_MODE_MAN0--><g class="link" data-entity-1="MODE_SEL_NUM" data-entity-2="to_MODE_MAN0" data-source-line="34" data-uid="lnk15" id="link_MODE_SEL_NUM_to_MODE_MAN0"><path d="M1097.79,519.13 C1066.13,524.25 1027.02,530.53 992,536 C927.6,546.06 908.38,536.07 847,558 C831.42,563.57 830.62,571.56 815,577 C721.4,609.62 690.68,585.11 594,607 C576.47,610.97 562.0558,616.0275 552.4058,619.6575" fill="none" id="MODE_SEL_NUM-to-to_MODE_MAN0" style="stroke:#181818;stroke-width:1;"/><polygon fill="#181818" points="546.79,621.77,556.622,622.3452,551.4698,620.0096,553.8054,614.8574,546.79,621.77" style="stroke:#181818;stroke-width:1;"/><text fill="#000000" font-family="sans-serif" font-size="13" lengthAdjust="spacing" textLength="109.459" x="848" y="572.5586">Press [MAN/PGM]</text></g><!--link MODE_SEL_NUM to to_MODE_WRITE_NUM--><g class="link" data-entity-1="MODE_SEL_NUM" data-entity-2="to_MODE_WRITE_NUM" data-source-line="35" data-uid="lnk16" id="link_MODE_SEL_NUM_to_MODE_WRITE_NUM"><path d="M1222.01,511.15 C1293.32,515.8 1395.66,530.52 1355,577 C1331.19,604.23 1059.8201,620.856 1016.6301,623.336" fill="none" id="MODE_SEL_NUM-to-to_MODE_WRITE_NUM" style="stroke:#181818;stroke-width:1;"/><polygon fill="#181818" points="1010.64,623.68,1019.8545,627.1575,1015.6318,623.3934,1019.3959,619.1706,1010.64,623.68" style="stroke:#181818;stroke-width:1;"/><text fill="#000000" font-family="sans-serif" font-size="13" lengthAdjust="spacing" textLength="168.6001" x="1365" y="572.5586">Press and Hold [MAN/PGM]</text></g><!--link MODE_SEL_NUM to to_MODE_WRITE_BANK--><g class="link" data-entity-1="MODE_SEL_NUM" data-entity-2="to_MODE_WRITE_BANK" data-source-line="36" data-uid="lnk17" id="link_MODE_SEL_NUM_to_MODE_WRITE_BANK"><path d="M1165.2,528 C1168.13,543.27 1169.09,564.2 1157,577 C1148.67,585.81 757.3796,618.5054 703.0996,622.9954" fill="none" id="MODE_SEL_NUM-to-to_MODE_WRITE_BANK" style="stroke:#181818;stroke-width:1;"/><polygon fill="#181818" points="697.12,623.49,706.4191,626.7344,702.103,623.0778,705.7596,618.7617,697.12,623.49" style="stroke:#181818;stroke-width:1;"/><text fill="#000000" font-family="sans-serif" font-size="13" lengthAdjust="spacing" textLength="137.7568" x="1166" y="572.5586">Press and Hold [BANK]</text></g><!--link MODE_SEL_BANK to to_MODE_MAN0--><g class="link" data-entity-1="MODE_SEL_BANK" data-entity-2="to_MODE_MAN0" data-source-line="40" data-uid="lnk20" id="link_MODE_SEL_BANK_to_MODE_MAN0"><path d="M867.83,528.03 C859.42,531.17 850.54,534.03 842,536 C809.97,543.37 570.43,534.95 547,558 C530.27,574.46 534.8961,600.7889 538.0761,613.1589" fill="none" id="MODE_SEL_BANK-to-to_MODE_MAN0" style="stroke:#181818;stroke-width:1;"/><polygon fill="#181818" points="539.57,618.97,541.2032,609.2575,538.3251,614.1275,533.4552,611.2493,539.57,618.97" style="stroke:#181818;stroke-width:1;"/><text fill="#000000" font-family="sans-serif" font-size="13" lengthAdjust="spacing" textLength="109.459" x="548" y="572.5586">Press [MAN/PGM]</text></g><!--link MODE_SEL_BANK to to_MODE_WRITE_NUM--><g class="link" data-entity-1="MODE_SEL_BANK" data-entity-2="to_MODE_WRITE_NUM" data-source-line="41" data-uid="lnk21" id="link_MODE_SEL_BANK_to_MODE_WRITE_NUM"><path d="M935.29,528.2 C945.52,536.67 957.01,547.17 966,558 C983,578.48 994.7019,601.8033 1000.1219,613.4133" fill="none" id="MODE_SEL_BANK-to-to_MODE_WRITE_NUM" style="stroke:#181818;stroke-width:1;"/><polygon fill="#181818" points="1002.66,618.85,1002.4774,609.0028,1000.5449,614.3194,995.2284,612.3869,1002.66,618.85" style="stroke:#181818;stroke-width:1;"/><text fill="#000000" font-family="sans-serif" font-size="13" lengthAdjust="spacing" textLength="168.6001" x="980" y="572.5586">Press and Hold [MAN/PGM]</text></g><!--link MODE_SEL_BANK to to_MODE_WRITE_BANK--><g class="link" data-entity-1="MODE_SEL_BANK" data-entity-2="to_MODE_WRITE_BANK" data-source-line="42" data-uid="lnk22" id="link_MODE_SEL_BANK_to_MODE_WRITE_BANK"><path d="M866.64,528.07 C858.57,531.09 850.12,533.9 842,536 C805.12,545.55 697.15,529.39 672,558 C656.1,576.09 673.3975,602.0244 682.9775,614.1344" fill="none" id="MODE_SEL_BANK-to-to_MODE_WRITE_BANK" style="stroke:#181818;stroke-width:1;"/><polygon fill="#181818" points="686.7,618.84,684.2533,609.2999,683.5979,614.9187,677.9791,614.2633,686.7,618.84" style="stroke:#181818;stroke-width:1;"/><text fill="#000000" font-family="sans-serif" font-size="13" lengthAdjust="spacing" textLength="137.7568" x="673" y="572.5586">Press and Hold [BANK]</text></g><!--link to_MODE_MAN0 to MODE_MAN--><g class="link" data-entity-1="to_MODE_MAN0" data-entity-2="MODE_MAN" data-source-line="45" data-uid="lnk23" id="link_to_MODE_MAN0_MODE_MAN"><path d="M539.25,618.86 C536.45,610.3 531.03,592.53 529,577 C515.95,477.22 520.6336,363.0288 523.8136,311.0488" fill="none" id="to_MODE_MAN0-to-MODE_MAN" style="stroke:#181818;stroke-width:1;"/><polygon fill="#181818" points="524.18,305.06,519.6379,313.799,523.8747,310.0507,527.623,314.2875,524.18,305.06" style="stroke:#181818;stroke-width:1;"/></g><!--link to_MODE_WRITE_NUM to write_num--><g class="link" data-entity-1="to_MODE_WRITE_NUM" data-entity-2="write_num" data-source-line="48" data-uid="lnk24" id="link_to_MODE_WRITE_NUM_write_num"><path d="M998.13,629.84 C970.42,645.32 872.4371,700.072 846.2871,714.692" fill="none" id="to_MODE_WRITE_NUM-to-write_num" style="stroke:#181818;stroke-width:1;"/><polygon fill="#181818" points="841.05,717.62,850.8576,716.7194,845.4142,715.18,846.9537,709.7367,841.05,717.62" style="stroke:#181818;stroke-width:1;"/></g><!--link to_MODE_WRITE_BANK to write_bank--><g class="link" data-entity-1="to_MODE_WRITE_BANK" data-entity-2="write_bank" data-source-line="51" data-uid="lnk25" id="link_to_MODE_WRITE_BANK_write_bank"><path d="M684.99,628.16 C649.53,640.92 473.6458,704.219 438.5358,716.849" fill="none" id="to_MODE_WRITE_BANK-to-write_bank" style="stroke:#181818;stroke-width:1;"/><polygon fill="#181818" points="432.89,718.88,442.7127,719.5975,437.5948,717.1875,440.0048,712.0697,432.89,718.88" style="stroke:#181818;stroke-width:1;"/></g><!--reverse link MODE_MAN to MODE_PGM--><g class="link" data-entity-1="MODE_MAN" data-entity-2="MODE_PGM" data-source-line="55" data-uid="lnk27" id="link_MODE_MAN_MODE_PGM"><path d="M583.12,278 C737.82,278 1194.08,278 1352.24,278" fill="none" id="MODE_MAN-backto-MODE_PGM" style="stroke:#181818;stroke-width:1;"/><polygon fill="#181818" points="577.12,278,586.12,282,582.12,278,586.12,274,577.12,278" style="stroke:#181818;stroke-width:1;"/><text fill="#000000" font-family="sans-serif" font-size="13" lengthAdjust="spacing" textLength="109.459" x="910.25" y="270.5586">Press [MAN/PGM]</text></g><!--link MODE_PGM to sel_bank--><g class="link" data-entity-1="MODE_PGM" data-entity-2="sel_bank" data-source-line="56" data-uid="lnk28" id="link_MODE_PGM_sel_bank"><path d="M1352.33,285.72 C1289.32,294.26 1181.98,310.85 1092,335 C1020.58,354.17 943.0101,386.7553 921.0601,396.2153" fill="none" id="MODE_PGM-to-sel_bank" style="stroke:#181818;stroke-width:1;"/><polygon fill="#181818" points="915.55,398.59,925.3982,398.7013,920.1417,396.6111,922.2319,391.3545,915.55,398.59" style="stroke:#181818;stroke-width:1;"/><text fill="#000000" font-family="sans-serif" font-size="13" lengthAdjust="spacing" textLength="78.6157" x="1093" y="349.5586">Press [BANK]</text></g><!--link MODE_PGM to write_num--><g class="link" data-entity-1="MODE_PGM" data-entity-2="write_num" data-source-line="57" data-uid="lnk29" id="link_MODE_PGM_write_num"><path d="M1459.79,283.34 C1572.69,293.94 1824,325.97 1824,401 C1824,401 1824,401 1824,626 C1824,731.22 931.5495,722.2469 847.3195,721.1669" fill="none" id="MODE_PGM-to-write_num" style="stroke:#181818;stroke-width:1;"/><polygon fill="#181818" points="841.32,721.09,850.268,725.2051,846.3196,721.1541,850.3705,717.2057,841.32,721.09" style="stroke:#181818;stroke-width:1;"/><text fill="#000000" font-family="sans-serif" font-size="13" lengthAdjust="spacing" textLength="168.6001" x="1825" y="513.0586">Press and Hold [MAN/PGM]</text></g><!--link MODE_PGM to write_bank--><g class="link" data-entity-1="MODE_PGM" data-entity-2="write_bank" data-source-line="58" data-uid="lnk30" id="link_MODE_PGM_write_bank"><path d="M1459.55,286.6 C1521.48,298.77 1615,329.05 1615,401 C1615,401 1615,401 1615,626 C1615,680.34 2054.97,616.28 789,696 C643.76,705.15 471.8639,717.7004 438.5139,720.1504" fill="none" id="MODE_PGM-to-write_bank" style="stroke:#181818;stroke-width:1;"/><polygon fill="#181818" points="432.53,720.59,441.7989,723.9199,437.5166,720.2237,441.2127,715.9414,432.53,720.59" style="stroke:#181818;stroke-width:1;"/><text fill="#000000" font-family="sans-serif" font-size="13" lengthAdjust="spacing" textLength="137.7568" x="1616" y="513.0586">Press and Hold [BANK]</text></g><!--link write_num to MODE_WRITE_NUM--><g class="link" data-entity-1="write_num" data-entity-2="MODE_WRITE_NUM" data-source-line="67" data-uid="lnk31" id="link_write_num_MODE_WRITE_NUM"><path d="M833.65,728.02 C829.83,742.22 820.3399,777.4663 813.7299,802.0163" fill="none" id="write_num-to-MODE_WRITE_NUM" style="stroke:#181818;stroke-width:1;"/><polygon fill="#181818" points="812.17,807.81,818.3723,800.1594,813.4699,802.9819,810.6474,798.0795,812.17,807.81" style="stroke:#181818;stroke-width:1;"/></g><!--link write_bank to MODE_WRITE_BANK--><g class="link" data-entity-1="write_bank" data-entity-2="MODE_WRITE_BANK" data-source-line="68" data-uid="lnk32" id="link_write_bank_MODE_WRITE_BANK"><path d="M432.35,728.02 C447.51,742.22 486.931,779.1583 513.141,803.7083" fill="none" id="write_bank-to-MODE_WRITE_BANK" style="stroke:#181818;stroke-width:1;"/><polygon fill="#181818" points="517.52,807.81,513.6859,798.7381,513.8708,804.3919,508.217,804.5768,517.52,807.81" style="stroke:#181818;stroke-width:1;"/></g><!--link MODE_WRITE_NUM to Write_Memory--><g class="link" data-entity-1="MODE_WRITE_NUM" data-entity-2="Write_Memory" data-source-line="73" data-uid="lnk34" id="link_MODE_WRITE_NUM_Write_Memory"><path d="M807.16,848.06 C807.35,869.82 807.5976,899.2002 807.7876,920.9502" fill="none" id="MODE_WRITE_NUM-to-Write_Memory" style="stroke:#181818;stroke-width:1;"/><polygon fill="#181818" points="807.84,926.95,811.7612,917.9154,807.7963,921.9502,803.7615,917.9853,807.84,926.95" style="stroke:#181818;stroke-width:1;"/><text fill="#000000" font-family="sans-serif" font-size="13" lengthAdjust="spacing" textLength="87.3057" x="808" y="892.5586">Press [LOOP#]</text></g><!--link MODE_WRITE_NUM to MODE_WRITE_BANK--><g class="link" data-entity-1="MODE_WRITE_NUM" data-entity-2="MODE_WRITE_BANK" data-source-line="74" data-uid="lnk35" id="link_MODE_WRITE_NUM_MODE_WRITE_BANK"><path d="M735.32,846.63 C727.99,848 720.62,849.17 713.5,850 C678.18,854.1 668.83,854.02 633.5,850 C626.4,849.19 624.9631,849.134 617.6531,847.804" fill="none" id="MODE_WRITE_NUM-to-MODE_WRITE_BANK" style="stroke:#181818;stroke-width:1;"/><polygon fill="#181818" points="611.75,846.73,619.8886,852.2764,616.6692,847.625,621.3207,844.4056,611.75,846.73" style="stroke:#181818;stroke-width:1;"/><text fill="#000000" font-family="sans-serif" font-size="13" lengthAdjust="spacing" textLength="78.6157" x="634.5" y="845.5586">Press [BANK]</text></g><!--link MODE_WRITE_BANK to MODE_WRITE_NUM--><g class="link" data-entity-1="MODE_WRITE_BANK" data-entity-2="MODE_WRITE_NUM" data-source-line="77" data-uid="lnk37" id="link_MODE_WRITE_BANK_MODE_WRITE_NUM"><path d="M611.51,828 C650.08,828 691.16,828 729.44,828" fill="none" id="MODE_WRITE_BANK-to-MODE_WRITE_NUM" style="stroke:#181818;stroke-width:1;"/><polygon fill="#181818" points="735.44,828,726.44,824,730.44,828,726.44,832,735.44,828" style="stroke:#181818;stroke-width:1;"/><text fill="#000000" font-family="sans-serif" font-size="13" lengthAdjust="spacing" textLength="87.3057" x="630" y="820.5586">Press [LOOP#]</text></g><!--link MODE_WRITE_BANK to MODE_WRITE_NUM--><g class="link" data-entity-1="MODE_WRITE_BANK" data-entity-2="MODE_WRITE_NUM" data-source-line="79" data-uid="lnk39" id="link_MODE_WRITE_BANK_MODE_WRITE_NUM"><path d="M611.73,808.63 C617.55,807.57 623.35,806.67 629,806 C668.28,801.32 678.73,801.22 718,806 C723.69,806.69 723.6415,806.531 729.4915,807.621" fill="none" id="MODE_WRITE_BANK-to-MODE_WRITE_NUM-1" style="stroke:#181818;stroke-width:1;"/><polygon fill="#181818" points="735.39,808.72,727.275,803.1391,730.4746,807.8041,725.8096,811.0038,735.39,808.72" style="stroke:#181818;stroke-width:1;"/><text fill="#000000" font-family="sans-serif" font-size="13" lengthAdjust="spacing" textLength="78.6157" x="634.5" y="795.5586">Press [BANK]</text></g><!--link MODE_WRITE_NUM to to_MODE_MAN1--><g class="link" data-entity-1="MODE_WRITE_NUM" data-entity-2="to_MODE_MAN1" data-source-line="75" data-uid="lnk36" id="link_MODE_WRITE_NUM_to_MODE_MAN1"><path d="M747.34,848.08 C701.95,862.33 637.82,881.86 581,897 C524.12,912.15 507.57,907.59 452,927 C439.23,931.46 430.3787,935.8993 422.7987,940.0293" fill="none" id="MODE_WRITE_NUM-to-to_MODE_MAN1" style="stroke:#181818;stroke-width:1;"/><polygon fill="#181818" points="417.53,942.9,427.3468,942.1065,421.9206,940.5078,423.5193,935.0815,417.53,942.9" style="stroke:#181818;stroke-width:1;"/><text fill="#000000" font-family="sans-serif" font-size="13" lengthAdjust="spacing" textLength="109.459" x="644" y="892.5586">Press [MAN/PGM]</text></g><!--link MODE_WRITE_BANK to to_MODE_MAN1--><g class="link" data-entity-1="MODE_WRITE_BANK" data-entity-2="to_MODE_MAN1" data-source-line="78" data-uid="lnk38" id="link_MODE_WRITE_BANK_to_MODE_MAN1"><path d="M505.63,848.05 C492.65,856.43 477.96,866.89 466,878 C443.69,898.73 426.2463,924.0535 418.4963,935.9435" fill="none" id="MODE_WRITE_BANK-to-to_MODE_MAN1" style="stroke:#181818;stroke-width:1;"/><polygon fill="#181818" points="415.22,940.97,423.4855,935.6145,417.9503,936.7812,416.7835,931.246,415.22,940.97" style="stroke:#181818;stroke-width:1;"/><text fill="#000000" font-family="sans-serif" font-size="13" lengthAdjust="spacing" textLength="109.459" x="467" y="892.5586">Press [MAN/PGM]</text></g><!--link to_MODE_MAN1 to MODE_MAN--><g class="link" data-entity-1="to_MODE_MAN1" data-entity-2="MODE_MAN" data-source-line="82" data-uid="lnk40" id="link_to_MODE_MAN1_MODE_MAN"><path d="M405.29,945.58 C352.5,942.07 6,915.74 6,829 C6,401 6,401 6,401 C6,305.37 337.5334,284.8429 468.7234,280.4029" fill="none" id="to_MODE_MAN1-to-MODE_MAN" style="stroke:#181818;stroke-width:1;"/><polygon fill="#181818" points="474.72,280.2,465.5899,276.5067,469.7229,280.3691,465.8604,284.5021,474.72,280.2" style="stroke:#181818;stroke-width:1;"/></g><!--reverse link MODE_PGM to Write_Memory--><g class="link" data-entity-1="MODE_PGM" data-entity-2="Write_Memory" data-source-line="85" data-uid="lnk42" id="link_MODE_PGM_Write_Memory"><path d="M1465.5261,284.0745 C1619.5861,297.8545 2047,341.39 2047,401 C2047,401 2047,401 2047,829 C2047,889.53 1097.33,933.75 860.84,943.83" fill="none" id="MODE_PGM-backto-Write_Memory" style="stroke:#181818;stroke-width:1;"/><polygon fill="#181818" points="1459.55,283.54,1468.1579,288.3259,1464.5301,283.9854,1468.8706,280.3577,1459.55,283.54" style="stroke:#181818;stroke-width:1;"/></g><!--SRC=[dLJ9JiCm43t7Ns696r85kQAgKX4HL3IBe5KFg8e2SS4YIvMuAWNnxzXP74-S1JXwvhrPtdZcZOO4atZFJZWa-Kj6zuoc2K9FvriycSpm8g6C1X7z9FWAU-cHPDXr4B3EemWlNTV3wMu7FVPwPUbMxzR6viH4I3MBNBPxO_dst44ePm4ZyYqY1SaXY0eBGj8kI3c9_EGG6uR18sSap_4JTrtm95iT-1maxuOAlPuxzotSCQECj486IOZlqYZiYrrookWwfqm2kX8Q263wcWLnrLRfVhIMlY3upjh6NyWehLMNU3eb2SjENaeJDfkfNf6yxUR-YYVb5U5vvD9JS81BP4PrM9M0DQE0Oeu5g7OiJUeM_B2l6LmHTJ3YGvrfS0vcgLzBVzavTAsWch5vMAmiOHoSwmWTDgNDs83oj5GVK6C4hibHuZKzXkIeK_nNZsx-c23bhr6h5B_qWpBvXu4Fte4MMrRS5w81W4tk2LGqD1X9gjmiE4BVrGKIEpo9o8uf9VUVeG8Dpr3N5QfXVxb2a3DsXUf3qtG8JutCt7DicYmQ01aDMGvIpgJsmglJb07lJZFA3ZEuFN3ecoA7JU8qE_KjaCBGgkXUKPX3-R5cry012MnsitD3bNKjjzcxsxzBKtNJiP3cm4AQS27vrrVrRTrl_hL-0000]--></g></svg>