<svg xmlns="http://www.w3.org/2000/svg" xmlns:xlink="http://www.w3.org/1999/xlink" contentStyleType="text/css" data-diagram-type="STATE" height="747px" preserveAspectRatio="none" style="width:1883px;height:747px;background:#FFFFFF;" version="1.1" viewBox="0 0 1883 747" width="1883px" zoomAndPan="magnify"><defs/><g><!--cluster SEL_BANK_NUM--><g class="cluster" data-entity="SEL_BANK_NUM" data-source-line="30" data-uid="ent0004" id="cluster_SEL_BANK_NUM"><path d="M482.77,355 L875.77,355 A12.5,12.5 0 0 1 888.27,367.5 L888.27,376.2969 L470.27,376.2969 L470.27,367.5 A12.5,12.5 0 0 1 482.77,355" fill="#F1F1F1"/><rect fill="none" height="267" rx="12.5" ry="12.5" style="stroke:#181818;stroke-width:0.5;" width="418" x="470.27" y="355"/><line style="stroke:#181818;stroke-width:0.5;" x1="470.27" x2="888.27" y1="376.2969" y2="376.2969"/><text fill="#000000" font-family="sans-serif" font-size="14" lengthAdjust="spacing" textLength="111.166" x="623.687" y="371.9951">SEL_BANK_NUM</text></g><!--cluster WRITE_BANK_NUM--><g class="cluster" data-entity="WRITE_BANK_NUM" data-source-line="47" data-uid="ent0007" id="cluster_WRITE_BANK_NUM"><path d="M1256.77,512 L1652.77,512 A12.5,12.5 0 0 1 1665.27,524.5 L1665.27,533.2969 L1244.27,533.2969 L1244.27,524.5 A12.5,12.5 0 0 1 1256.77,512" fill="#F1F1F1"/><rect fill="none" height="229" rx="12.5" ry="12.5" style="stroke:#181818;stroke-width:0.5;" width="421" x="1244.27" y="512"/><line style="stroke:#181818;stroke-width:0.5;" x1="1244.27" x2="1665.27" y1="533.2969" y2="533.2969"/><text fill="#000000" font-family="sans-serif" font-size="14" lengthAdjust="spacing" textLength="130.7305" x="1389.4048" y="528.9951">WRITE_BANK_NUM</text></g><rect fill="#F1F1F1" height="40" rx="12.5" ry="12.5" style="stroke:#181818;stroke-width:0.5;" width="125.0557" x="731.77" y="409"/><text fill="#000000" font-family="sans-serif" font-size="14" lengthAdjust="spacing" textLength="115.0557" x="736.77" y="433.8467">MODE_SEL_NUM</text><rect fill="#F1F1F1" height="40" rx="12.5" ry="12.5" style="stroke:#181818;stroke-width:0.5;" width="131.0918" x="709.77" y="566"/><text fill="#000000" font-family="sans-serif" font-size="14" lengthAdjust="spacing" textLength="121.0918" x="714.77" y="590.8467">MODE_SEL_BANK</text><rect fill="#F1F1F1" height="40" rx="12.5" ry="12.5" style="stroke:#181818;stroke-width:0.5;" width="144.6201" x="1260.77" y="566"/><text fill="#000000" font-family="sans-serif" font-size="14" lengthAdjust="spacing" textLength="134.6201" x="1265.77" y="590.8467">MODE_WRITE_NUM</text><rect fill="#F1F1F1" height="40" rx="12.5" ry="12.5" style="stroke:#181818;stroke-width:0.5;" width="150.6563" x="1260.77" y="685"/><text fill="#000000" font-family="sans-serif" font-size="14" lengthAdjust="spacing" textLength="140.6563" x="1265.77" y="709.8467">MODE_WRITE_BANK</text><rect fill="#F1F1F1" height="40" rx="12.5" ry="12.5" style="stroke:#181818;stroke-width:0.5;" width="111.5273" x="1537.27" y="566"/><text fill="#000000" font-family="sans-serif" font-size="14" lengthAdjust="spacing" textLength="101.5273" x="1542.27" y="590.8467">Write_Memory</text><g id="MODE_MAN"><rect fill="#F1F1F1" height="50.2656" rx="12.5" ry="12.5" style="stroke:#181818;stroke-width:0.5;" width="104.041" x="601.27" y="242"/><line style="stroke:#181818;stroke-width:0.5;" x1="601.27" x2="705.311" y1="268.2969" y2="268.2969"/><text fill="#000000" font-family="sans-serif" font-size="14" lengthAdjust="spacing" textLength="81.8535" x="612.3638" y="259.9951">MODE_MAN</text><text fill="#000000" font-family="sans-serif" font-size="12" lengthAdjust="spacing" textLength="84.041" x="606.27" y="284.4355">Manual MODE</text></g><g id="MODE_PGM"><rect fill="#F1F1F1" height="50.2656" rx="12.5" ry="12.5" style="stroke:#181818;stroke-width:0.5;" width="111.541" x="1396.27" y="242"/><line style="stroke:#181818;stroke-width:0.5;" x1="1396.27" x2="1507.811" y1="268.2969" y2="268.2969"/><text fill="#000000" font-family="sans-serif" font-size="14" lengthAdjust="spacing" textLength="81.0947" x="1411.4931" y="259.9951">MODE_PGM</text><text fill="#000000" font-family="sans-serif" font-size="12" lengthAdjust="spacing" textLength="91.541" x="1401.27" y="284.4355">Program MODE</text></g><ellipse cx="653.27" cy="16" fill="#222222" rx="10" ry="10" style="stroke:#222222;stroke-width:1;"/><g id="Initialize"><rect fill="#F1F1F1" height="78.2031" rx="12.5" ry="12.5" style="stroke:#181818;stroke-width:0.5;" width="91.1094" x="607.77" y="103"/><line style="stroke:#181818;stroke-width:0.5;" x1="607.77" x2="698.8794" y1="129.2969" y2="129.2969"/><text fill="#000000" font-family="sans-serif" font-size="14" lengthAdjust="spacing" textLength="58.5908" x="624.0293" y="120.9951">Initialize</text><text fill="#000000" font-family="sans-serif" font-size="12" lengthAdjust="spacing" textLength="71.1094" x="612.77" y="145.4355">All LOOP off</text><text fill="#000000" font-family="sans-serif" font-size="12" lengthAdjust="spacing" textLength="53.6543" x="612.77" y="159.4043">MUTE off</text><text fill="#000000" font-family="sans-serif" font-size="12" lengthAdjust="spacing" textLength="50.3027" x="612.77" y="173.373">PGM 1-1</text></g><!--link *start* to Initialize--><g class="link" data-entity-1=".start." data-entity-2="Initialize" data-source-line="4" data-uid="lnk4" id="link_.start._Initialize"><path d="M653.27,26.32 C653.27,42.37 653.27,70.09 653.27,96.83" fill="none" id="*start*-to-Initialize" style="stroke:#181818;stroke-width:1;"/><polygon fill="#181818" points="653.27,102.83,657.27,93.83,653.27,97.83,649.27,93.83,653.27,102.83" style="stroke:#181818;stroke-width:1;"/><text fill="#000000" font-family="sans-serif" font-size="13" lengthAdjust="spacing" textLength="63.8574" x="654.27" y="69.0669">Power ON</text></g><!--link Initialize to MODE_MAN--><g class="link" data-entity-1="Initialize" data-entity-2="MODE_MAN" data-source-line="10" data-uid="lnk5" id="link_Initialize_MODE_MAN"><path d="M653.27,181.24 C653.27,200.99 653.27,218.49 653.27,235.73" fill="none" id="Initialize-to-MODE_MAN" style="stroke:#181818;stroke-width:1;"/><polygon fill="#181818" points="653.27,241.73,657.27,232.73,653.27,236.73,649.27,232.73,653.27,241.73" style="stroke:#181818;stroke-width:1;"/></g><!--link MODE_MAN to MODE_SEL_NUM--><g class="link" data-entity-1="MODE_MAN" data-entity-2="MODE_SEL_NUM" data-source-line="15" data-uid="lnk6" id="link_MODE_MAN_MODE_SEL_NUM"><path d="M644.74,292.29 C641.1,307.36 639.79,326.22 650.27,339 C661.77,353.02 673.79,339.45 690.27,347 C723.56,362.25 751.5264,385.9303 771.0764,404.6503" fill="none" id="MODE_MAN-to-MODE_SEL_NUM" style="stroke:#181818;stroke-width:1;"/><polygon fill="#181818" points="775.41,408.8,771.676,399.6864,771.7986,405.342,766.1431,405.4646,775.41,408.8" style="stroke:#181818;stroke-width:1;"/><text fill="#000000" font-family="sans-serif" font-size="13" lengthAdjust="spacing" textLength="112.3472" x="651.27" y="335.0669">Press [MAN/PGM]</text></g><!--reverse link MODE_MAN to MODE_SEL_NUM--><g class="link" data-entity-1="MODE_MAN" data-entity-2="MODE_SEL_NUM" data-source-line="37" data-uid="lnk19" id="link_MODE_MAN_MODE_SEL_NUM"><path d="M711.0882,283.5394 C733.4182,291.7894 752.34,302.55 768.27,322 C788.8,347.07 793.5,385.94 794.37,408.99" fill="none" id="MODE_MAN-backto-MODE_SEL_NUM" style="stroke:#181818;stroke-width:1;"/><polygon fill="#181818" points="705.46,281.46,712.516,288.3312,710.1501,283.1928,715.2885,280.8269,705.46,281.46" style="stroke:#181818;stroke-width:1;"/><text fill="#000000" font-family="sans-serif" font-size="13" lengthAdjust="spacing" textLength="112.3472" x="778.27" y="335.0669">Press [MAN/PGM]</text></g><!--link MODE_MAN to MODE_SEL_BANK--><g class="link" data-entity-1="MODE_MAN" data-entity-2="MODE_SEL_BANK" data-source-line="16" data-uid="lnk7" id="link_MODE_MAN_MODE_SEL_BANK"><path d="M639.75,292.08 C619.06,327.98 577.31,396.87 533.27,449 C516.96,468.3 486.42,475.56 501.27,496 C548.61,561.14 638.7956,579.1172 703.6456,583.8072" fill="none" id="MODE_MAN-to-MODE_SEL_BANK" style="stroke:#181818;stroke-width:1;"/><polygon fill="#181818" points="709.63,584.24,700.942,579.6012,704.643,583.8793,700.3649,587.5804,709.63,584.24" style="stroke:#181818;stroke-width:1;"/><text fill="#000000" font-family="sans-serif" font-size="13" lengthAdjust="spacing" textLength="85.0649" x="606.27" y="433.5669">Press [BANK]</text></g><!--reverse link MODE_MAN to MODE_SEL_BANK--><g class="link" data-entity-1="MODE_MAN" data-entity-2="MODE_SEL_BANK" data-source-line="43" data-uid="lnk25" id="link_MODE_MAN_MODE_SEL_BANK"><path d="M595.0716,268.7526 C537.8616,272.3126 454.48,287.44 411.27,347 C384.65,383.69 388.86,409.59 411.27,449 C470.3,552.8 621.71,578.08 709.54,583.79" fill="none" id="MODE_MAN-backto-MODE_SEL_BANK" style="stroke:#181818;stroke-width:1;"/><polygon fill="#181818" points="601.06,268.38,591.8289,264.9467,596.0697,268.6905,592.3258,272.9312,601.06,268.38" style="stroke:#181818;stroke-width:1;"/><text fill="#000000" font-family="sans-serif" font-size="13" lengthAdjust="spacing" textLength="112.3472" x="412.27" y="433.5669">Press [MAN/PGM]</text></g><!--link MODE_MAN to MODE_WRITE_NUM--><g class="link" data-entity-1="MODE_MAN" data-entity-2="MODE_WRITE_NUM" data-source-line="17" data-uid="lnk8" id="link_MODE_MAN_MODE_WRITE_NUM"><path d="M705.36,267.49 C758.9,269.5 842.27,279.95 899.27,322 C951.49,360.52 916.7,413.9 971.27,449 C1035.07,490.03 1254.6,428.58 1311.27,479 C1335.56,500.61 1337.4611,535.4328 1335.8811,559.6228" fill="none" id="MODE_MAN-to-MODE_WRITE_NUM" style="stroke:#181818;stroke-width:1;"/><polygon fill="#181818" points="1335.49,565.61,1340.0681,556.8898,1335.8159,560.6206,1332.0851,556.3684,1335.49,565.61" style="stroke:#181818;stroke-width:1;"/><text fill="#000000" font-family="sans-serif" font-size="13" lengthAdjust="spacing" textLength="174.6621" x="972.27" y="433.5669">Press and Hold [MAN/PGM]</text></g><!--reverse link MODE_MAN to MODE_WRITE_NUM--><g class="link" data-entity-1="MODE_MAN" data-entity-2="MODE_WRITE_NUM" data-source-line="55" data-uid="lnk32" id="link_MODE_MAN_MODE_WRITE_NUM"><path d="M711.4748,269.7391 C794.9948,273.2091 957.21,284.42 1094.27,322 C1120.95,329.31 1129.68,329.71 1151.27,347 C1195.2,382.16 1179.64,417.51 1226.27,449 C1270.76,479.04 1310.36,436.59 1343.27,479 C1362.65,503.97 1351.68,542.88 1342.26,565.96" fill="none" id="MODE_MAN-backto-MODE_WRITE_NUM" style="stroke:#181818;stroke-width:1;"/><polygon fill="#181818" points="705.48,269.49,714.3062,273.8602,710.4757,269.6976,714.6383,265.867,705.48,269.49" style="stroke:#181818;stroke-width:1;"/><text fill="#000000" font-family="sans-serif" font-size="13" lengthAdjust="spacing" textLength="112.3472" x="1227.27" y="433.5669">Press [MAN/PGM]</text></g><!--link MODE_MAN to MODE_WRITE_BANK--><g class="link" data-entity-1="MODE_MAN" data-entity-2="MODE_WRITE_BANK" data-source-line="18" data-uid="lnk9" id="link_MODE_MAN_MODE_WRITE_BANK"><path d="M601.04,267.76 C446.24,269.34 6,291.57 93.27,496 C133.38,589.96 165.36,614.78 259.27,655 C350.57,694.1 1024.8201,702.009 1254.6601,703.579" fill="none" id="MODE_MAN-to-MODE_WRITE_BANK" style="stroke:#181818;stroke-width:1;"/><polygon fill="#181818" points="1260.66,703.62,1251.6875,699.5586,1255.6601,703.5858,1251.6329,707.5584,1260.66,703.62" style="stroke:#181818;stroke-width:1;"/><text fill="#000000" font-family="sans-serif" font-size="13" lengthAdjust="spacing" textLength="147.3799" x="94.27" y="492.0669">Press and Hold [BANK]</text></g><!--reverse link MODE_MAN to MODE_WRITE_BANK--><g class="link" data-entity-1="MODE_MAN" data-entity-2="MODE_WRITE_BANK" data-source-line="60" data-uid="lnk37" id="link_MODE_MAN_MODE_WRITE_BANK"><path d="M595.0179,271.7182 C543.6879,276.6882 470.51,288.93 410.27,322 C332.66,364.61 276.19,415.6 313.27,496 C351.69,579.3 385.63,594.62 470.27,630 C612.11,689.28 1076.74,701.07 1260.5,703.42" fill="none" id="MODE_MAN-backto-MODE_WRITE_BANK" style="stroke:#181818;stroke-width:1;"/><polygon fill="#181818" points="600.99,271.14,591.6464,268.026,596.0133,271.6219,592.4174,275.9887,600.99,271.14" style="stroke:#181818;stroke-width:1;"/><text fill="#000000" font-family="sans-serif" font-size="13" lengthAdjust="spacing" textLength="112.3472" x="314.27" y="492.0669">Press [MAN/PGM]</text></g><!--reverse link MODE_MAN to MODE_PGM--><g class="link" data-entity-1="MODE_MAN" data-entity-2="MODE_PGM" data-source-line="24" data-uid="lnk11" id="link_MODE_MAN_MODE_PGM"><path d="M711.39,267 C854.75,267 1248.15,267 1396.16,267" fill="none" id="MODE_MAN-backto-MODE_PGM" style="stroke:#181818;stroke-width:1;"/><polygon fill="#181818" points="705.39,267,714.39,271,710.39,267,714.39,263,705.39,267" style="stroke:#181818;stroke-width:1;"/><text fill="#000000" font-family="sans-serif" font-size="13" lengthAdjust="spacing" textLength="112.3472" x="994.77" y="260.0669">Press [MAN/PGM]</text></g><!--link MODE_PGM to MODE_SEL_BANK--><g class="link" data-entity-1="MODE_PGM" data-entity-2="MODE_SEL_BANK" data-source-line="25" data-uid="lnk12" id="link_MODE_PGM_MODE_SEL_BANK"><path d="M1423.38,292 C1407.25,306.59 1387.75,326.34 1374.27,347 C1335.36,406.65 1373.54,455.04 1315.27,496 C1303.81,504.06 1077.11,501.87 1063.27,504 C979.34,516.94 890.8154,544.4432 833.7054,564.0332" fill="none" id="MODE_PGM-to-MODE_SEL_BANK" style="stroke:#181818;stroke-width:1;"/><polygon fill="#181818" points="828.03,565.98,837.8409,566.8434,832.7595,564.3577,835.2452,559.2762,828.03,565.98" style="stroke:#181818;stroke-width:1;"/><text fill="#000000" font-family="sans-serif" font-size="13" lengthAdjust="spacing" textLength="85.0649" x="1375.27" y="433.5669">Press [BANK]</text></g><!--link MODE_PGM to MODE_WRITE_NUM--><g class="link" data-entity-1="MODE_PGM" data-entity-2="MODE_WRITE_NUM" data-source-line="26" data-uid="lnk13" id="link_MODE_PGM_MODE_WRITE_NUM"><path d="M1459.95,292.2 C1469.9,327.37 1484.31,394.38 1469.27,449 C1454.65,502.12 1407.4378,540.0323 1372.1178,562.5723" fill="none" id="MODE_PGM-to-MODE_WRITE_NUM" style="stroke:#181818;stroke-width:1;"/><polygon fill="#181818" points="1367.06,565.8,1376.7986,564.3303,1371.2749,563.1102,1372.4949,557.5865,1367.06,565.8" style="stroke:#181818;stroke-width:1;"/><text fill="#000000" font-family="sans-serif" font-size="13" lengthAdjust="spacing" textLength="174.6621" x="1476.27" y="433.5669">Press and Hold [MAN/PGM]</text></g><!--link MODE_PGM to MODE_WRITE_BANK--><g class="link" data-entity-1="MODE_PGM" data-entity-2="MODE_WRITE_BANK" data-source-line="27" data-uid="lnk14" id="link_MODE_PGM_MODE_WRITE_BANK"><path d="M1508.49,272.89 C1554.64,278.95 1620.29,292.38 1670.27,322 C1683.26,329.7 1687.78,332.93 1693.27,347 C1739.17,464.67 1748.8,533.53 1667.27,630 C1634.92,668.28 1505.1672,687.7538 1417.8772,696.9138" fill="none" id="MODE_PGM-to-MODE_WRITE_BANK" style="stroke:#181818;stroke-width:1;"/><polygon fill="#181818" points="1411.91,697.54,1421.2783,700.5789,1416.8827,697.0182,1420.4434,692.6226,1411.91,697.54" style="stroke:#181818;stroke-width:1;"/><text fill="#000000" font-family="sans-serif" font-size="13" lengthAdjust="spacing" textLength="147.3799" x="1728.27" y="492.0669">Press and Hold [BANK]</text></g><!--link MODE_SEL_NUM to MODE_SEL_BANK--><g class="link" data-entity-1="MODE_SEL_NUM" data-entity-2="MODE_SEL_BANK" data-source-line="35" data-uid="lnk15" id="link_MODE_SEL_NUM_MODE_SEL_BANK"><path d="M731.59,441.54 C717.97,444.02 703.64,446.61 690.27,449 C652.08,455.82 543.24,449.3 518.27,479 C461.67,546.33 609.9371,570.9506 703.5071,579.8706" fill="none" id="MODE_SEL_NUM-to-MODE_SEL_BANK" style="stroke:#181818;stroke-width:1;"/><polygon fill="#181818" points="709.48,580.44,700.9002,575.604,704.5026,579.9655,700.141,583.5679,709.48,580.44" style="stroke:#181818;stroke-width:1;"/><text fill="#000000" font-family="sans-serif" font-size="13" lengthAdjust="spacing" textLength="85.0649" x="519.27" y="492.0669">Press [BANK]</text></g><!--link MODE_SEL_BANK to MODE_SEL_NUM--><g class="link" data-entity-1="MODE_SEL_BANK" data-entity-2="MODE_SEL_NUM" data-source-line="41" data-uid="lnk22" id="link_MODE_SEL_BANK_MODE_SEL_NUM"><path d="M719.07,565.96 C672.73,547.11 618.63,515.8 645.27,479 C655.89,464.33 689.8623,453.1076 725.6623,444.3376" fill="none" id="MODE_SEL_BANK-to-MODE_SEL_NUM" style="stroke:#181818;stroke-width:1;"/><polygon fill="#181818" points="731.49,442.91,721.7967,441.1663,726.6336,444.0997,723.7002,448.9366,731.49,442.91" style="stroke:#181818;stroke-width:1;"/><text fill="#000000" font-family="sans-serif" font-size="13" lengthAdjust="spacing" textLength="85.0649" x="646.27" y="492.0669">Press [BANK]</text></g><!--link MODE_SEL_BANK to MODE_SEL_NUM--><g class="link" data-entity-1="MODE_SEL_BANK" data-entity-2="MODE_SEL_NUM" data-source-line="42" data-uid="lnk23" id="link_MODE_SEL_BANK_MODE_SEL_NUM"><path d="M772.05,565.99 C769.03,544.58 765.87,508.88 772.27,479 C774.46,468.79 776.2641,463.5002 780.6241,454.7502" fill="none" id="MODE_SEL_BANK-to-MODE_SEL_NUM-1" style="stroke:#181818;stroke-width:1;"/><polygon fill="#181818" points="783.3,449.38,775.706,455.6514,781.0701,453.8552,782.8663,459.2193,783.3,449.38" style="stroke:#181818;stroke-width:1;"/><text fill="#000000" font-family="sans-serif" font-size="13" lengthAdjust="spacing" textLength="95.4434" x="773.27" y="492.0669">Press [LOOP#]</text></g><!--reverse link MODE_PGM to MODE_SEL_NUM--><g class="link" data-entity-1="MODE_PGM" data-entity-2="MODE_SEL_NUM" data-source-line="36" data-uid="lnk17" id="link_MODE_PGM_MODE_SEL_NUM"><path d="M1390.1612,272.9636 C1268.4712,283.2136 990.13,309.94 901.27,347 C866.65,361.44 833.26,389.76 813.24,408.78" fill="none" id="MODE_PGM-backto-MODE_SEL_NUM" style="stroke:#181818;stroke-width:1;"/><polygon fill="#181818" points="1396.14,272.46,1386.836,269.2295,1391.1576,272.8797,1387.5075,277.2013,1396.14,272.46" style="stroke:#181818;stroke-width:1;"/><text fill="#000000" font-family="sans-serif" font-size="13" lengthAdjust="spacing" textLength="95.4434" x="990.27" y="335.0669">Press [LOOP#]</text></g><!--link MODE_SEL_NUM to MODE_WRITE_NUM--><g class="link" data-entity-1="MODE_SEL_NUM" data-entity-2="MODE_WRITE_NUM" data-source-line="38" data-uid="lnk20" id="link_MODE_SEL_NUM_MODE_WRITE_NUM"><path d="M857.03,441.39 C871.55,443.95 886.94,446.62 901.27,449 C987.34,463.29 1011.85,453.44 1095.27,479 C1112.19,484.18 1114.17,491.46 1131.27,496 C1175.22,507.68 1191.03,487.15 1233.27,504 C1266.89,517.41 1293.8805,541.9177 1312.2005,561.3177" fill="none" id="MODE_SEL_NUM-to-MODE_WRITE_NUM" style="stroke:#181818;stroke-width:1;"/><polygon fill="#181818" points="1316.32,565.68,1313.049,556.3902,1312.8871,562.0447,1307.2326,561.8828,1316.32,565.68" style="stroke:#181818;stroke-width:1;"/><text fill="#000000" font-family="sans-serif" font-size="13" lengthAdjust="spacing" textLength="174.6621" x="1132.27" y="492.0669">Press and Hold [MAN/PGM]</text></g><!--link MODE_SEL_NUM to MODE_WRITE_BANK--><g class="link" data-entity-1="MODE_SEL_NUM" data-entity-2="MODE_WRITE_BANK" data-source-line="39" data-uid="lnk21" id="link_MODE_SEL_NUM_MODE_WRITE_BANK"><path d="M856.98,441.4 C933.33,455.34 1052.44,477.3 1054.27,479 C1105.11,526.28 1046.12,579.99 1094.27,630 C1137.47,674.86 1201.0709,691.9502 1254.5509,698.9602" fill="none" id="MODE_SEL_NUM-to-MODE_WRITE_BANK" style="stroke:#181818;stroke-width:1;"/><polygon fill="#181818" points="1260.5,699.74,1252.0962,694.6042,1255.5424,699.0902,1251.0565,702.5364,1260.5,699.74" style="stroke:#181818;stroke-width:1;"/><text fill="#000000" font-family="sans-serif" font-size="13" lengthAdjust="spacing" textLength="147.3799" x="1095.27" y="590.5669">Press and Hold [BANK]</text></g><!--link MODE_SEL_BANK to MODE_WRITE_NUM--><g class="link" data-entity-1="MODE_SEL_BANK" data-entity-2="MODE_WRITE_NUM" data-source-line="44" data-uid="lnk26" id="link_MODE_SEL_BANK_MODE_WRITE_NUM"><path d="M791.55,565.94 C809.86,545.13 841.73,513.87 877.27,501 C951.66,474.07 1159,476.74 1233.27,504 C1267.21,516.45 1293.9697,541.2443 1312.1597,561.2143" fill="none" id="MODE_SEL_BANK-to-MODE_WRITE_NUM" style="stroke:#181818;stroke-width:1;"/><polygon fill="#181818" points="1316.2,565.65,1313.0966,556.3029,1312.833,561.9536,1307.1823,561.69,1316.2,565.65" style="stroke:#181818;stroke-width:1;"/><text fill="#000000" font-family="sans-serif" font-size="13" lengthAdjust="spacing" textLength="174.6621" x="878.27" y="492.0669">Press and Hold [MAN/PGM]</text></g><!--link MODE_SEL_BANK to MODE_WRITE_BANK--><g class="link" data-entity-1="MODE_SEL_BANK" data-entity-2="MODE_WRITE_BANK" data-source-line="45" data-uid="lnk27" id="link_MODE_SEL_BANK_MODE_WRITE_BANK"><path d="M803.4,606.27 C828.05,622.14 865.45,643.78 901.27,655 C1023.11,693.16 1166.3812,702.2176 1254.6012,704.0176" fill="none" id="MODE_SEL_BANK-to-MODE_WRITE_BANK" style="stroke:#181818;stroke-width:1;"/><polygon fill="#181818" points="1260.6,704.14,1251.6835,699.9572,1255.601,704.038,1251.5203,707.9556,1260.6,704.14" style="stroke:#181818;stroke-width:1;"/><text fill="#000000" font-family="sans-serif" font-size="13" lengthAdjust="spacing" textLength="147.3799" x="902.27" y="651.0669">Press and Hold [BANK]</text></g><!--link MODE_WRITE_NUM to Write_Memory--><g class="link" data-entity-1="MODE_WRITE_NUM" data-entity-2="Write_Memory" data-source-line="50" data-uid="lnk29" id="link_MODE_WRITE_NUM_Write_Memory"><path d="M1406.04,586 C1447.5,586 1492.67,586 1531.03,586" fill="none" id="MODE_WRITE_NUM-to-Write_Memory" style="stroke:#181818;stroke-width:1;"/><polygon fill="#181818" points="1537.03,586,1528.03,582,1532.03,586,1528.03,590,1537.03,586" style="stroke:#181818;stroke-width:1;"/><text fill="#000000" font-family="sans-serif" font-size="13" lengthAdjust="spacing" textLength="95.4434" x="1424.02" y="579.0669">Press [LOOP#]</text></g><!--link MODE_WRITE_NUM to MODE_WRITE_BANK--><g class="link" data-entity-1="MODE_WRITE_NUM" data-entity-2="MODE_WRITE_BANK" data-source-line="53" data-uid="lnk30" id="link_MODE_WRITE_NUM_MODE_WRITE_BANK"><path d="M1308.08,606.07 C1294.15,619.1 1281,637.17 1288.27,655 C1292.95,666.47 1297.3404,672.6312 1306.1404,680.7512" fill="none" id="MODE_WRITE_NUM-to-MODE_WRITE_BANK" style="stroke:#181818;stroke-width:1;"/><polygon fill="#181818" points="1310.55,684.82,1306.6482,675.777,1306.8753,681.4293,1301.2231,681.6565,1310.55,684.82" style="stroke:#181818;stroke-width:1;"/><text fill="#000000" font-family="sans-serif" font-size="13" lengthAdjust="spacing" textLength="85.0649" x="1289.27" y="651.0669">Press [BANK]</text></g><!--link MODE_WRITE_BANK to MODE_WRITE_NUM--><g class="link" data-entity-1="MODE_WRITE_BANK" data-entity-2="MODE_WRITE_NUM" data-source-line="59" data-uid="lnk35" id="link_MODE_WRITE_BANK_MODE_WRITE_NUM"><path d="M1411.88,694.76 C1456.91,685.91 1501.35,669.1 1479.27,638 C1462.41,614.25 1439.4336,602.9143 1411.8536,596.0743" fill="none" id="MODE_WRITE_BANK-to-MODE_WRITE_NUM" style="stroke:#181818;stroke-width:1;"/><polygon fill="#181818" points="1406.03,594.63,1413.8025,600.6788,1410.883,595.8336,1415.7282,592.914,1406.03,594.63" style="stroke:#181818;stroke-width:1;"/><text fill="#000000" font-family="sans-serif" font-size="13" lengthAdjust="spacing" textLength="95.4434" x="1485.27" y="651.0669">Press [LOOP#]</text></g><!--link MODE_WRITE_BANK to MODE_WRITE_NUM--><g class="link" data-entity-1="MODE_WRITE_BANK" data-entity-2="MODE_WRITE_NUM" data-source-line="61" data-uid="lnk38" id="link_MODE_WRITE_BANK_MODE_WRITE_NUM"><path d="M1363.29,684.93 C1377.38,672.46 1390.35,655.32 1383.27,638 C1378.25,625.72 1373.145,618.8202 1363.715,610.2702" fill="none" id="MODE_WRITE_BANK-to-MODE_WRITE_NUM-1" style="stroke:#181818;stroke-width:1;"/><polygon fill="#181818" points="1359.27,606.24,1363.2507,615.2486,1362.9741,609.5985,1368.6242,609.3219,1359.27,606.24" style="stroke:#181818;stroke-width:1;"/><text fill="#000000" font-family="sans-serif" font-size="13" lengthAdjust="spacing" textLength="85.0649" x="1385.27" y="651.0669">Press [BANK]</text></g><!--reverse link MODE_PGM to Write_Memory--><g class="link" data-entity-1="MODE_PGM" data-entity-2="Write_Memory" data-source-line="57" data-uid="lnk34" id="link_MODE_PGM_Write_Memory"><path d="M1514.6071,273.2665 C1563.5271,280.4065 1625.67,298.21 1659.27,347 C1707.91,417.63 1640.27,523.16 1608.35,565.96" fill="none" id="MODE_PGM-backto-Write_Memory" style="stroke:#181818;stroke-width:1;"/><polygon fill="#181818" points="1508.67,272.4,1516.998,277.6579,1513.6176,273.1221,1518.1533,269.7417,1508.67,272.4" style="stroke:#181818;stroke-width:1;"/></g><!--SRC=[bPDDQuD048RFpgyOwA5Ga99h3uMKIXiQDRG9EOGGf6xQ1R_G3IKj_UzrDUgEhX_rf3FlEpFxxFZ9VOOiJCGPVPQzfpmHF8u0TZTxDCrxN4HSS2_WtmplS1L_iHHT1qXq7WIuTDqLniSZpTYRjTMDhfvid9ap03KiUzdketMmvmv09Zp1wczPoOjENb140AwRZE8oyYSldh8imvsSvseFZQuIlbdBWxEnLMsUlyrdwbC_p9qNLIw_TThjws9jjMfxaO_FSU0FDYcDPPkkiMn7a4Y0KXX_f5v8cSXKLJT_xsLIw09s51HW3vD2FP49qVw7YSOuZKaraEo3Fs0ef2wtZPsWr2Fy0X2Pveow8zRoKq9PQr5hr8EmQtsNuHX2lNM48cNI_L7w28p9smnAVGl200DQlw4m1OBEMs3efL3kHwFKB5Cz0ch2vK8PBM4-mJRbWXri5iRfkKkdsa35CZ0rkJB5CWeLr2bQUqlAZK4djwfQfjshwkZlSJdb7m00]--></g></svg>