<?plantuml 1.2026.1?><svg xmlns="http://www.w3.org/2000/svg" xmlns:xlink="http://www.w3.org/1999/xlink" contentStyleType="text/css" data-diagram-type="STATE" height="985px" preserveAspectRatio="none" style="width:1381px;height:985px;background:#FFFFFF;" version="1.1" viewBox="0 0 1381 985" width="1381px" zoomAndPan="magnify"><defs/><g><!--cluster sel_write--><g class="cluster" data-qualified-name="sel_write" data-source-line="28" id="ent0005"><path d="M453.5,401 L1057.5,401 A12.5,12.5 0 0 1 1070,413.5 L1070,424.3203 L441,424.3203 L441,413.5 A12.5,12.5 0 0 1 453.5,401" fill="#F1F1F1"/><rect fill="none" height="578" rx="12.5" ry="12.5" style="stroke:#181818;stroke-width:0.5;" width="629" x="441" y="401"/><line style="stroke:#181818;stroke-width:0.5;" x1="441" x2="1070" y1="424.3203" y2="424.3203"/><text fill="#000000" font-family="sans-serif" font-size="14" lengthAdjust="spacing" textLength="57.5107" x="726.7446" y="419.6016">sel_write</text></g><!--cluster SEL_BANK_NUM--><g class="cluster" data-qualified-name="sel_write.SEL_BANK_NUM" data-source-line="29" id="ent0006"><path d="M580.5,446 L951.5,446 A12.5,12.5 0 0 1 964,458.5 L964,469.3203 L568,469.3203 L568,458.5 A12.5,12.5 0 0 1 580.5,446" fill="#F1F1F1"/><rect fill="none" height="229" rx="12.5" ry="12.5" style="stroke:#181818;stroke-width:0.5;" width="396" x="568" y="446"/><line style="stroke:#181818;stroke-width:0.5;" x1="568" x2="964" y1="469.3203" y2="469.3203"/><text fill="#000000" font-family="sans-serif" font-size="14" lengthAdjust="spacing" textLength="109.4365" x="711.2817" y="464.6016">SEL_BANK_NUM</text></g><!--cluster WRITE_BANK_NUM--><g class="cluster" data-qualified-name="sel_write.WRITE_BANK_NUM" data-source-line="49" id="ent0009"><path d="M477.5,743 L857.5,743 A12.5,12.5 0 0 1 870,755.5 L870,766.3203 L465,766.3203 L465,755.5 A12.5,12.5 0 0 1 477.5,743" fill="#F1F1F1"/><rect fill="none" height="212" rx="12.5" ry="12.5" style="stroke:#181818;stroke-width:0.5;" width="405" x="465" y="743"/><line style="stroke:#181818;stroke-width:0.5;" x1="465" x2="870" y1="766.3203" y2="766.3203"/><text fill="#000000" font-family="sans-serif" font-size="14" lengthAdjust="spacing" textLength="128.3857" x="603.3071" y="761.6016">WRITE_BANK_NUM</text></g><rect fill="#F1F1F1" height="40" rx="12.5" ry="12.5" style="stroke:#181818;stroke-width:0.5;" width="124.3174" x="790" y="483"/><text fill="#000000" font-family="sans-serif" font-size="14" lengthAdjust="spacing" textLength="114.3174" x="795" y="508.4414">MODE_SEL_NUM</text><rect fill="#F1F1F1" height="40" rx="12.5" ry="12.5" style="stroke:#181818;stroke-width:0.5;" width="128.4258" x="609" y="619"/><text fill="#000000" font-family="sans-serif" font-size="14" lengthAdjust="spacing" textLength="118.4258" x="614" y="644.4414">MODE_SEL_BANK</text><rect fill="#F1F1F1" height="40" rx="12.5" ry="12.5" style="stroke:#181818;stroke-width:0.5;" width="143.2666" x="481.5" y="780"/><text fill="#000000" font-family="sans-serif" font-size="14" lengthAdjust="spacing" textLength="133.2666" x="486.5" y="805.4414">MODE_WRITE_NUM</text><rect fill="#F1F1F1" height="40" rx="12.5" ry="12.5" style="stroke:#181818;stroke-width:0.5;" width="147.375" x="630.5" y="899"/><text fill="#000000" font-family="sans-serif" font-size="14" lengthAdjust="spacing" textLength="137.375" x="635.5" y="924.4414">MODE_WRITE_BANK</text><rect fill="#F1F1F1" height="40" rx="12.5" ry="12.5" style="stroke:#181818;stroke-width:0.5;" width="105.0811" x="748.5" y="780"/><text fill="#000000" font-family="sans-serif" font-size="14" lengthAdjust="spacing" textLength="95.0811" x="753.5" y="805.4414">Write_Memory</text><g><rect fill="#F1F1F1" height="85.4297" rx="12.5" ry="12.5" style="stroke:#181818;stroke-width:0.5;" width="87.8926" x="448" y="105"/><line style="stroke:#181818;stroke-width:0.5;" x1="448" x2="535.8926" y1="133.3203" y2="133.3203"/><text fill="#000000" font-family="sans-serif" font-size="14" lengthAdjust="spacing" textLength="54.7559" x="464.5684" y="124.6016">Initialize</text><text fill="#000000" font-family="sans-serif" font-size="12" lengthAdjust="spacing" textLength="67.8926" x="453" y="150.8359">All LOOP off</text><text fill="#000000" font-family="sans-serif" font-size="12" lengthAdjust="spacing" textLength="51.8555" x="453" y="166.5391">MUTE off</text><text fill="#000000" font-family="sans-serif" font-size="12" lengthAdjust="spacing" textLength="49.8633" x="453" y="182.2422">PGM 1-1</text></g><g><rect fill="#F1F1F1" height="85.4297" rx="12.5" ry="12.5" style="stroke:#181818;stroke-width:0.5;" width="254.0703" x="365" y="251"/><line style="stroke:#181818;stroke-width:0.5;" x1="365" x2="619.0703" y1="279.3203" y2="279.3203"/><text fill="#000000" font-family="sans-serif" font-size="14" lengthAdjust="spacing" textLength="81.8945" x="451.0879" y="270.6016">MODE_MAN</text><text fill="#000000" font-family="sans-serif" font-size="12" lengthAdjust="spacing" textLength="81.5039" x="370" y="296.8359">Manual MODE</text><text fill="#000000" font-family="sans-serif" font-size="12" lengthAdjust="spacing" textLength="3.2402" x="370" y="312.5391">&#160;</text><text fill="#000000" font-family="sans-serif" font-size="12" lengthAdjust="spacing" textLength="230.9297" x="373.1406" y="328.2422">Press [LOOP#] to toggle LOOP# ON/OFF.</text></g><g><rect fill="#F1F1F1" height="85.4297" rx="12.5" ry="12.5" style="stroke:#181818;stroke-width:0.5;" width="280.9121" x="938.5" y="251"/><line style="stroke:#181818;stroke-width:0.5;" x1="938.5" x2="1219.4121" y1="279.3203" y2="279.3203"/><text fill="#000000" font-family="sans-serif" font-size="14" lengthAdjust="spacing" textLength="81.5732" x="1038.1694" y="270.6016">MODE_PGM</text><text fill="#000000" font-family="sans-serif" font-size="12" lengthAdjust="spacing" textLength="87.0469" x="943.5" y="296.8359">Program MODE</text><text fill="#000000" font-family="sans-serif" font-size="12" lengthAdjust="spacing" textLength="3.2402" x="943.5" y="312.5391">&#160;</text><text fill="#000000" font-family="sans-serif" font-size="12" lengthAdjust="spacing" textLength="257.7715" x="946.6406" y="328.2422">Press [LOOP#] to switch the Program Number.</text></g><ellipse cx="492" cy="16" fill="#222222" rx="10" ry="10" style="stroke:#222222;stroke-width:1;"/><!--link *start* to Initialize--><g class="link" data-entity-1="ent0002" data-entity-2="ent0002" data-link-type="dependency" data-source-line="4" id="lnk3"><path d="M492,26.31 C492,42.55 492,70.97 492,98.83" fill="none" id="*start*-to-Initialize" style="stroke:#181818;stroke-width:1;"/><polygon fill="#181818" points="492,104.83,496,95.83,492,99.83,488,95.83,492,104.83" style="stroke:#181818;stroke-width:1;"/><text fill="#000000" font-family="sans-serif" font-size="13" lengthAdjust="spacing" textLength="61.5469" x="493" y="70.5586">Power ON</text></g><!--link Initialize to MODE_MAN--><g class="link" data-entity-1="ent0002" data-entity-2="ent0003" data-link-type="dependency" data-source-line="10" id="lnk4"><path d="M492,190.15 C492,209.26 492,225.85 492,244.94" fill="none" id="Initialize-to-MODE_MAN" style="stroke:#181818;stroke-width:1;"/><polygon fill="#181818" points="492,250.94,496,241.94,492,245.94,488,241.94,492,250.94" style="stroke:#181818;stroke-width:1;"/></g><!--link MODE_MAN to MODE_SEL_NUM--><g class="link" data-entity-1="ent0003" data-entity-2="ent0007" data-link-type="dependency" data-source-line="14" id="lnk5"><path d="M546.4,336.18 C574.95,357.15 607.37,379.31 624,385 C652.85,394.87 733.77,379.28 761,393 C799.97,412.63 825.6874,451.9469 839.6174,477.6069" fill="none" id="MODE_MAN-to-MODE_SEL_NUM" style="stroke:#181818;stroke-width:1;"/><polygon fill="#181818" points="842.48,482.88,841.7015,473.062,840.0945,478.4858,834.6707,476.8788,842.48,482.88" style="stroke:#181818;stroke-width:1;"/><text fill="#000000" font-family="sans-serif" font-size="13" lengthAdjust="spacing" textLength="109.459" x="625" y="380.5586">Press [MAN/PGM]</text></g><!--reverse link MODE_MAN to MODE_SEL_NUM--><g class="link" data-entity-1="ent0003" data-entity-2="ent0007" data-link-type="dependency" data-source-line="35" id="lnk18"><path d="M624.9497,317.4872 C665.4697,328.2272 703.24,342.59 739,366 C786,396.77 823.55,453.04 841.14,482.64" fill="none" id="MODE_MAN-backto-MODE_SEL_NUM" style="stroke:#181818;stroke-width:1;stroke-dasharray:7,7;"/><polygon fill="#181818" points="619.15,315.95,626.8248,322.1224,623.9831,317.231,628.8744,314.3894,619.15,315.95" style="stroke:#181818;stroke-width:1;"/><text fill="#000000" font-family="sans-serif" font-size="13" lengthAdjust="spacing" textLength="109.459" x="762" y="380.5586">Press [MAN/PGM]</text></g><!--link MODE_MAN to MODE_SEL_BANK--><g class="link" data-entity-1="ent0003" data-entity-2="ent0008" data-link-type="dependency" data-source-line="15" id="lnk6"><path d="M485.69,336.13 C478.61,399.81 475.66,521.14 542,589 C559.91,607.32 579.5622,617.1057 603.2422,624.3457" fill="none" id="MODE_MAN-to-MODE_SEL_BANK" style="stroke:#181818;stroke-width:1;"/><polygon fill="#181818" points="608.98,626.1,601.5428,619.6434,604.1985,624.6381,599.2038,627.2938,608.98,626.1" style="stroke:#181818;stroke-width:1;"/><text fill="#000000" font-family="sans-serif" font-size="13" lengthAdjust="spacing" textLength="78.6157" x="502" y="508.0586">Press [BANK]</text></g><!--reverse link MODE_MAN to MODE_SEL_BANK--><g class="link" data-entity-1="ent0003" data-entity-2="ent0008" data-link-type="dependency" data-source-line="41" id="lnk26"><path d="M550.6382,340.3343 C567.3082,356.1843 579.42,371.52 589,393 C606.77,432.85 579.42,551.07 601,589 C608.03,601.35 619.6,611.24 631.44,618.81" fill="none" id="MODE_MAN-backto-MODE_SEL_BANK" style="stroke:#181818;stroke-width:1;stroke-dasharray:7,7;"/><polygon fill="#181818" points="546.29,336.2,550.0561,345.3003,549.9135,339.6453,555.5686,339.5027,546.29,336.2" style="stroke:#181818;stroke-width:1;"/><text fill="#000000" font-family="sans-serif" font-size="13" lengthAdjust="spacing" textLength="109.459" x="596" y="508.0586">Press [MAN/PGM]</text></g><!--link MODE_MAN to MODE_WRITE_NUM--><g class="link" data-entity-1="ent0003" data-entity-2="ent0010" data-link-type="dependency" data-source-line="16" id="lnk7"><path d="M466.32,336.2 C434.37,393.49 387.1,499.61 414,589 C437.88,668.34 498.4974,740.8839 530.4974,775.5039" fill="none" id="MODE_MAN-to-MODE_WRITE_NUM" style="stroke:#181818;stroke-width:1;"/><polygon fill="#181818" points="534.57,779.91,531.3984,770.5858,531.1761,776.2383,525.5236,776.016,534.57,779.91" style="stroke:#181818;stroke-width:1;"/><text fill="#000000" font-family="sans-serif" font-size="13" lengthAdjust="spacing" textLength="91.4316" x="415" y="567.5586">Press and Hold</text><text fill="#000000" font-family="sans-serif" font-size="13" lengthAdjust="spacing" textLength="73.7661" x="423.8328" y="584.5703">[MAN/PGM]</text></g><!--reverse link MODE_MAN to MODE_WRITE_NUM--><g class="link" data-entity-1="ent0003" data-entity-2="ent0010" data-link-type="dependency" data-source-line="57" id="lnk35"><path d="M422.8154,339.6822 C347.0254,394.4022 241.74,491.51 288,589 C333.42,684.73 446.53,749.86 509.3,779.96" fill="none" id="MODE_MAN-backto-MODE_WRITE_NUM" style="stroke:#181818;stroke-width:1;stroke-dasharray:7,7;"/><polygon fill="#181818" points="427.68,336.17,418.0416,338.1953,423.6262,339.0968,422.7246,344.6814,427.68,336.17" style="stroke:#181818;stroke-width:1;"/><text fill="#000000" font-family="sans-serif" font-size="13" lengthAdjust="spacing" textLength="109.459" x="289" y="576.0586">Press [MAN/PGM]</text></g><!--link MODE_MAN to MODE_WRITE_BANK--><g class="link" data-entity-1="ent0003" data-entity-2="ent0011" data-link-type="dependency" data-source-line="17" id="lnk8"><path d="M364.94,296.17 C220.95,305.59 6,345.81 6,502 C6,502 6,502 6,801 C6,868.98 77.56,850.61 143,869 C232.71,894.21 493.8862,908.7674 624.4862,914.7074" fill="none" id="MODE_MAN-to-MODE_WRITE_BANK" style="stroke:#181818;stroke-width:1;"/><polygon fill="#181818" points="630.48,914.98,621.671,910.5752,625.4852,914.7528,621.3076,918.567,630.48,914.98" style="stroke:#181818;stroke-width:1;"/><text fill="#000000" font-family="sans-serif" font-size="13" lengthAdjust="spacing" textLength="91.4316" x="7" y="635.5586">Press and Hold</text><text fill="#000000" font-family="sans-serif" font-size="13" lengthAdjust="spacing" textLength="42.9229" x="31.2544" y="652.5703">[BANK]</text></g><!--reverse link MODE_MAN to MODE_WRITE_BANK--><g class="link" data-entity-1="ent0003" data-entity-2="ent0011" data-link-type="dependency" data-source-line="60" id="lnk38"><path d="M359.0828,324.2587 C268.6928,352.4887 169,404.52 169,502 C169,502 169,502 169,801 C169,894.35 483.81,913.33 630.45,917.11" fill="none" id="MODE_MAN-backto-MODE_WRITE_BANK" style="stroke:#181818;stroke-width:1;stroke-dasharray:7,7;"/><polygon fill="#181818" points="364.81,322.47,355.0268,321.3349,360.0373,323.9606,357.4117,328.9711,364.81,322.47" style="stroke:#181818;stroke-width:1;"/><text fill="#000000" font-family="sans-serif" font-size="13" lengthAdjust="spacing" textLength="109.459" x="170" y="644.0586">Press [MAN/PGM]</text></g><!--reverse link MODE_MAN to MODE_PGM--><g class="link" data-entity-1="ent0003" data-entity-2="ent0004" data-link-type="dependency" data-source-line="22" id="lnk10"><path d="M625.01,293.5 C719.06,293.5 841.2,293.5 938.35,293.5" fill="none" id="MODE_MAN-backto-MODE_PGM" style="stroke:#181818;stroke-width:1;"/><polygon fill="#181818" points="619.01,293.5,628.01,297.5,624.01,293.5,628.01,289.5,619.01,293.5" style="stroke:#181818;stroke-width:1;"/><text fill="#000000" font-family="sans-serif" font-size="13" lengthAdjust="spacing" textLength="109.459" x="724.25" y="286.0586">Press [MAN/PGM]</text></g><!--link MODE_PGM to MODE_SEL_BANK--><g class="link" data-entity-1="ent0004" data-entity-2="ent0008" data-link-type="dependency" data-source-line="23" id="lnk11"><path d="M1052.95,336.3 C1042.8,351.9 1030.78,369.57 1019,385 C1016.13,388.75 1014.43,388.95 1012,393 C964.13,472.87 1009.44,529.28 938,589 C936.05,590.63 820.9257,611.5003 743.1257,625.4603" fill="none" id="MODE_PGM-to-MODE_SEL_BANK" style="stroke:#181818;stroke-width:1;"/><polygon fill="#181818" points="737.22,626.52,746.785,628.8676,742.1414,625.6369,745.3721,620.9934,737.22,626.52" style="stroke:#181818;stroke-width:1;"/><text fill="#000000" font-family="sans-serif" font-size="13" lengthAdjust="spacing" textLength="78.6157" x="1013" y="508.0586">Press [BANK]</text></g><!--link MODE_PGM to MODE_WRITE_NUM--><g class="link" data-entity-1="ent0004" data-entity-2="ent0010" data-link-type="dependency" data-source-line="24" id="lnk12"><path d="M1087.87,336.48 C1091.12,353.88 1094.4,374.33 1096,393 C1100.93,450.57 1101.72,465.51 1096,523 C1086.84,615.03 1125.82,667.52 1055,727 C1041.21,738.58 748.7,731.69 731,735 C682.42,744.09 634.9441,762.2216 599.5241,777.5916" fill="none" id="MODE_PGM-to-MODE_WRITE_NUM" style="stroke:#181818;stroke-width:1;"/><polygon fill="#181818" points="594.02,779.98,603.8685,780.0668,598.6068,777.9896,600.6839,772.7279,594.02,779.98" style="stroke:#181818;stroke-width:1;"/><text fill="#000000" font-family="sans-serif" font-size="13" lengthAdjust="spacing" textLength="91.4316" x="1096" y="567.5586">Press and Hold</text><text fill="#000000" font-family="sans-serif" font-size="13" lengthAdjust="spacing" textLength="73.7661" x="1104.8328" y="584.5703">[MAN/PGM]</text></g><!--link MODE_PGM to MODE_WRITE_BANK--><g class="link" data-entity-1="ent0004" data-entity-2="ent0011" data-link-type="dependency" data-source-line="25" id="lnk13"><path d="M1159.13,336.04 C1215.52,371.63 1281,428.72 1281,502 C1281,502 1281,502 1281,801 C1281,902.57 939.2198,916.8979 783.6598,918.2479" fill="none" id="MODE_PGM-to-MODE_WRITE_BANK" style="stroke:#181818;stroke-width:1;"/><polygon fill="#181818" points="777.66,918.3,786.6944,922.2217,782.6598,918.2566,786.6249,914.222,777.66,918.3" style="stroke:#181818;stroke-width:1;"/><text fill="#000000" font-family="sans-serif" font-size="13" lengthAdjust="spacing" textLength="91.4316" x="1282" y="635.5586">Press and Hold</text><text fill="#000000" font-family="sans-serif" font-size="13" lengthAdjust="spacing" textLength="42.9229" x="1306.2544" y="652.5703">[BANK]</text></g><!--link MODE_SEL_NUM to MODE_SEL_BANK--><g class="link" data-entity-1="ent0007" data-entity-2="ent0008" data-link-type="dependency" data-source-line="33" id="lnk14"><path d="M789.84,517 C780.18,519.01 770.32,521.06 761,523 C696.57,536.39 657.55,501.97 616,553 C605.9,565.41 609.32,574.46 616,589 C621.44,600.86 626.6096,607.2262 636.6396,615.0962" fill="none" id="MODE_SEL_NUM-to-MODE_SEL_BANK" style="stroke:#181818;stroke-width:1;"/><polygon fill="#181818" points="641.36,618.8,636.7487,610.0974,637.4264,615.7135,631.8103,616.3912,641.36,618.8" style="stroke:#181818;stroke-width:1;"/><text fill="#000000" font-family="sans-serif" font-size="13" lengthAdjust="spacing" textLength="78.6157" x="617" y="576.0586">Press [BANK]</text></g><!--reverse link MODE_SEL_NUM to MODE_SEL_BANK--><g class="link" data-entity-1="ent0007" data-entity-2="ent0008" data-link-type="dependency" data-source-line="39" id="lnk22"><path d="M784.6783,525.261 C766.0983,532.781 751.98,540.43 736,553 C712.9,571.17 694.06,599.83 683.19,618.77" fill="none" id="MODE_SEL_NUM-backto-MODE_SEL_BANK" style="stroke:#181818;stroke-width:1;"/><polygon fill="#181818" points="790.24,523.01,780.3967,522.6787,785.6052,524.8859,783.3981,530.0944,790.24,523.01" style="stroke:#181818;stroke-width:1;"/><text fill="#000000" font-family="sans-serif" font-size="13" lengthAdjust="spacing" textLength="78.6157" x="737" y="576.0586">Press [BANK]</text></g><!--reverse link MODE_SEL_NUM to MODE_SEL_BANK--><g class="link" data-entity-1="ent0007" data-entity-2="ent0008" data-link-type="dependency" data-source-line="40" id="lnk24"><path d="M848.5676,529.0688 C845.1876,548.2288 838.29,571.4 820,589 C797.61,610.55 765.5,622.62 737,629.39" fill="none" id="MODE_SEL_NUM-backto-MODE_SEL_BANK-1" style="stroke:#181818;stroke-width:1;"/><polygon fill="#181818" points="849.61,523.16,844.1073,531.3282,848.7414,528.084,851.9856,532.7181,849.61,523.16" style="stroke:#181818;stroke-width:1;"/><text fill="#000000" font-family="sans-serif" font-size="13" lengthAdjust="spacing" textLength="87.3057" x="842" y="576.0586">Press [LOOP#]</text></g><!--reverse link MODE_PGM to MODE_SEL_NUM--><g class="link" data-entity-1="ent0004" data-entity-2="ent0007" data-link-type="dependency" data-source-line="34" id="lnk16"><path d="M962.2198,339.148 C947.2898,347.608 938.17,354.55 926,366 C890.37,399.52 868,454.12 858.04,482.88" fill="none" id="MODE_PGM-backto-MODE_SEL_NUM" style="stroke:#181818;stroke-width:1;"/><polygon fill="#181818" points="967.44,336.19,957.6377,337.1469,963.0898,338.655,961.5817,344.1071,967.44,336.19" style="stroke:#181818;stroke-width:1;"/><text fill="#000000" font-family="sans-serif" font-size="13" lengthAdjust="spacing" textLength="87.3057" x="927" y="380.5586">Press [LOOP#]</text></g><!--link MODE_SEL_NUM to MODE_WRITE_NUM--><g class="link" data-entity-1="ent0007" data-entity-2="ent0010" data-link-type="dependency" data-source-line="36" id="lnk19"><path d="M905.58,523.22 C918.43,530.5 930.57,540.22 938,553 C946.04,566.83 947.09,575.83 938,589 C916.67,619.91 891.22,599.7 859,619 C796.31,656.56 797.43,689.01 735,727 C697.84,749.61 658.0188,765.6732 621.8088,778.0232" fill="none" id="MODE_SEL_NUM-to-MODE_WRITE_NUM" style="stroke:#181818;stroke-width:1;"/><polygon fill="#181818" points="616.13,779.96,625.9394,780.8406,620.8623,778.346,623.357,773.2689,616.13,779.96" style="stroke:#181818;stroke-width:1;"/><text fill="#000000" font-family="sans-serif" font-size="13" lengthAdjust="spacing" textLength="91.4316" x="860" y="635.5586">Press and Hold</text><text fill="#000000" font-family="sans-serif" font-size="13" lengthAdjust="spacing" textLength="73.7661" x="868.8328" y="652.5703">[MAN/PGM]</text></g><!--link MODE_SEL_NUM to MODE_WRITE_BANK--><g class="link" data-entity-1="ent0007" data-entity-2="ent0011" data-link-type="dependency" data-source-line="37" id="lnk20"><path d="M911.39,523.04 C925.94,530.3 940.14,540.06 950,553 C1022.58,648.24 1055.39,722.42 986,820 C939.07,886 850.3365,907.3064 783.6665,914.3864" fill="none" id="MODE_SEL_NUM-to-MODE_WRITE_BANK" style="stroke:#181818;stroke-width:1;"/><polygon fill="#181818" points="777.7,915.02,787.0721,918.0472,782.672,914.492,786.2273,910.092,777.7,915.02" style="stroke:#181818;stroke-width:1;"/><text fill="#000000" font-family="sans-serif" font-size="13" lengthAdjust="spacing" textLength="91.4316" x="1025" y="705.5586">Press and Hold</text><text fill="#000000" font-family="sans-serif" font-size="13" lengthAdjust="spacing" textLength="42.9229" x="1049.2544" y="722.5703">[BANK]</text></g><!--link MODE_SEL_BANK to MODE_WRITE_NUM--><g class="link" data-entity-1="ent0008" data-entity-2="ent0010" data-link-type="dependency" data-source-line="42" id="lnk27"><path d="M658.53,659.18 C635.46,689.74 594.234,744.3605 571.144,774.9605" fill="none" id="MODE_SEL_BANK-to-MODE_WRITE_NUM" style="stroke:#181818;stroke-width:1;"/><polygon fill="#181818" points="567.53,779.75,576.144,774.9751,570.5417,775.7588,569.758,770.1565,567.53,779.75" style="stroke:#181818;stroke-width:1;"/><text fill="#000000" font-family="sans-serif" font-size="13" lengthAdjust="spacing" textLength="91.4316" x="635" y="705.5586">Press and Hold</text><text fill="#000000" font-family="sans-serif" font-size="13" lengthAdjust="spacing" textLength="73.7661" x="643.8328" y="722.5703">[MAN/PGM]</text></g><!--link MODE_SEL_BANK to MODE_WRITE_BANK--><g class="link" data-entity-1="ent0008" data-entity-2="ent0011" data-link-type="dependency" data-source-line="44" id="lnk28"><path d="M728.79,659.17 C781.47,678.53 854.75,709.19 871,735 C904.78,788.67 874.71,833.75 822,869 C803.84,881.15 787.7642,889.0053 767.9942,896.7753" fill="none" id="MODE_SEL_BANK-to-MODE_WRITE_BANK" style="stroke:#181818;stroke-width:1;"/><polygon fill="#181818" points="762.41,898.97,772.2494,899.4007,767.0635,897.1411,769.3232,891.9551,762.41,898.97" style="stroke:#181818;stroke-width:1;"/><text fill="#000000" font-family="sans-serif" font-size="13" lengthAdjust="spacing" textLength="91.4316" x="886" y="796.5586">Press and Hold</text><text fill="#000000" font-family="sans-serif" font-size="13" lengthAdjust="spacing" textLength="42.9229" x="910.2544" y="813.5703">[BANK]</text></g><!--link MODE_WRITE_NUM to Write_Memory--><g class="link" data-entity-1="ent0010" data-entity-2="ent0029" data-link-type="dependency" data-source-line="53" id="lnk30"><path d="M624.73,800 C664.21,800 706.35,800 742.34,800" fill="none" id="MODE_WRITE_NUM-to-Write_Memory" style="stroke:#181818;stroke-width:2;"/><polygon fill="#181818" points="748.34,800,739.34,796,743.34,800,739.34,804,748.34,800" style="stroke:#181818;stroke-width:2;"/><text fill="#000000" font-family="sans-serif" font-size="13" lengthAdjust="spacing" textLength="87.3057" x="643" y="792.5586">Press [LOOP#]</text></g><!--reverse link MODE_PGM to Write_Memory--><g class="link" data-entity-1="ent0004" data-entity-2="ent0029" data-link-type="dependency" data-source-line="54" id="lnk32"><path d="M1128.0137,340.6504 C1135.7237,349.8104 1138.99,355.38 1144,366 C1212.87,512.05 1238.67,639.44 1103,727 C1080.58,741.47 887.39,724.19 863,735 C841.93,744.34 824.38,764.49 813.4,779.7" fill="none" id="MODE_PGM-backto-Write_Memory" style="stroke:#181818;stroke-width:2;"/><polygon fill="#181818" points="1124.15,336.06,1126.8854,345.5214,1127.3698,339.8853,1133.0059,340.3697,1124.15,336.06" style="stroke:#181818;stroke-width:2;"/></g><!--link MODE_WRITE_NUM to MODE_WRITE_BANK--><g class="link" data-entity-1="ent0010" data-entity-2="ent0011" data-link-type="dependency" data-source-line="56" id="lnk33"><path d="M531.33,820.21 C517.93,834.43 505.33,853.88 517,869 C531.15,887.33 578.4665,899.1247 624.5365,907.0347" fill="none" id="MODE_WRITE_NUM-to-MODE_WRITE_BANK" style="stroke:#181818;stroke-width:1;"/><polygon fill="#181818" points="630.45,908.05,622.2567,902.5847,625.5221,907.2039,620.9029,910.4693,630.45,908.05" style="stroke:#181818;stroke-width:1;"/><text fill="#000000" font-family="sans-serif" font-size="13" lengthAdjust="spacing" textLength="78.6157" x="518" y="864.5586">Press [BANK]</text></g><!--link MODE_WRITE_BANK to MODE_WRITE_NUM--><g class="link" data-entity-1="ent0011" data-entity-2="ent0010" data-link-type="dependency" data-source-line="59" id="lnk36"><path d="M677.37,898.98 C664.99,890.02 650.13,879.11 637,869 C616.04,852.86 597.3108,837.6852 580.5608,823.8852" fill="none" id="MODE_WRITE_BANK-to-MODE_WRITE_NUM" style="stroke:#181818;stroke-width:1;"/><polygon fill="#181818" points="575.93,820.07,580.3327,828.88,579.789,823.2493,585.4196,822.7056,575.93,820.07" style="stroke:#181818;stroke-width:1;"/><text fill="#000000" font-family="sans-serif" font-size="13" lengthAdjust="spacing" textLength="87.3057" x="638" y="864.5586">Press [LOOP#]</text></g><!--link MODE_WRITE_BANK to MODE_WRITE_NUM--><g class="link" data-entity-1="ent0011" data-entity-2="ent0010" data-link-type="dependency" data-source-line="61" id="lnk39"><path d="M720.68,898.96 C731.28,884.46 741.1,864.59 730,850 C716.87,832.74 673.6357,821.1041 630.4557,812.9441" fill="none" id="MODE_WRITE_BANK-to-MODE_WRITE_NUM-1" style="stroke:#181818;stroke-width:1;"/><polygon fill="#181818" points="624.56,811.83,632.6607,817.4316,629.473,812.7584,634.1462,809.5708,624.56,811.83" style="stroke:#181818;stroke-width:1;"/><text fill="#000000" font-family="sans-serif" font-size="13" lengthAdjust="spacing" textLength="78.6157" x="735" y="864.5586">Press [BANK]</text></g><?plantuml-src bPHDRu9048RFxA-On8D94sgyUZ2ngRQc0gRLU412K5RT1C706cCR_tjtGN0NLj240pixxtmyCx0ZFWQyFz0p-3XPn-H0IHGYPByueEjz68U44YyWlnXwC8rEE0RBH99r40GmiQmfH9kDV6FCPyEgTVfXG5Vl8YIQUIx3UX-wni14AA4UnSMPH_B2enUabcMu364QuoG1cwTjEK0Zzcot0KxhQB4AEzPez8fG4Q48_pESkERSqBHU7eDTTrX9pXtdju7v9NZpeyfryJsU3UN8NkZ3PnJuox0kHoPCioY4MJe92CV7FQDjxErhY2GdGjSxe3jSE9l7_Gh7EHSUI0_mXWhext99dH_Z8ha-mqKXhEVIlX7HZuTSoOv2OHcGd6220_SK4_RsXxJCb3V3Y-HMJM1ztHQeMha24BDBVWf2PKHbHQdkQkLLWUrxoGxxJiFSxjKcZAHs9lLwUVxLbHNKAIkXqUetM47JBAdIoJKgFBLqCk6J6wjfRQYDq02e8NyZtWlxAroNygPGxN3H3wZiyXxVV7LxnV8vVLZmhyKry3wApmhwudKAFvK9AwsANTUgZ4SGFJfOMTeusz8YYQedL-dHXDS6BuYFy1y0?></g></svg>